<?xml version="1.0" encoding="UTF-8" standalone="no"?>
<svg
   width="115"
   height="72"
   viewBox="0 0 115 72"
   fill="none"
   version="1.1"
   id="svg4"
   sodipodi:docname="paper_heading_virus2.svg"
   inkscape:version="1.4.2 (ebf0e940d0, 2025-05-08)"
   inkscape:export-filename="paper_heading_virus.svg.96dpi.png"
   inkscape:export-xdpi="96"
   inkscape:export-ydpi="96"
   xmlns:inkscape="http://www.inkscape.org/namespaces/inkscape"
   xmlns:sodipodi="http://sodipodi.sourceforge.net/DTD/sodipodi-0.dtd"
   xmlns="http://www.w3.org/2000/svg"
   xmlns:svg="http://www.w3.org/2000/svg"
   xmlns:rdf="http://www.w3.org/1999/02/22-rdf-syntax-ns#"
   xmlns:cc="http://creativecommons.org/ns#"
   xmlns:dc="http://purl.org/dc/elements/1.1/">
  <metadata
     id="metadata10">
    <rdf:RDF>
      <cc:Work
         rdf:about="">
        <dc:format>image/svg+xml</dc:format>
        <dc:type
           rdf:resource="http://purl.org/dc/dcmitype/StillImage" />
      </cc:Work>
    </rdf:RDF>
  </metadata>
  <defs
     id="defs8">
    <rect
       x="3"
       y="2"
       width="142.92"
       height="136.91501"
       id="rect1196" />
    <rect
       x="12.500253"
       y="14.598581"
       width="334.51892"
       height="47.488827"
       id="rect348" />
  </defs>
  <sodipodi:namedview
     pagecolor="#ffffff"
     bordercolor="#666666"
     borderopacity="1"
     objecttolerance="10"
     gridtolerance="10"
     guidetolerance="10"
     inkscape:pageopacity="0"
     inkscape:pageshadow="2"
     inkscape:window-width="1920"
     inkscape:window-height="1052"
     id="namedview6"
     showgrid="true"
     inkscape:snap-bbox="true"
     inkscape:bbox-paths="false"
     inkscape:bbox-nodes="true"
     inkscape:snap-object-midpoints="false"
     inkscape:snap-nodes="false"
     inkscape:snap-page="true"
     inkscape:zoom="8"
     inkscape:cx="52.375"
     inkscape:cy="33.125"
     inkscape:window-x="0"
     inkscape:window-y="0"
     inkscape:window-maximized="1"
     inkscape:current-layer="svg4"
     inkscape:showpageshadow="2"
     inkscape:pagecheckerboard="0"
     inkscape:deskcolor="#d1d1d1">
    <inkscape:grid
       type="xygrid"
       id="grid472"
       originx="0"
       originy="0"
       spacingy="1"
       spacingx="1"
       units="px" />
  </sodipodi:namedview>
  <path
     d="m 23.033812,54.193291 -1.126011,-1.234822 1.126011,-1.234821 h 2.545764 0.636441 l 0.66092,1.261666 -0.66092,1.207977 h -2.839506 z m 6.780545,1.261666 h 0.342698 l 1.542146,2.925992 v 4.26819 H 31.332024 L 29.814357,59.74999 Z M 22.2505,50.837797 20.879705,52.341058 H 19.974 V 42.086666 l 0.758834,-0.832162 1.517666,1.637481 v 0.375815 2.120673 z"
     style="font-size:21.3333px;line-height:1.25;font-family:'DSEG14 Classic Mini';-inkscape-font-specification:'DSEG14 Classic Mini';white-space:pre;display:inline;fill:#000000;stroke-width:1.20159"
     id="path1"
     sodipodi:nodetypes="ccccccccccccccccccccccccc" />
  <path
     d="m 23.033812,51.723157 -1.126011,1.234822 1.126011,1.234821 h 2.545764 0.636441 l 0.66092,-1.261666 -0.66092,-1.207977 h -2.839506 z m 6.780545,-1.261666 h 0.342698 l 1.542146,-2.925992 v -4.26819 h -0.367177 l -1.517667,2.899149 z M 22.2505,55.078651 20.879705,53.57539 H 19.974 v 10.254392 l 0.758834,0.832162 1.517666,-1.637481 v -0.375815 -2.120673 z"
     style="font-size:21.3333px;line-height:1.25;font-family:'DSEG14 Classic Mini';-inkscape-font-specification:'DSEG14 Classic Mini';white-space:pre;display:inline;fill:#000000;stroke-width:1.20159"
     id="path1-6"
     sodipodi:nodetypes="ccccccccccccccccccccccccc" />
  <g
     inkscape:groupmode="layer"
     id="layer1"
     inkscape:label="Decoration"
     style="display:inline">
    <g
       id="g1206"
       transform="matrix(5.8873975,-1.3221777,1.4995494,5.1910162,60.395318,-19.909491)"
       style="opacity:0.503157">
      <path
         style="fill:#2c4597;fill-opacity:1;stroke:none;stroke-width:1px;stroke-linecap:butt;stroke-linejoin:miter;stroke-opacity:1"
         d="m 7.7837679,5.8541227 -0.7320508,2.7320508 -5.1961524,2.9999995 -2.73205082,-0.73205 0.73205081,-2.7320511 5.19615241,-3 2.7320508,0.7320508"
         id="path474"
         sodipodi:nodetypes="ccccccc" />
      <circle
         style="fill:#2c4597;fill-opacity:1;stroke:none;stroke-width:1.418;stroke-linejoin:round"
         id="path1132"
         cx="8.9617033"
         cy="6.1861205"
         r="1"
         transform="rotate(60)" />
      <path
         style="fill:#2c4597;fill-opacity:1;stroke:none;stroke-width:1px;stroke-linecap:butt;stroke-linejoin:miter;stroke-opacity:1"
         d="m -0.87648612,10.854123 3.23205082,1.598076 -1.46410162,5.464102 -0.5,-0.866026 1.09807622,-4.098076 -3.2320508,-1.598076"
         id="path1134"
         sodipodi:nodetypes="cccccc" />
      <path
         style="fill:#2c4597;fill-opacity:1;stroke:none;stroke-width:1px;stroke-linecap:butt;stroke-linejoin:miter;stroke-opacity:1"
         d="m -0.87648612,10.854123 0.23205081,-3.5980765 -5.21410159,-1.0310889 0.5,0.8660254 3.8480762,0.6650635 -0.2320508,3.5980765"
         id="path1136"
         sodipodi:nodetypes="cccccc" />
      <path
         style="fill:#2c4597;fill-opacity:1;stroke:none;stroke-width:1px;stroke-linecap:butt;stroke-linejoin:miter;stroke-opacity:1"
         d="M -0.87648612,10.854123 -1.8764861,9.1220719 -4.6085369,8.3900211 l 0.5,0.8660254 1.3660254,0.3660254 1.0838622,1.7833241"
         id="path1138"
         sodipodi:nodetypes="cccccc"
         inkscape:transform-center-x="2.5645765"
         inkscape:transform-center-y="-1.5023443" />
      <path
         style="fill:#2c4597;fill-opacity:1;stroke:none;stroke-width:1px;stroke-linecap:butt;stroke-linejoin:miter;stroke-opacity:1"
         d="m -1.0544211,10.54593 0.99999998,1.732051 -0.7320508,2.732051 -0.49999998,-0.866026 0.36602538,-1.366025 -1.00247318,-1.830314"
         id="path1140"
         sodipodi:nodetypes="cccccc"
         inkscape:transform-center-x="-0.18926459"
         inkscape:transform-center-y="3.1099789" />
    </g>
    <path
       d="m 28.664328,22.836198 v 0.483191 h -2.252022 v -5.046664 -1.234822 l 1.126011,-2.147517 1.126011,2.174361 v 1.207978 z M 21.541084,1.0389042 22.299917,0.20674166 H 32.776716 L 33.53555,1.0389042 32.042361,2.7032296 h -0.04896 -3.329076 -2.252021 -3.329076 -0.04896 z m 4.871222,2.8991475 h 2.252022 v 5.0466635 1.2348228 l -1.126011,2.17436 -1.126011,-2.120672 V 8.9847152 Z M 33.53555,26.218537 32.776716,27.050699 H 22.299917 l -0.758833,-0.832162 1.493188,-1.664326 h 0.04896 3.329077 2.252021 3.329076 0.04896 z"
       style="font-size:21.3333px;line-height:1.25;font-family:'DSEG14 Classic Mini';-inkscape-font-specification:'DSEG14 Classic Mini';white-space:pre;display:none;fill:#000000;stroke-width:1.20159"
       id="path608" />
    <path
       d="m 43.008729,14.863542 -1.126011,-1.234822 1.126011,-1.234822 h 2.545764 0.636441 l 0.66092,1.261667 -0.66092,1.207977 H 43.351428 Z M 41.515541,1.0389042 42.274374,0.20674166 h 10.476798 l 0.758833,0.83216254 -1.493188,1.6643254 h -0.04896 -3.329075 -2.252023 -3.329076 -0.04896 z M 40.70775,25.332686 39.948916,24.500524 V 14.246131 h 0.905704 l 0.220307,0.26844 1.15049,1.234822 v 5.449324 2.120672 0.375816 z M 54.317796,1.9247548 55.07663,2.7569175 V 13.011309 H 54.170924 L 52.800129,11.508048 V 10.756417 6.0587244 3.9380517 3.5890802 Z M 42.225417,11.508048 40.85462,13.011309 H 39.948916 V 2.7569175 l 0.758834,-0.8321627 1.517667,1.6374815 v 0.3758154 2.1206727 z m 9.7914,0.88585 1.126011,1.234822 -1.126011,1.234822 h -0.342699 -1.884844 -0.97914 l -0.66092,-1.207977 0.685398,-1.261667 h 0.636441 z"
       style="font-size:21.3333px;line-height:1.25;font-family:'DSEG14 Classic Mini';-inkscape-font-specification:'DSEG14 Classic Mini';white-space:pre;fill:#000000;stroke-width:1.20159"
       id="path610"
       sodipodi:nodetypes="ccccccccccccccccccccccccccccccccccccccccccccccccccccccccccc" />
    <path
       d="m 72.774582,15.749393 1.370797,-1.503262 h 0.905704 V 24.500524 L 74.29225,25.332686 72.774582,23.695205 V 23.319389 21.198717 Z M 74.29225,1.9247548 75.051083,2.7569175 V 13.011309 H 74.145379 L 72.774582,11.508048 V 10.756417 6.0587244 3.9380517 3.5890802 Z M 62.199871,11.508048 60.829075,13.011309 H 59.92337 V 2.7569175 l 0.758833,-0.8321627 1.517668,1.6374815 v 0.3758154 2.1206727 z"
       style="font-size:21.3333px;line-height:1.25;font-family:'DSEG14 Classic Mini';-inkscape-font-specification:'DSEG14 Classic Mini';white-space:pre;fill:#000000;stroke-width:1.20159"
       id="path612"
       sodipodi:nodetypes="cccccccccccccccccccccccccccc" />
    <path
       d="m 62.957955,14.863244 -1.12601,-1.234822 1.12601,-1.234822 h 2.545765 0.63644 l 0.660921,1.261667 -0.660921,1.207977 H 63.300656 Z M 73.459232,26.218239 72.7004,27.050401 H 62.223601 l -0.758834,-0.832162 1.493188,-1.664326 h 0.04896 3.329076 2.252021 3.329077 0.04896 z M 71.966044,12.3936 l 1.126011,1.234822 -1.126011,1.234822 H 71.623345 69.7385 68.75936 L 68.09844,13.655267 68.783839,12.3936 h 0.636442 z"
       style="font-size:21.3333px;line-height:1.25;font-family:'DSEG14 Classic Mini';-inkscape-font-specification:'DSEG14 Classic Mini';white-space:pre;fill:#000000;stroke-width:1.20159"
       id="path614"
       sodipodi:nodetypes="cccccccccccccccccccccccccccccc" />
    <path
       d="m 1.566623,40.368653 0.758833,-0.832162 h 10.476799 l 0.758834,0.832162 -1.493189,1.664325 H 12.01894 8.689864 6.437843 3.108767 3.059807 Z M 0.758833,64.662435 0,63.830273 V 53.57588 h 0.905704 l 0.220307,0.26844 1.150489,1.234822 v 5.449324 2.120673 0.375815 z m 12.802256,0.885851 -0.758834,0.832162 H 2.325456 L 1.566623,65.548286 3.059811,63.88396 h 0.04896 3.329077 2.252021 3.329076 0.04896 z M 2.2765,50.837797 0.905704,52.341058 H 0 V 42.086666 L 0.758833,41.254504 2.2765,42.891985 v 0.375815 2.120673 z"
       style="font-size:21.3333px;line-height:1.25;font-family:'DSEG14 Classic Mini';-inkscape-font-specification:'DSEG14 Classic Mini';white-space:pre;fill:#000000;stroke-width:1.20159"
       id="path620" />
    <path
       d="M 81.56662,1.039162 82.32546,0.207 h 10.4768 l 0.75883,0.832162 -1.49319,1.664325 h -0.049 -3.32908 -2.25202 -3.32907 -0.049 z M 80.75883,25.332944 80,24.500782 V 14.246389 h 0.90571 l 0.2203,0.26844 1.15049,1.234822 v 5.449324 2.120673 0.375815 z m 12.80226,0.885851 -0.75883,0.832162 h -10.4768 l -0.75884,-0.832162 1.49319,-1.664326 h 0.049 3.32908 2.25202 3.32908 0.049 z M 82.2765,11.508306 80.90571,13.011567 H 80 V 2.757175 l 0.75883,-0.832162 1.51767,1.637481 v 0.375815 2.120673 z"
       style="font-size:21.3333px;line-height:1.25;font-family:'DSEG14 Classic Mini';-inkscape-font-specification:'DSEG14 Classic Mini';white-space:pre;display:inline;fill:#000000;stroke-width:1.20159"
       id="path620-6" />
    <path
       d="m 43.008729,54.193291 -1.126011,-1.234822 1.126011,-1.234821 h 2.545764 0.636441 l 0.66092,1.261666 -0.66092,1.207977 h -2.839506 z m -1.493188,-13.824638 0.758833,-0.832162 h 10.476798 l 0.758833,0.832162 -1.493188,1.664325 h -0.04896 -3.329075 -2.252023 -3.329076 -0.04896 z M 40.70775,64.662435 39.948916,63.830273 V 53.57588 h 0.905704 l 0.220307,0.26844 1.15049,1.234822 v 5.449324 2.120673 0.375815 z m 12.092379,-9.583293 1.370795,-1.503262 h 0.905706 v 10.254393 l -0.758834,0.832162 -1.517667,-1.637481 v -0.375815 -2.120673 z m 1.517667,-13.824638 0.758834,0.832162 V 52.341058 H 54.170924 L 52.800129,50.837797 V 50.086165 45.388473 43.2678 42.918829 Z M 42.225417,50.837797 40.85462,52.341058 H 39.948916 V 42.086666 l 0.758834,-0.832162 1.517667,1.637481 v 0.375815 2.120673 z m 9.7914,0.885851 1.126011,1.234821 -1.126011,1.234822 h -0.342699 -1.884844 -0.97914 l -0.66092,-1.207977 0.685398,-1.261666 h 0.636441 z"
       style="font-size:21.3333px;line-height:1.25;font-family:'DSEG14 Classic Mini';-inkscape-font-specification:'DSEG14 Classic Mini';white-space:pre;fill:#000000;stroke-width:1.20159"
       id="path622" />
    <path
       d="m 62.982813,54.2118 -1.126011,-1.234822 1.126011,-1.234821 h 2.545764 0.636441 l 0.66092,1.261666 -0.66092,1.207977 H 63.325512 Z M 60.681834,64.680944 59.923,63.848782 V 53.594389 h 0.905704 l 0.220307,0.26844 1.15049,1.234822 v 5.449324 2.120673 0.375815 z m 12.092379,-9.583293 1.370795,-1.503262 h 0.905706 v 10.254393 l -0.758834,0.832162 -1.517667,-1.637481 v -0.375815 -2.120673 z m 1.517667,-13.824638 0.758834,0.832162 v 10.254392 h -0.905706 l -1.370795,-1.503261 v -0.751632 -4.697692 -2.120673 -0.348971 z m -12.092379,9.583293 -1.370797,1.503261 H 59.923 V 42.105175 l 0.758834,-0.832162 1.517667,1.637481 v 0.375815 2.120673 z m 9.7914,0.885851 1.126011,1.234821 -1.126011,1.234822 h -0.342699 -1.884844 -0.97914 l -0.66092,-1.207977 0.685398,-1.261666 h 0.636441 z"
       style="font-size:21.3333px;line-height:1.25;font-family:'DSEG14 Classic Mini';-inkscape-font-specification:'DSEG14 Classic Mini';white-space:pre;display:inline;fill:#000000;stroke-width:1.20159"
       id="path622-6"
       sodipodi:nodetypes="ccccccccccccccccccccccccccccccccccccccccccccccccccccccccc" />
    <path
       d="M 65.210725,50.461982 H 64.868027 L 63.325881,47.53599 V 43.2678 h 0.367178 l 1.517666,2.899149 z m 4.553002,4.992975 h 0.342698 l 1.542146,2.925992 v 4.26819 H 71.281394 L 69.763727,59.74999 Z M 60.682203,64.662435 59.92337,63.830273 V 53.57588 h 0.905705 l 0.220306,0.26844 1.15049,1.234822 v 5.449324 2.120673 0.375815 z m 12.092379,-9.583293 1.370797,-1.503262 h 0.905704 v 10.254393 l -0.758833,0.832162 -1.517668,-1.637481 v -0.375815 -2.120673 z m 1.517668,-13.824638 0.758833,0.832162 V 52.341058 H 74.145379 L 72.774582,50.837797 V 50.086165 45.388473 43.2678 42.918829 Z m -12.092379,9.583293 -1.370796,1.503261 H 59.92337 V 42.086666 l 0.758833,-0.832162 1.517668,1.637481 v 0.375815 2.120673 z"
       style="font-size:21.3333px;line-height:1.25;font-family:'DSEG14 Classic Mini';-inkscape-font-specification:'DSEG14 Classic Mini';white-space:pre;fill:#000000;stroke-width:1.20159"
       id="path624" />
    <path
       d="m 82.95764,54.193291 -1.12601,-1.234822 1.12601,-1.234821 h 2.545765 0.63644 l 0.660921,1.261666 -0.660921,1.207977 H 83.30034 Z m -1.493188,-13.824638 0.758833,-0.832162 h 10.476799 l 0.758833,0.832162 -1.493188,1.664325 h -0.04896 -3.329076 -2.252022 -3.329076 -0.04896 z m 11.994465,25.179633 -0.758833,0.832162 H 82.223285 L 81.464452,65.548286 82.95764,63.88396 h 0.04896 3.329076 2.252021 3.329077 0.04896 z M 92.74904,55.079142 94.119836,53.57588 h 0.905705 v 10.254393 l -0.758833,0.832162 -1.517668,-1.637481 v -0.375815 -2.120673 z m 1.517668,-13.824638 0.758833,0.832162 V 52.341058 H 94.119836 L 92.74904,50.837797 V 50.086165 45.388473 43.2678 42.918829 Z m -12.092379,9.583293 -1.370797,1.503261 H 79.897828 V 42.086666 l 0.758833,-0.832162 1.517668,1.637481 v 0.375815 2.120673 z m 9.7914,0.885851 1.126011,1.234821 -1.126011,1.234822 h -0.342699 -1.884846 -0.97914 l -0.660919,-1.207977 0.685399,-1.261666 h 0.636441 z"
       style="font-size:21.3333px;line-height:1.25;font-family:'DSEG14 Classic Mini';-inkscape-font-specification:'DSEG14 Classic Mini';white-space:pre;fill:#000000;stroke-width:1.20159"
       id="path626" />
    <path
       d="m 102.9321,54.193291 -1.12601,-1.234822 1.12601,-1.234821 h 2.54576 0.63644 l 0.66092,1.261666 -0.66092,1.207977 h -2.8395 z m -1.49319,-13.824638 0.75883,-0.832162 h 10.47681 l 0.75883,0.832162 -1.49319,1.664325 h -0.049 -3.32907 -2.25202 -3.32908 -0.049 z m 11.99447,25.179633 -0.75883,0.832162 h -10.47681 l -0.75883,-0.832162 1.49319,-1.664326 h 0.049 3.32908 2.25202 3.32907 0.049 z M 112.7235,55.079142 114.0943,53.57588 H 115 v 10.254393 l -0.75883,0.832162 -1.51767,-1.637481 V 62.649139 60.528466 Z M 114.24117,41.254504 115,42.086666 v 10.254392 h -0.9057 l -1.3708,-1.503261 V 50.086165 45.388473 43.2678 42.918829 Z m -12.09238,9.583293 -1.3708,1.503261 H 99.872286 V 42.086666 l 0.758834,-0.832162 1.51767,1.637481 v 0.375815 2.120673 z m 9.7914,0.885851 1.12601,1.234821 -1.12601,1.234822 h -0.3427 -1.88484 -0.97915 l -0.66092,-1.207977 0.6854,-1.261666 h 0.63644 z"
       style="font-size:21.3333px;line-height:1.25;font-family:'DSEG14 Classic Mini';-inkscape-font-specification:'DSEG14 Classic Mini';white-space:pre;fill:#000000;stroke-width:1.20159"
       id="path628" />
  </g>
  <g
     id="g1">
    <path
       d="M 3.059812,14.8638 1.933801,13.628978 3.059812,12.394157 H 5.605576 6.242017 L 6.902936,13.655823 6.242017,14.8638 H 3.402511 Z M 1.566624,1.039162 2.325457,0.207 H 12.802255 L 13.561089,1.039162 12.0679,2.703487 H 12.01894 8.689864 6.437841 3.108766 3.059806 Z m 11.994465,25.179633 -0.758834,0.832162 H 2.325457 L 1.566624,26.218795 3.059812,24.554469 h 0.04896 3.329075 2.252023 3.329076 0.04896 z M 2.2765,11.508306 0.905704,13.011567 H 0 V 2.757175 L 0.758833,1.925013 2.2765,3.562494 v 0.375815 2.120673 z"
       style="font-size:21.3333px;line-height:1.25;font-family:'DSEG14 Classic Mini';-inkscape-font-specification:'DSEG14 Classic Mini';white-space:pre;display:inline;fill:#000000;stroke-width:1.20159"
       id="path1-1"
       sodipodi:nodetypes="cccccccccccccccccccccccccccccccccccccccc" />
    <path
       d="M 3.059813,14.8638 1.933802,13.628978 3.059813,12.394157 h 2.545764 0.636441 l 0.66092,1.261666 -0.66092,1.207977 H 3.402512 Z M 1.566625,1.039162 2.325458,0.207 h 10.476798 l 0.758833,0.832162 -1.493188,1.664325 H 12.018941 8.689866 6.437843 3.108767 3.059807 Z M 0.758834,25.332944 0,24.500782 V 14.246389 h 0.90570398 l 0.22030702,0.26844 1.15049,1.234822 v 5.449324 2.120673 0.375815 z m 12.091916,-9.583293 1.370795,-1.503262 h 0.905706 V 24.500782 L 14.368417,25.332944 12.85075,23.695463 V 23.319648 21.198975 Z M 2.276501,11.508016 0.90570398,13.011277 H 0 V 2.756885 L 0.758834,1.924723 2.276501,3.562204 v 0.375815 2.120673 z m 9.7914,0.886141 1.126011,1.234821 -1.126011,1.234822 H 11.725202 9.840358 8.861218 l -0.66092,-1.207977 0.685398,-1.261666 h 0.636441 z"
       style="font-size:21.3333px;line-height:1.25;font-family:'DSEG14 Classic Mini';-inkscape-font-specification:'DSEG14 Classic Mini';white-space:pre;display:inline;fill:#000000;stroke-width:1.20159"
       id="path622-5"
       sodipodi:nodetypes="cccccccccccccccccccccccccccccccccccccccccccccccccccccccccc" />
    <path
       d="M 29.843285,11.132478 V 6.837444 l 1.517667,-2.899147 h 0.367178 v 4.268189 l -1.542146,2.925992 z M 34.371808,1.925 35.130641,2.757162 v 10.254393 h -0.905704 l -0.220306,-0.26844 -1.15049,-1.234822 V 6.058969 3.938297 3.562481 Z M 23.772617,23.319634 H 23.40544 v -4.268189 l 1.542146,-2.925991 h 0.342699 v 4.295033 z m 9.081524,-7.569996 1.370796,-1.503261 h 0.905704 V 24.500768 L 34.371808,25.332931 32.854141,23.69545 V 23.319634 21.198961 Z M 14.368417,1.9247222 15.12725,2.7568842 V 13.011278 H 14.221546 L 14.00124,12.742838 12.85075,11.508016 V 6.0586912 3.9380193 3.5622032 Z"
       style="font-size:21.3333px;line-height:1.25;font-family:'DSEG14 Classic Mini';-inkscape-font-specification:'DSEG14 Classic Mini';white-space:pre;display:inline;fill:#000000;stroke-width:1.20159"
       id="path606-5"
       sodipodi:nodetypes="ccccccccccccccccccccccccccccccccccccccccccc" />
    <path
       d="m 25.287356,16.125453 v 4.295034 l -1.517667,2.899147 h -0.367178 v -4.268189 l 1.542146,-2.925992 z M 20.758833,25.332931 20,24.500769 V 14.246376 h 0.905704 l 0.220306,0.26844 1.15049,1.234822 v 5.449324 2.120672 0.375816 z M 31.358024,3.9382969 h 0.367177 V 8.2064865 L 30.183055,11.132477 H 29.840356 V 6.8374444 Z M 22.2765,11.508293 20.905704,13.011554 H 20 V 2.7571627 L 20.758833,1.925 22.2765,3.5624815 v 0.3758154 2.1206727 z"
       style="font-size:21.3333px;line-height:1.25;font-family:'DSEG14 Classic Mini';-inkscape-font-specification:'DSEG14 Classic Mini';white-space:pre;display:inline;fill:#000000;stroke-width:1.20159"
       id="path606" />
  </g>
  <g
     inkscape:groupmode="layer"
     id="layer2"
     inkscape:label="Text" />
</svg>
