<?xml version="1.0" encoding="UTF-8" standalone="no"?>
<svg
   width="256"
   height="64"
   viewBox="0 0 256 64"
   fill="none"
   version="1.1"
   id="svg4"
   sodipodi:docname="paper_heading_cargo_invoice.svg"
   inkscape:version="1.3.2 (091e20ef0f, 2023-11-25, custom)"
   inkscape:export-filename="paper_heading_cargo_invoice.svg.96dpi.png"
   inkscape:export-xdpi="96"
   inkscape:export-ydpi="96"
   xml:space="preserve"
   xmlns:inkscape="http://www.inkscape.org/namespaces/inkscape"
   xmlns:sodipodi="http://sodipodi.sourceforge.net/DTD/sodipodi-0.dtd"
   xmlns="http://www.w3.org/2000/svg"
   xmlns:svg="http://www.w3.org/2000/svg"
   xmlns:rdf="http://www.w3.org/1999/02/22-rdf-syntax-ns#"
   xmlns:cc="http://creativecommons.org/ns#"
   xmlns:dc="http://purl.org/dc/elements/1.1/"><metadata
     id="metadata10"><rdf:RDF><cc:Work
         rdf:about=""><dc:format>image/svg+xml</dc:format><dc:type
           rdf:resource="http://purl.org/dc/dcmitype/StillImage" /></cc:Work></rdf:RDF></metadata><defs
     id="defs8"><rect
       x="7.373055"
       y="14.345875"
       width="83.02699"
       height="30.225146"
       id="rect8" /><rect
       x="5.6275416"
       y="14.776046"
       width="83.943453"
       height="31.919539"
       id="rect7" /><rect
       x="103.68167"
       y="0.089865061"
       width="152.09662"
       height="64.060426"
       id="rect4" /><rect
       x="98.880199"
       y="0.41303194"
       width="156.98905"
       height="63.470382"
       id="rect3" /><rect
       x="108.17342"
       y="11.654646"
       width="126.81237"
       height="39.820726"
       id="rect1" /><inkscape:path-effect
       effect="powermask"
       id="path-effect537"
       is_visible="true"
       lpeversion="1"
       uri="#mask-powermask-path-effect537"
       invert="false"
       hide_mask="false"
       background="true"
       background_color="#ffffffff" /><rect
       x="-696.29968"
       y="-43.388832"
       width="637.4054"
       height="131.45215"
       id="rect3263" /><inkscape:path-effect
       effect="powermask"
       id="path-effect1533"
       is_visible="true"
       lpeversion="1"
       uri="#mask-powermask-path-effect1533"
       invert="false"
       hide_mask="false"
       background="true"
       background_color="#ffffffff" /><rect
       x="-111.73019"
       y="-119.49218"
       width="354.099"
       height="119.49218"
       id="rect452" /><rect
       x="12.500253"
       y="14.598581"
       width="334.51892"
       height="47.488827"
       id="rect348" /><mask
       maskUnits="userSpaceOnUse"
       id="mask-powermask-path-effect537"><path
         id="mask-powermask-path-effect537_box"
         style="fill:#ffffff;fill-opacity:1"
         d="m -156.82688,-214.98718 h 376.0737 V 28.676595 h -376.0737 z" /><g
         id="g535"
         transform="matrix(1.0402092,0,0,1.0402092,-2.8656518,12.311957)"
         style="fill:#552200"><g
           aria-label="Cargo"
           transform="matrix(2.6010044,0,0,2.6010044,161.5879,145.13955)"
           id="g487"
           style="font-size:40px;line-height:1.25;white-space:pre;shape-inside:url(#rect452);fill:#552200"><path
             d="m -84.210469,-90.85718 c -1.24,1.56 -1.96,2.36 -2.96,3.12 -2,1.56 -4.64,2.44 -7.32,2.44 -6.880001,0 -12.480001,-5.64 -12.480001,-12.6 0,-7.12 5.36,-12.56 12.440001,-12.56 2.56,0 4.96,0.68 6.92,2 1.32,0.84 2.12,1.72 3.24,3.48 h 3.32 c -2.28,-5.08 -7.48,-8.2 -13.6,-8.2 -8.800001,0 -15.320001,6.56 -15.320001,15.4 0,8.68 6.68,15.2 15.520001,15.2 6,0 10.56,-2.8 13.52,-8.28 z"
             style="font-family:'URW Gothic';-inkscape-font-specification:'URW Gothic';fill:#552200"
             id="path477" /><path
             d="m -54.570468,-104.97718 h -2.96 v 3.88 c -2.2,-3.04 -4.84,-4.4 -8.64,-4.4 -6.56,0 -11.52,4.96 -11.52,11.52 0,6.56 5,11.4 11.76,11.4 3.72,0 6.04,-1.2 8.4,-4.36 v 3.84 h 2.96 z m -11.52,2.2 c 4.84,0 8.56,3.76 8.56,8.64 0,5 -3.68,8.84 -8.4,8.84 -4.96,0 -8.76,-3.88 -8.76,-8.88 0,-4.76 3.84,-8.6 8.6,-8.6 z"
             style="font-family:'URW Gothic';-inkscape-font-specification:'URW Gothic';fill:#552200"
             id="path479" /><path
             d="m -49.530446,-83.09718 h 2.96 v -12.76 c -0.04,-3.96 2.16,-6.4 6.2,-6.72 v -2.92 c -3.16,0.16 -5.04,1.24 -6.2,3.64 v -3.12 h -2.96 z"
             style="font-family:'URW Gothic';-inkscape-font-specification:'URW Gothic';fill:#552200"
             id="path481" /><path
             d="m -16.490396,-104.97718 h -2.96 v 3.88 c -2.2,-3.04 -4.88,-4.4 -8.6,-4.4 -6.4,0 -11.16,4.96 -11.16,11.56 0,6.4 4.96,11.36 11.4,11.36 3.96,0 6.64,-1.6 8.36,-4.96 v 1.48 c 0,2.16 -0.24,3.52 -0.88,4.88 -1.16,2.52 -3.76,3.96 -7.16,3.96 -2.44,0 -4.32,-0.72 -5.88,-2.2 -0.76,-0.68 -1.24,-1.36 -2.16,-3 h -2.88 c 1.6,5.12 5.48,7.92 11,7.92 3.8,0 7,-1.44 8.88,-3.92 1.48,-2 2.04,-4.32 2.04,-8.6 z m -11.36,2.2 c 4.72,0 8.4,3.72 8.4,8.48 0,5.12 -3.6,9 -8.36,9 -4.8,0 -8.4,-3.8 -8.4,-8.88 0,-5 3.52,-8.6 8.36,-8.6 z"
             style="font-family:'URW Gothic';-inkscape-font-specification:'URW Gothic';fill:#552200"
             id="path483" /><path
             d="m -0.53038391,-105.49718 c -6.51999999,0 -11.48000009,4.92 -11.48000009,11.32 0,6.76 4.9200001,11.6 11.72000009,11.6 6.40000001,0 11.11999991,-4.84 11.11999991,-11.4 0,-6.68 -4.7599999,-11.52 -11.35999991,-11.52 z m 0,2.72 c 4.84000001,0 8.36000001,3.72 8.36000001,8.84 0,5.04 -3.44,8.64 -8.20000001,8.64 -5.03999999,0 -8.63999999,-3.64 -8.63999999,-8.8 0,-4.96 3.64,-8.68 8.47999999,-8.68 z"
             style="font-family:'URW Gothic';-inkscape-font-specification:'URW Gothic';fill:#552200"
             id="path485" /></g><g
           aria-label="Your crates, our business"
           id="g533"
           style="font-size:32.6668px;line-height:1.25;fill:#552200;stroke-width:0.816671"><path
             d="m -118.78331,-35.723892 6.63544,-11.627977 h 3.36558 l -9.04399,14.738342 -1.46745,8.485712 h -2.85516 l 1.54721,-8.836625 -3.84409,-14.387429 h 3.09441 z"
             style="font-style:italic;font-family:'Roboto Condensed';-inkscape-font-specification:'Roboto Condensed, ';fill:#552200"
             id="path489" /><path
             d="m -110.10619,-33.522711 q 0.52637,-3.716486 2.53614,-5.98147 2.02572,-2.280934 5.10419,-2.201181 1.91407,0.04785 3.190115,1.116541 1.276047,1.052739 1.818366,2.918958 0.558271,1.866218 0.303062,4.115251 l -0.191407,1.62696 q -0.52637,3.700536 -2.552094,5.949569 -2.025722,2.249032 -5.088242,2.169279 -1.91407,-0.04785 -3.19011,-1.10059 -1.27605,-1.052739 -1.83432,-2.918957 -0.54232,-1.866219 -0.28711,-4.099301 z m 2.47234,2.759452 q -0.0479,2.137378 0.65397,3.317722 0.71778,1.180343 2.15333,1.244145 1.85027,0.07975 3.06251,-1.307948 1.21225,-1.403651 1.62696,-4.195004 l 0.239262,-1.866219 0.07975,-1.148442 q 0.04785,-2.153329 -0.685872,-3.333672 -0.71778,-1.180344 -2.13738,-1.244146 -1.88217,-0.07975 -3.14226,1.563157 -1.24415,1.62696 -1.61101,4.529967 l -0.19141,1.579108 z"
             style="font-style:italic;font-family:'Roboto Condensed';-inkscape-font-specification:'Roboto Condensed, ';fill:#552200"
             id="path491" /><path
             d="m -86.228166,-25.643121 q -1.674811,1.91407 -4.131202,1.850268 -1.834317,-0.0319 -2.823253,-1.339849 -0.972986,-1.307948 -0.972986,-3.652685 l 0.07975,-1.451503 1.866218,-11.14946 h 2.727551 l -1.850268,11.197312 -0.0638,1.164393 q -0.0638,1.164392 0.366864,1.930021 0.446616,0.749677 1.323898,0.781578 2.312836,0.111654 3.79624,-2.280934 l 2.201181,-12.79237 h 2.759452 l -2.98276,17.258535 h -2.599946 z"
             style="font-style:italic;font-family:'Roboto Condensed';-inkscape-font-specification:'Roboto Condensed, ';fill:#552200"
             id="path493" /><path
             d="m -70.134024,-38.754503 q -0.685875,-0.143555 -1.228195,-0.143555 -2.089527,0 -3.445327,2.408538 l -2.137378,12.361705 h -2.759452 l 2.99871,-17.258535 2.663748,-0.01595 -0.382814,1.770516 q 1.515306,-2.15333 3.413426,-2.105478 0.382814,0.01595 1.180343,0.239259 z"
             style="font-style:italic;font-family:'Roboto Condensed';-inkscape-font-specification:'Roboto Condensed, ';fill:#552200"
             id="path495" /><path
             d="m -56.257015,-26.185441 q 1.3558,0.04785 2.280934,-0.845381 0.925134,-0.893233 1.291998,-2.520193 l 2.599945,-0.01595 q -0.366863,2.552094 -2.153329,4.195004 -1.786466,1.64291 -4.179054,1.579108 -2.280933,-0.04785 -3.636733,-1.37175 -1.3558,-1.323899 -1.62696,-3.716487 -0.159506,-1.435553 0.01595,-2.887056 l 0.223309,-1.738614 q 0.526369,-4.035499 2.45639,-6.156927 1.945972,-2.121428 5.056336,-2.041675 2.392588,0.0638 3.700536,1.754565 1.323899,1.690762 1.212245,4.514016 l -2.599946,-0.01595 q 0.0957,-3.748388 -2.472341,-3.844091 -3.748388,-0.143555 -4.529967,5.343446 -0.494468,3.397475 -0.398764,4.625671 0.159506,3.094413 2.759451,3.142265 z"
             style="font-style:italic;font-family:'Roboto Condensed';-inkscape-font-specification:'Roboto Condensed, ';fill:#552200"
             id="path497" /><path
             d="m -38.121195,-38.754503 q -0.685875,-0.143555 -1.228195,-0.143555 -2.089527,0 -3.445327,2.408538 l -2.137379,12.361705 h -2.759451 l 2.99871,-17.258535 2.663748,-0.01595 -0.382814,1.770516 q 1.515306,-2.15333 3.413426,-2.105478 0.382814,0.01595 1.180343,0.239259 z"
             style="font-style:italic;font-family:'Roboto Condensed';-inkscape-font-specification:'Roboto Condensed, ';fill:#552200"
             id="path499" /><path
             d="m -29.68334,-24.127815 q -0.0957,-0.478518 -0.07975,-0.941085 l 0.0638,-0.941084 q -1.834318,2.217131 -3.955746,2.217131 -2.073576,0 -3.237969,-1.339849 -1.148442,-1.3558 -1.020837,-3.572932 0.175456,-2.679698 2.201181,-4.290707 2.041675,-1.61101 5.343446,-1.61101 h 1.914071 l 0.27116,-1.834317 q 0.28711,-2.855155 -2.15333,-2.855155 -1.260096,0 -2.105477,0.749677 -0.829431,0.733727 -1.052739,1.930021 l -2.72755,0.01595 q 0.207358,-2.18523 1.977873,-3.668635 1.786465,-1.483404 4.195004,-1.451503 2.328786,0.0319 3.572931,1.435552 1.260097,1.387702 1.020838,3.891944 l -1.403652,8.501662 q -0.143555,0.909184 -0.111654,1.738614 l 0.0957,1.754565 -0.0319,0.27116 z m -3.397474,-2.217132 q 2.073576,0 3.572931,-2.025724 l 0.717776,-4.131202 -1.260096,-0.01595 q -1.62696,0 -2.887056,0.606122 -1.260097,0.590172 -1.786466,1.658861 -0.510419,1.052739 -0.350913,2.296885 0.207358,1.611009 1.993824,1.611009 z"
             style="font-style:italic;font-family:'Roboto Condensed';-inkscape-font-specification:'Roboto Condensed, ';fill:#552200"
             id="path501" /><path
             d="m -15.854178,-45.565404 -0.733727,4.179054 h 2.536143 l -0.398764,2.280934 h -2.520193 l -1.818367,10.734745 -0.0319,0.638023 q -0.0638,1.3558 0.972986,1.3558 0.382814,0.01595 1.148442,-0.159506 l -0.239259,2.408539 q -0.893233,0.319011 -1.802416,0.28711 -1.451504,0 -2.185231,-1.196294 -0.733727,-1.196294 -0.54232,-3.381524 l 1.754565,-10.686893 h -2.568045 l 0.414716,-2.280934 h 2.536143 l 0.733727,-4.179054 z"
             style="font-style:italic;font-family:'Roboto Condensed';-inkscape-font-specification:'Roboto Condensed, ';fill:#552200"
             id="path503" /><path
             d="m -7.2249119,-23.808804 q -2.9030071,-0.0319 -4.3385591,-2.089526 -1.435553,-2.057626 -1.052739,-5.614607 l 0.207357,-1.706713 q 0.494469,-4.019547 2.4404402,-6.284531 1.9619222,-2.280934 4.9765831,-2.201181 2.4563903,0.0638 3.6845855,1.690762 1.24414572,1.61101 1.18034338,4.545918 l -0.14355528,1.91407 -0.2392588,1.64291 -9.2513403,-0.01595 q -0.2073576,1.435553 -0.191407,2.249033 0.031901,1.611009 0.7975293,2.536143 0.7656282,0.909183 2.1852304,0.925134 1.0208376,0.0319 2.0097739,-0.398765 1.004887,-0.446616 2.1054775,-1.547207 l 1.2919975,1.802417 q -1.0208376,1.339849 -2.5201927,1.961922 -1.4993552,0.622073 -3.1422656,0.590171 z m 2.0576257,-15.488019 q -2.8232538,-0.127605 -3.9557455,3.413425 l -0.4306658,1.547207 6.6194934,0.01595 0.079753,-0.414715 q 0.095703,-0.733727 0.095703,-1.531257 -0.063802,-2.903006 -2.4085386,-3.030611 z"
             style="font-style:italic;font-family:'Roboto Condensed';-inkscape-font-specification:'Roboto Condensed, ';fill:#552200"
             id="path505" /><path
             d="m 10.320735,-28.673732 q 0.207358,-1.515306 -1.690762,-2.520193 l -2.1373786,-1.116541 q -1.6588611,-0.925134 -2.3287857,-1.961922 -0.6539741,-1.036788 -0.5742211,-2.408539 0.1276047,-2.18523 1.7864657,-3.620783 1.658861,-1.435553 4.051449,-1.403652 2.3128347,0.0638 3.6207827,1.531257 1.307949,1.451503 1.212245,3.716486 h -2.72755 q 0.0319,-1.291997 -0.574221,-2.025724 -0.606123,-0.749678 -1.6907626,-0.781579 -1.2281951,0 -2.0257245,0.701826 -0.7975293,0.685875 -0.9570352,1.786466 -0.191407,1.291997 1.2600964,2.121428 l 2.6956489,1.37175 q 2.98276,1.658861 2.823254,4.402362 -0.159506,2.344736 -1.882169,3.748388 -1.7226635,1.387701 -4.1950045,1.323898 -2.3766374,-0.0319 -3.8600419,-1.547206 -1.4834046,-1.531257 -1.3877011,-3.939795 l 2.7754021,0.01595 q -0.031901,1.499355 0.6539741,2.280934 0.6858752,0.765628 1.9459715,0.765628 1.3238987,0 2.1852304,-0.669924 0.8772824,-0.669925 1.0208374,-1.770515 z"
             style="font-style:italic;font-family:'Roboto Condensed';-inkscape-font-specification:'Roboto Condensed, ';fill:#552200"
             id="path507" /><path
             d="m 15.408973,-19.486195 -1.658861,-1.196294 q 1.850268,-2.280933 2.296885,-4.529966 l 0.414715,-2.408539 h 2.823254 l -0.334963,2.153329 q -0.574221,3.636734 -3.54103,5.98147 z"
             style="font-style:italic;font-family:'Roboto Condensed';-inkscape-font-specification:'Roboto Condensed, ';fill:#552200"
             id="path509" /><path
             d="m 30.84914,-33.522711 q 0.526369,-3.716486 2.536143,-5.98147 2.025725,-2.280934 5.104188,-2.201181 1.91407,0.04785 3.190117,1.116541 1.276047,1.052739 1.818367,2.918958 0.558271,1.866218 0.303061,4.115251 l -0.191407,1.62696 q -0.526369,3.700536 -2.552094,5.949569 -2.025724,2.249032 -5.088237,2.169279 -1.91407,-0.04785 -3.190117,-1.10059 -1.276047,-1.052739 -1.834317,-2.918957 -0.54232,-1.866219 -0.287111,-4.099301 z m 2.472341,2.759452 q -0.04785,2.137378 0.653974,3.317722 0.717776,1.180343 2.153329,1.244145 1.850268,0.07975 3.062513,-1.307948 1.212244,-1.403651 1.62696,-4.195004 l 0.239258,-1.866219 0.07975,-1.148442 q 0.04785,-2.153329 -0.685875,-3.333672 -0.717776,-1.180344 -2.137378,-1.244146 -1.88217,-0.07975 -3.142266,1.563157 -1.244146,1.62696 -1.611009,4.529967 l -0.191407,1.579108 z"
             style="font-style:italic;font-family:'Roboto Condensed';-inkscape-font-specification:'Roboto Condensed, ';fill:#552200"
             id="path511" /><path
             d="m 54.727168,-25.643121 q -1.674812,1.91407 -4.131202,1.850268 -1.834317,-0.0319 -2.823254,-1.339849 -0.972986,-1.307948 -0.972986,-3.652685 l 0.07975,-1.451503 1.866219,-11.14946 h 2.72755 l -1.850268,11.197312 -0.0638,1.164393 q -0.0638,1.164392 0.366863,1.930021 0.446617,0.749677 1.323899,0.781578 2.312835,0.111654 3.79624,-2.280934 l 2.201181,-12.79237 h 2.759451 l -2.982759,17.258535 h -2.599946 z"
             style="font-style:italic;font-family:'Roboto Condensed';-inkscape-font-specification:'Roboto Condensed, ';fill:#552200"
             id="path513" /><path
             d="m 70.821302,-38.754503 q -0.685875,-0.143555 -1.228195,-0.143555 -2.089527,0 -3.445327,2.408538 l -2.137378,12.361705 H 61.25095 l 2.99871,-17.258535 2.663748,-0.01595 -0.382814,1.770516 q 1.515306,-2.15333 3.413426,-2.105478 0.382814,0.01595 1.180343,0.239259 z"
             style="font-style:italic;font-family:'Roboto Condensed';-inkscape-font-specification:'Roboto Condensed, ';fill:#552200"
             id="path515" /><path
             d="m 85.352297,-23.808804 q -2.647797,-0.0957 -3.748388,-2.376637 l -0.590172,2.057626 h -2.536143 l 4.258807,-24.500101 h 2.743501 l -1.738614,9.139686 q 1.706712,-2.280934 4.115251,-2.217132 2.249033,0.0319 3.381524,1.658861 1.148443,1.61101 1.08464,4.705423 -0.0638,1.706713 -0.382814,3.812191 -0.319012,2.105477 -0.941084,3.604832 -1.738614,4.226906 -5.646508,4.115251 z m 4.258807,-12.186248 q -0.07975,-1.674811 -0.733727,-2.440439 -0.653975,-0.765629 -1.89812,-0.79753 -2.025725,-0.04785 -3.556981,2.376638 l -1.403652,8.246453 q 0.749678,2.249033 2.775402,2.328786 1.866219,0.07975 2.998711,-1.307949 1.132491,-1.403651 1.483404,-4.418312 0.366864,-3.030612 0.334963,-3.987647 z"
             style="font-style:italic;font-family:'Roboto Condensed';-inkscape-font-specification:'Roboto Condensed, ';fill:#552200"
             id="path517" /><path
             d="m 103.201,-25.643121 q -1.67481,1.91407 -4.131203,1.850268 -1.834317,-0.0319 -2.823254,-1.339849 -0.972985,-1.307948 -0.972985,-3.652685 l 0.07975,-1.451503 1.866218,-11.14946 h 2.727551 l -1.850268,11.197312 -0.0638,1.164393 q -0.0638,1.164392 0.366864,1.930021 0.446616,0.749677 1.323898,0.781578 2.312839,0.111654 3.796239,-2.280934 l 2.20118,-12.79237 h 2.75945 l -2.98276,17.258535 h -2.59994 z"
             style="font-style:italic;font-family:'Roboto Condensed';-inkscape-font-specification:'Roboto Condensed, ';fill:#552200"
             id="path519" /><path
             d="m 118.72091,-28.673732 q 0.20736,-1.515306 -1.69076,-2.520193 l -2.13738,-1.116541 q -1.65886,-0.925134 -2.32878,-1.961922 -0.65398,-1.036788 -0.57423,-2.408539 0.12761,-2.18523 1.78647,-3.620783 1.65886,-1.435553 4.05145,-1.403652 2.31283,0.0638 3.62078,1.531257 1.30795,1.451503 1.21225,3.716486 h -2.72755 q 0.0319,-1.291997 -0.57422,-2.025724 -0.60613,-0.749678 -1.69077,-0.781579 -1.22819,0 -2.02572,0.701826 -0.79753,0.685875 -0.95704,1.786466 -0.1914,1.291997 1.2601,2.121428 l 2.69565,1.37175 q 2.98276,1.658861 2.82325,4.402362 -0.1595,2.344736 -1.88217,3.748388 -1.72266,1.387701 -4.195,1.323898 -2.37664,-0.0319 -3.86004,-1.547206 -1.48341,-1.531257 -1.3877,-3.939795 l 2.7754,0.01595 q -0.0319,1.499355 0.65397,2.280934 0.68588,0.765628 1.94597,0.765628 1.3239,0 2.18523,-0.669924 0.87729,-0.669925 1.02084,-1.770515 z"
             style="font-style:italic;font-family:'Roboto Condensed';-inkscape-font-specification:'Roboto Condensed, ';fill:#552200"
             id="path521" /><path
             d="m 127.30233,-24.127815 h -2.75945 l 2.99871,-17.258535 h 2.75945 z m 0.87728,-21.820403 q 0.0319,-0.685875 0.44662,-1.196294 0.41471,-0.510419 1.13249,-0.54232 0.68587,-0.0319 1.13249,0.462567 0.44662,0.494468 0.41472,1.228195 -0.0319,0.701826 -0.46257,1.212245 -0.41472,0.494468 -1.13249,0.510419 -0.70183,0.0319 -1.13249,-0.462567 -0.43067,-0.494468 -0.39877,-1.212245 z"
             style="font-style:italic;font-family:'Roboto Condensed';-inkscape-font-specification:'Roboto Condensed, ';fill:#552200"
             id="path523" /><path
             d="m 137.3193,-41.402301 -0.36687,1.88217 q 1.88217,-2.217132 4.27476,-2.185231 1.64291,0.01595 2.59995,1.116541 0.97298,1.100591 1.10059,2.998711 0.0638,1.10059 -0.0479,2.153329 l -1.88216,11.308966 h -2.74351 l 1.89812,-11.356818 0.0638,-1.260096 q 0,-2.44044 -2.00978,-2.488292 -1.64291,-0.04785 -3.06251,1.866219 l -0.47852,0.685875 -2.16928,12.553112 h -2.75945 l 2.99871,-17.258535 z"
             style="font-style:italic;font-family:'Roboto Condensed';-inkscape-font-specification:'Roboto Condensed, ';fill:#552200"
             id="path525" /><path
             d="m 153.66867,-23.808804 q -2.90301,-0.0319 -4.33856,-2.089526 -1.43556,-2.057626 -1.05274,-5.614607 l 0.20736,-1.706713 q 0.49446,-4.019547 2.44043,-6.284531 1.96193,-2.280934 4.97659,-2.201181 2.45639,0.0638 3.68458,1.690762 1.24415,1.61101 1.18035,4.545918 l -0.14356,1.91407 -0.23926,1.64291 -9.25134,-0.01595 q -0.20736,1.435553 -0.1914,2.249033 0.0319,1.611009 0.79752,2.536143 0.76563,0.909183 2.18524,0.925134 1.02083,0.0319 2.00977,-0.398765 1.00489,-0.446616 2.10548,-1.547207 l 1.29199,1.802417 q -1.02083,1.339849 -2.52019,1.961922 -1.49935,0.622073 -3.14226,0.590171 z m 2.05762,-15.488019 q -2.82325,-0.127605 -3.95574,3.413425 l -0.43067,1.547207 6.61949,0.01595 0.0798,-0.414715 q 0.0957,-0.733727 0.0957,-1.531257 -0.0638,-2.903006 -2.40854,-3.030611 z"
             style="font-style:italic;font-family:'Roboto Condensed';-inkscape-font-specification:'Roboto Condensed, ';fill:#552200"
             id="path527" /><path
             d="m 171.21429,-28.673732 q 0.20736,-1.515306 -1.69076,-2.520193 l -2.13738,-1.116541 q -1.65886,-0.925134 -2.32879,-1.961922 -0.65397,-1.036788 -0.57422,-2.408539 0.12761,-2.18523 1.78647,-3.620783 1.65886,-1.435553 4.05145,-1.403652 2.31283,0.0638 3.62078,1.531257 1.30795,1.451503 1.21224,3.716486 h -2.72755 q 0.0319,-1.291997 -0.57422,-2.025724 -0.60612,-0.749678 -1.69076,-0.781579 -1.22819,0 -2.02572,0.701826 -0.79753,0.685875 -0.95704,1.786466 -0.19141,1.291997 1.2601,2.121428 l 2.69565,1.37175 q 2.98276,1.658861 2.82325,4.402362 -0.15951,2.344736 -1.88217,3.748388 -1.72266,1.387701 -4.195,1.323898 -2.37664,-0.0319 -3.86004,-1.547206 -1.48341,-1.531257 -1.38771,-3.939795 l 2.77541,0.01595 q -0.0319,1.499355 0.65397,2.280934 0.68588,0.765628 1.94597,0.765628 1.3239,0 2.18523,-0.669924 0.87728,-0.669925 1.02084,-1.770515 z"
             style="font-style:italic;font-family:'Roboto Condensed';-inkscape-font-specification:'Roboto Condensed, ';fill:#552200"
             id="path529" /><path
             d="m 185.80908,-28.673732 q 0.20736,-1.515306 -1.69076,-2.520193 l -2.13738,-1.116541 q -1.65886,-0.925134 -2.32879,-1.961922 -0.65397,-1.036788 -0.57422,-2.408539 0.1276,-2.18523 1.78647,-3.620783 1.65886,-1.435553 4.05144,-1.403652 2.31284,0.0638 3.62079,1.531257 1.30795,1.451503 1.21224,3.716486 h -2.72755 q 0.0319,-1.291997 -0.57422,-2.025724 -0.60612,-0.749678 -1.69076,-0.781579 -1.2282,0 -2.02573,0.701826 -0.79753,0.685875 -0.95703,1.786466 -0.19141,1.291997 1.2601,2.121428 l 2.69564,1.37175 q 2.98276,1.658861 2.82326,4.402362 -0.15951,2.344736 -1.88217,3.748388 -1.72266,1.387701 -4.19501,1.323898 -2.37663,-0.0319 -3.86004,-1.547206 -1.4834,-1.531257 -1.3877,-3.939795 l 2.7754,0.01595 q -0.0319,1.499355 0.65398,2.280934 0.68587,0.765628 1.94597,0.765628 1.3239,0 2.18523,-0.669924 0.87728,-0.669925 1.02084,-1.770515 z"
             style="font-style:italic;font-family:'Roboto Condensed';-inkscape-font-specification:'Roboto Condensed, ';fill:#552200"
             id="path531" /></g></g></mask><filter
       id="mask-powermask-path-effect537_inverse"
       inkscape:label="filtermask-powermask-path-effect537"
       style="color-interpolation-filters:sRGB"
       height="100"
       width="100"
       x="-50"
       y="-50"><feColorMatrix
         id="mask-powermask-path-effect537_primitive1"
         values="1"
         type="saturate"
         result="fbSourceGraphic" /><feColorMatrix
         id="mask-powermask-path-effect537_primitive2"
         values="-1 0 0 0 1 0 -1 0 0 1 0 0 -1 0 1 0 0 0 1 0 "
         in="fbSourceGraphic" /></filter><rect
       x="7.373055"
       y="14.345875"
       width="83.026993"
       height="30.225145"
       id="rect8-7" /></defs><sodipodi:namedview
     pagecolor="#ffffff"
     bordercolor="#666666"
     borderopacity="1"
     objecttolerance="10"
     gridtolerance="10"
     guidetolerance="10"
     inkscape:pageopacity="0"
     inkscape:pageshadow="2"
     inkscape:window-width="1920"
     inkscape:window-height="1044"
     id="namedview6"
     showgrid="false"
     inkscape:snap-bbox="true"
     inkscape:bbox-paths="false"
     inkscape:bbox-nodes="true"
     inkscape:snap-object-midpoints="false"
     inkscape:snap-nodes="false"
     inkscape:snap-page="true"
     inkscape:zoom="2.8284272"
     inkscape:cx="129.40054"
     inkscape:cy="56.922095"
     inkscape:window-x="0"
     inkscape:window-y="0"
     inkscape:window-maximized="1"
     inkscape:current-layer="layer5"
     inkscape:showpageshadow="2"
     inkscape:pagecheckerboard="0"
     inkscape:deskcolor="#d1d1d1" /><g
     inkscape:groupmode="layer"
     id="layer5"
     inkscape:label="CrateOutline"
     style="display:inline"><path
       d="M 9.1855469,19.095703 V 40.667969 H 11.351563 V 19.095703 Z m 11.9492191,0 -8.31836,10.515625 8.572266,11.056641 h 2.677734 L 15.398438,29.388672 23.714844,19.095703 Z m 11.853515,5.226563 c -4.907197,0 -8.507812,3.536668 -8.507812,8.316406 0,4.779737 3.664345,8.412109 8.507812,8.412109 2.708519,0 4.684713,-1.083293 6.246094,-3.345703 h 0.0625 v 2.962891 h 2.039062 V 24.705078 h -2.039062 v 2.771484 h -0.0625 C 37.641129,25.24602 35.792394,24.322266 32.988281,24.322266 Z m 20.425781,0 c -2.676652,0 -4.588504,0.956234 -6.277343,3.123046 h -0.06445 v -2.740234 h -2.039063 v 21.572266 h 2.166016 v -8.572266 h 0.06445 c 1.338326,2.230545 3.37742,3.345703 6.085937,3.345703 4.875333,0 8.539063,-3.537898 8.539063,-8.253906 0,-4.875332 -3.599275,-8.474609 -8.47461,-8.474609 z m 29.060547,0 c -4.684142,0 -8.285156,3.664851 -8.285156,8.380859 0,4.716008 3.599784,8.347656 8.347656,8.347656 4.716009,0 8.34961,-3.631648 8.34961,-8.347656 0,-4.779737 -3.600506,-8.380859 -8.41211,-8.380859 z m -17.558593,0.382812 v 15.962891 h 2.167968 V 26.648437 h 6.150391 v -1.943359 z m -31.896485,1.560547 c 3.505142,0 6.277344,2.8674 6.277344,6.5 0,3.537005 -2.772202,6.341797 -6.277344,6.341797 -3.537005,0 -6.373047,-2.804177 -6.373047,-6.373047 0,-3.6326 2.772312,-6.46875 6.373047,-6.46875 z m 20.394531,0 c 3.537007,0 6.308594,2.83615 6.308594,6.46875 0,3.56887 -2.80356,6.373047 -6.404297,6.373047 -3.568869,0 -6.246093,-2.709197 -6.246093,-6.341797 0,-3.696331 2.741062,-6.5 6.341796,-6.5 z m 29.15625,0 c 3.505142,0 6.150391,2.773034 6.150391,6.4375 0,3.664466 -2.646587,6.404297 -6.183594,6.404297 -3.537005,0 -6.18164,-2.739831 -6.18164,-6.404297 0,-3.696331 2.645974,-6.4375 6.214843,-6.4375 z m -8.068359,21.347656 c -0.200047,0.02501 -0.393081,0.04921 -0.578125,0.07422 -0.185044,0.02501 -0.32771,0.04555 -0.427734,0.06055 -0.520124,0.07502 -0.953747,0.229787 -1.298828,0.464844 -0.345083,0.230054 -0.621981,0.542405 -0.832032,0.9375 -0.210049,0.395093 -0.374112,0.873461 -0.49414,1.433593 -0.20005,0.950225 -0.185133,1.660748 0.04492,2.13086 0.230054,0.46511 0.655243,0.697265 1.27539,0.697265 0.490116,0 0.901249,-0.169685 1.236328,-0.509765 0.340082,-0.340082 0.574189,-0.803533 0.699219,-1.388672 0.07502,-0.360085 0.08712,-0.692975 0.03711,-0.998047 -0.05001,-0.310073 -0.174952,-0.557144 -0.375,-0.742188 -0.195045,-0.190046 -0.477567,-0.285156 -0.847656,-0.285156 -0.310073,0 -0.574869,0.0802 -0.794922,0.240235 -0.21505,0.155036 -0.404415,0.342447 -0.564453,0.5625 h -0.02148 c 0.115027,-0.360086 0.239968,-0.669626 0.375,-0.929688 0.135032,-0.265062 0.315963,-0.482303 0.541015,-0.652344 0.230055,-0.170039 0.539596,-0.292167 0.929688,-0.367187 0.12503,-0.025 0.291904,-0.05116 0.501953,-0.07617 0.21005,-0.03 0.423621,-0.05983 0.638672,-0.08984 z M 6.8730469,47.980469 5.7402344,53.337891 h 1.5898437 c 0.595141,0 1.0650745,-0.112837 1.4101563,-0.337891 0.3500829,-0.230055 0.5645098,-0.565753 0.6445312,-1.005859 0.1300309,-0.725173 -0.1766984,-1.189483 -0.921875,-1.394532 l 0.00781,-0.03906 C 9.1808714,50.485529 9.6032493,50.134056 9.7382813,49.503906 9.838305,49.043797 9.7375711,48.675455 9.4375,48.400391 9.1424301,48.120324 8.6603931,47.980469 7.9902344,47.980469 Z m 0.5390625,0.578125 h 0.5332031 c 0.8401991,0 1.2093987,0.300249 1.109375,0.90039 -0.090021,0.535127 -0.4713243,0.802735 -1.1464844,0.802735 H 7.0527344 Z m 4.7636716,0.697265 c -0.455106,0 -0.844844,0.172496 -1.169922,0.517578 -0.325076,0.340081 -0.560043,0.807203 -0.705078,1.402344 -0.10002,0.425101 -0.129853,0.808356 -0.08984,1.148438 0.04001,0.335079 0.150035,0.599875 0.330078,0.794922 0.180042,0.195047 0.427113,0.292968 0.742187,0.292968 0.280067,0 0.535571,-0.0802 0.765625,-0.240234 0.230055,-0.165039 0.429569,-0.358072 0.59961,-0.578125 h 0.03125 l -0.09766,0.744141 h 0.523438 l 0.855469,-4.021485 h -0.501954 l -0.240234,0.623047 h -0.03711 c -0.08002,-0.190044 -0.202148,-0.350438 -0.367188,-0.480469 -0.160038,-0.135034 -0.373608,-0.203125 -0.638672,-0.203125 z m 47.75586,0 c -0.455107,0 -0.844846,0.172496 -1.169922,0.517578 -0.325078,0.340081 -0.560045,0.807203 -0.705078,1.402344 -0.10002,0.425101 -0.129854,0.808356 -0.08984,1.148438 0.04001,0.335079 0.150035,0.599875 0.330078,0.794922 0.180043,0.195047 0.427113,0.292968 0.742187,0.292968 0.280067,0 0.535571,-0.0802 0.765625,-0.240234 0.230054,-0.165039 0.429569,-0.358072 0.59961,-0.578125 h 0.03125 l -0.09766,0.744141 h 0.52539 l 0.855469,-4.021485 h -0.503906 l -0.240235,0.623047 H 60.9375 c -0.08002,-0.190044 -0.202148,-0.350438 -0.367188,-0.480469 -0.160037,-0.135034 -0.373609,-0.203125 -0.638671,-0.203125 z m 20.615234,0 c -0.425101,0 -0.829753,0.08582 -1.214844,0.25586 l 0.195313,0.509765 c 0.155036,-0.07001 0.31824,-0.123193 0.488281,-0.158203 0.170041,-0.04001 0.32481,-0.06055 0.464844,-0.06055 0.250059,0 0.431847,0.06161 0.546875,0.181641 0.119994,0.115027 0.161103,0.279089 0.121093,0.494141 -0.03501,0.185043 -0.130119,0.32123 -0.285156,0.40625 -0.150035,0.08002 -0.381333,0.11914 -0.691406,0.11914 h -0.388672 l -0.128906,0.554688 h 0.55664 c 0.305072,0 0.511068,0.07371 0.621094,0.21875 0.114981,0.145033 0.153291,0.31472 0.113281,0.509765 -0.04501,0.205049 -0.160658,0.354199 -0.345703,0.449219 -0.185043,0.09003 -0.408764,0.134766 -0.673828,0.134766 -0.195045,0 -0.388079,-0.0214 -0.578125,-0.06641 -0.190044,-0.05001 -0.373786,-0.115292 -0.548828,-0.195312 v 0.570312 c 0.145035,0.07001 0.313862,0.124053 0.503906,0.164063 0.195047,0.04501 0.397373,0.06836 0.607422,0.06836 0.480114,0 0.857747,-0.09511 1.132813,-0.285156 0.280066,-0.190044 0.452558,-0.434303 0.517578,-0.734375 0.03001,-0.135032 0.03562,-0.274887 0.01563,-0.419922 -0.015,-0.150035 -0.0738,-0.289033 -0.173828,-0.414062 -0.100024,-0.12503 -0.261276,-0.214522 -0.486328,-0.269532 l 0.0059,-0.02344 c 0.500119,-0.120029 0.796699,-0.384825 0.886719,-0.794922 0.05001,-0.225053 0.0351,-0.430191 -0.04492,-0.615234 -0.08002,-0.185044 -0.222687,-0.328569 -0.427735,-0.433594 -0.200047,-0.110026 -0.463985,-0.166016 -0.789062,-0.166016 z m 8.214844,0 c -0.345083,0 -0.651812,0.08863 -0.921875,0.263672 -0.265064,0.175042 -0.487926,0.410009 -0.667969,0.705078 -0.175042,0.295071 -0.29998,0.625148 -0.375,0.990235 -0.06006,0.275064 -0.08336,0.54353 -0.06836,0.808593 0.015,0.260062 0.07466,0.495028 0.179687,0.705079 0.105025,0.210049 0.262607,0.378876 0.472656,0.503906 0.210051,0.120027 0.480469,0.179687 0.810547,0.179687 0.255061,0 0.472301,-0.02702 0.652344,-0.08203 0.185044,-0.06001 0.371596,-0.130918 0.556641,-0.210937 v -0.5625 c -0.200048,0.09502 -0.3866,0.169599 -0.556641,0.224609 -0.170041,0.05501 -0.349018,0.08398 -0.539063,0.08398 -0.360086,0 -0.612777,-0.112837 -0.757812,-0.33789 -0.140078,-0.225054 -0.187588,-0.536547 -0.142578,-0.931641 h 0.134765 c 0.735175,0 1.288115,-0.110025 1.658204,-0.330078 0.370087,-0.220053 0.590136,-0.49414 0.660156,-0.824219 0.07502,-0.355084 0.01536,-0.640418 -0.179688,-0.855469 -0.195045,-0.220052 -0.500917,-0.330078 -0.916015,-0.330078 z m 3.667968,0 c -0.545129,0 -0.986091,0.17812 -1.326171,0.533203 -0.33508,0.350084 -0.569188,0.822828 -0.699219,1.417969 -0.145035,0.675161 -0.09467,1.213187 0.15039,1.613281 0.245058,0.395095 0.670248,0.591797 1.275391,0.591797 0.205049,0 0.389648,-0.02335 0.554688,-0.06836 0.170039,-0.04501 0.324811,-0.101855 0.464843,-0.171875 v -0.554688 c -0.155036,0.07002 -0.309807,0.129678 -0.464843,0.179688 -0.150036,0.04501 -0.310428,0.06836 -0.480469,0.06836 -0.360085,0 -0.616447,-0.127752 -0.771485,-0.382812 -0.155039,-0.260062 -0.175574,-0.658233 -0.06055,-1.19336 0.100023,-0.46511 0.254794,-0.827829 0.464843,-1.08789 0.215052,-0.260062 0.506008,-0.390625 0.871094,-0.390625 0.175042,0 0.329812,0.02335 0.464844,0.06836 0.140033,0.04001 0.259351,0.08194 0.359375,0.126953 l 0.1875,-0.554687 c -0.140034,-0.06002 -0.297616,-0.107568 -0.472656,-0.142578 -0.175042,-0.035 -0.347539,-0.05273 -0.517579,-0.05273 z M 15.125,49.316406 14.607422,51.761719 c -0.110022,0.530125 -0.08863,0.937589 0.06641,1.222656 0.155037,0.285067 0.431079,0.427734 0.826172,0.427734 0.230055,0 0.426757,-0.04193 0.591797,-0.126953 0.170041,-0.09002 0.31833,-0.202859 0.443359,-0.33789 0.130031,-0.140034 0.243726,-0.2827 0.34375,-0.427735 h 0.03125 c 0.03001,0.275066 0.119496,0.492306 0.269531,0.652344 0.150035,0.160034 0.363608,0.240234 0.638672,0.240234 0.205049,0 0.386838,-0.04193 0.546875,-0.126953 0.160039,-0.08502 0.299894,-0.191376 0.419922,-0.316406 0.12503,-0.130031 0.232246,-0.254971 0.322266,-0.375 h 0.03711 l -0.08203,0.744141 h 0.541016 l 0.855468,-4.021485 h -0.660156 l -0.369141,1.732422 c -0.09002,0.440104 -0.214962,0.793531 -0.375,1.058594 -0.160038,0.265062 -0.332533,0.456143 -0.517578,0.576172 -0.180042,0.12003 -0.352538,0.18164 -0.517578,0.18164 -0.180042,0 -0.307792,-0.05037 -0.382812,-0.15039 -0.07002,-0.100024 -0.103516,-0.227776 -0.103516,-0.382813 0.005,-0.160037 0.02358,-0.326054 0.05859,-0.496094 l 0.541015,-2.519531 h -0.660156 l -0.390625,1.814453 c -0.13003,0.605144 -0.323064,1.045247 -0.578125,1.320313 -0.25506,0.275065 -0.522668,0.414062 -0.802734,0.414062 -0.230055,0 -0.379199,-0.08301 -0.449219,-0.248047 -0.07003,-0.17004 -0.06721,-0.431167 0.0078,-0.78125 l 0.53125,-2.519531 z m 6.496094,0 -0.533203,2.490235 c -0.110028,0.515122 -0.08387,0.913293 0.07617,1.193359 0.160039,0.275065 0.443419,0.412109 0.853516,0.412109 0.265063,0 0.501983,-0.06247 0.707031,-0.1875 0.210051,-0.13003 0.427291,-0.340791 0.652344,-0.630859 h 0.03711 l -0.08203,0.744141 h 0.539063 l 0.855468,-4.021485 h -0.652343 l -0.367188,1.732422 c -0.09002,0.440104 -0.217774,0.793531 -0.382812,1.058594 -0.160038,0.265062 -0.335345,0.456143 -0.525391,0.576172 -0.190044,0.12003 -0.377456,0.18164 -0.5625,0.18164 -0.235055,0 -0.398261,-0.0802 -0.488281,-0.240234 -0.08502,-0.165039 -0.08869,-0.417732 -0.01367,-0.757813 l 0.546875,-2.550781 z m 7.34375,0 c -0.455108,0 -0.815016,0.09511 -1.080078,0.285156 -0.260063,0.190046 -0.423262,0.442739 -0.488282,0.757813 -0.06002,0.290068 -0.03018,0.543619 0.08984,0.763672 0.120029,0.220051 0.31025,0.380445 0.570313,0.480469 l -1.447266,1.734375 h 0.787109 l 1.275391,-1.554688 h 0.654297 l -0.330078,1.554688 h 0.652343 l 0.847657,-4.021485 z m 2.701172,0 -0.517579,2.445313 c -0.110022,0.530125 -0.08863,0.937589 0.06641,1.222656 0.155036,0.285067 0.431077,0.427734 0.826172,0.427734 0.230054,0 0.426758,-0.04193 0.591796,-0.126953 0.170041,-0.09002 0.31833,-0.202859 0.44336,-0.33789 0.130031,-0.140034 0.245679,-0.2827 0.345703,-0.427735 h 0.0293 c 0.03001,0.275066 0.119495,0.492306 0.269531,0.652344 0.150036,0.160034 0.363607,0.240234 0.638672,0.240234 0.205049,0 0.386837,-0.04193 0.546875,-0.126953 0.160038,-0.08502 0.299893,-0.191376 0.419922,-0.316406 0.12503,-0.130031 0.232246,-0.254971 0.322265,-0.375 h 0.03906 c -0.005,0.25506 0.0285,0.445284 0.103516,0.570312 0.08002,0.120029 0.201285,0.197415 0.361328,0.232422 l -0.210938,0.990235 h 0.646485 l 0.330078,-1.544922 c -0.09002,0.02501 -0.184277,0.03711 -0.279297,0.03711 -0.155037,0 -0.250146,-0.05037 -0.285156,-0.15039 -0.03001,-0.100024 -0.01313,-0.291105 0.04687,-0.576172 L 37,49.316406 h -0.660156 l -0.367188,1.732422 c -0.09002,0.440104 -0.214962,0.793531 -0.375,1.058594 -0.160037,0.265062 -0.332534,0.456143 -0.517578,0.576172 -0.180043,0.12003 -0.354492,0.18164 -0.519531,0.18164 -0.180043,0 -0.30584,-0.05037 -0.38086,-0.15039 -0.07002,-0.100024 -0.105468,-0.227776 -0.105468,-0.382813 0.005,-0.160037 0.02554,-0.326054 0.06055,-0.496094 l 0.539062,-2.519531 h -0.660156 l -0.390625,1.814453 c -0.130031,0.605144 -0.321112,1.045247 -0.576172,1.320313 -0.25506,0.275065 -0.522668,0.414062 -0.802734,0.414062 -0.230055,0 -0.381152,-0.08301 -0.451172,-0.248047 -0.07003,-0.17004 -0.06721,-0.431167 0.0078,-0.78125 l 0.533203,-2.519531 z m 6.601562,0 -0.533203,2.490235 c -0.110028,0.515122 -0.08387,0.913293 0.07617,1.193359 0.160038,0.275065 0.443419,0.412109 0.853515,0.412109 0.265064,0 0.501983,-0.06247 0.707032,-0.1875 0.210049,-0.13003 0.42729,-0.340791 0.652343,-0.630859 h 0.03711 l -0.08203,0.744141 h 0.539062 l 0.855469,-4.021485 h -0.652344 l -0.367187,1.732422 c -0.09002,0.440104 -0.217773,0.793531 -0.382813,1.058594 -0.160038,0.265062 -0.335345,0.456143 -0.525391,0.576172 -0.190044,0.12003 -0.377455,0.18164 -0.5625,0.18164 -0.235055,0 -0.398261,-0.0802 -0.488281,-0.240234 -0.08502,-0.165039 -0.08869,-0.417732 -0.01367,-0.757813 l 0.546875,-2.550781 z m 4.306641,0 -0.847657,4.021485 h 0.660157 l 0.375,-1.779297 h 0.539062 l 0.802735,1.779297 h 0.720703 l -0.97461,-2.072266 1.740235,-1.949219 h -0.744141 l -1.484375,1.6875 h -0.480469 l 0.353516,-1.6875 z m 3.630859,0 -0.533203,2.490235 c -0.110025,0.515122 -0.08582,0.913293 0.07422,1.193359 0.160037,0.275065 0.445372,0.412109 0.855468,0.412109 0.265064,0 0.50003,-0.06247 0.705079,-0.1875 0.210049,-0.13003 0.427291,-0.340791 0.652343,-0.630859 h 0.03906 l -0.08398,0.744141 h 0.541016 l 0.855469,-4.021485 h -0.652344 l -0.369141,1.732422 c -0.09002,0.440104 -0.217773,0.793531 -0.382812,1.058594 -0.160038,0.265062 -0.333392,0.456143 -0.523438,0.576172 -0.190044,0.12003 -0.377455,0.18164 -0.5625,0.18164 -0.235055,0 -0.398261,-0.0802 -0.488281,-0.240234 -0.08503,-0.165039 -0.09065,-0.417732 -0.01563,-0.757813 l 0.548828,-2.550781 z m 8.175781,0 -0.855468,4.021485 h 0.667968 l 0.382813,-1.800782 h 1.748047 l -0.375,1.800782 h 0.667968 l 0.847657,-4.021485 h -0.660157 l -0.361328,1.671875 h -1.746093 l 0.34375,-1.671875 z m 8.5,0 -0.517578,2.445313 c -0.110026,0.530125 -0.08668,0.937589 0.06836,1.222656 0.155036,0.285067 0.429125,0.427734 0.824218,0.427734 0.230055,0 0.426759,-0.04193 0.591797,-0.126953 0.170041,-0.09002 0.31833,-0.202859 0.44336,-0.33789 0.13003,-0.140034 0.245679,-0.2827 0.345703,-0.427735 h 0.0293 c 0.03001,0.275066 0.119495,0.492306 0.269531,0.652344 0.150036,0.160034 0.363606,0.240234 0.638672,0.240234 0.205048,0 0.386837,-0.04193 0.546875,-0.126953 0.160037,-0.08502 0.299893,-0.191376 0.419922,-0.316406 0.125029,-0.130031 0.232245,-0.254971 0.322265,-0.375 h 0.03906 l -0.08398,0.744141 h 0.541016 l 0.855469,-4.021485 H 67.554687 L 67.1875,51.048828 c -0.09002,0.440104 -0.214962,0.793531 -0.375,1.058594 -0.160038,0.265062 -0.332534,0.456143 -0.517578,0.576172 -0.180043,0.12003 -0.35254,0.18164 -0.517578,0.18164 -0.180043,0 -0.307793,-0.05037 -0.382813,-0.15039 -0.07002,-0.100024 -0.105469,-0.227776 -0.105469,-0.382813 0.005,-0.160037 0.02554,-0.326054 0.06055,-0.496094 l 0.539063,-2.519531 h -0.660156 l -0.390625,1.814453 c -0.130031,0.605144 -0.321112,1.045247 -0.576172,1.320313 -0.255061,0.275065 -0.522668,0.414062 -0.802735,0.414062 -0.230054,0 -0.381152,-0.08301 -0.451172,-0.248047 -0.07003,-0.17004 -0.06721,-0.431167 0.0078,-0.78125 l 0.533203,-2.519531 z m 12.603516,0 -0.533203,2.490235 c -0.110025,0.515122 -0.08582,0.913293 0.07422,1.193359 0.160037,0.275065 0.445371,0.412109 0.855468,0.412109 0.265064,0 0.50003,-0.06247 0.705078,-0.1875 0.21005,-0.13003 0.427291,-0.340791 0.652344,-0.630859 h 0.03906 l -0.08398,0.744141 h 0.541016 l 0.855469,-4.021485 H 77.9375 l -0.369141,1.732422 c -0.09002,0.440104 -0.21582,0.793531 -0.380859,1.058594 -0.160038,0.265062 -0.335345,0.456143 -0.525391,0.576172 -0.190044,0.12003 -0.377455,0.18164 -0.5625,0.18164 -0.235055,0 -0.398261,-0.0802 -0.488281,-0.240234 -0.08503,-0.165039 -0.09064,-0.417732 -0.01563,-0.757813 l 0.548828,-2.550781 z m 7.650391,0 -0.853516,4.021485 h 0.666016 l 0.382812,-1.800782 h 1.748047 l -0.375,1.800782 h 0.667969 l 0.847656,-4.021485 h -0.660156 l -0.359375,1.671875 h -1.748047 l 0.34375,-1.671875 z m -70.890625,0.486328 c 0.310072,-0.005 0.51888,0.133996 0.628906,0.414063 0.115029,0.275065 0.111358,0.649887 -0.01367,1.125 -0.12503,0.455108 -0.312441,0.821496 -0.5625,1.101562 -0.245059,0.280067 -0.511808,0.421875 -0.796875,0.421875 -0.275065,0 -0.463335,-0.138997 -0.568359,-0.414062 -0.100025,-0.275066 -0.09635,-0.652699 0.01367,-1.132813 0.110026,-0.485115 0.278852,-0.857126 0.503906,-1.117187 0.225053,-0.260062 0.489849,-0.393438 0.794922,-0.398438 z m 47.755859,0 c 0.310073,-0.005 0.520834,0.133996 0.630859,0.414063 0.115023,0.275065 0.109405,0.649887 -0.01563,1.125 -0.125029,0.455108 -0.31244,0.821496 -0.5625,1.101562 -0.245057,0.280067 -0.509853,0.421875 -0.794922,0.421875 -0.275064,0 -0.465287,-0.138997 -0.570312,-0.414062 -0.100019,-0.275066 -0.0944,-0.652699 0.01563,-1.132813 0.110026,-0.485115 0.2769,-0.857126 0.501953,-1.117187 C 59.430132,49.94111 59.694928,49.807734 60,49.802734 Z m 28.716797,0 c 0.210049,0 0.355527,0.0588 0.435547,0.173828 0.08502,0.110027 0.109228,0.24059 0.07422,0.390625 -0.04001,0.17004 -0.138789,0.307085 -0.298828,0.41211 -0.155036,0.100024 -0.353692,0.171787 -0.59375,0.216797 -0.235055,0.04501 -0.491418,0.06836 -0.771484,0.06836 h -0.05273 c 0.120027,-0.420099 0.286901,-0.735263 0.501953,-0.945312 0.220051,-0.210051 0.455018,-0.316407 0.705078,-0.316407 z m -59.857422,0.07617 h 0.871094 l -0.285157,1.341797 h -0.660156 c -0.265062,0 -0.470199,-0.06333 -0.615234,-0.193359 -0.140066,-0.135033 -0.184776,-0.328066 -0.134766,-0.578125 0.08002,-0.38009 0.354108,-0.570313 0.824219,-0.570313 z m 43.863281,0.158203 c 0.33508,0 0.566378,0.125799 0.691406,0.38086 0.12502,0.250059 0.142755,0.591382 0.05273,1.021484 -0.09502,0.455108 -0.251746,0.806581 -0.466797,1.056641 -0.21005,0.250059 -0.478515,0.375 -0.808594,0.375 -0.34008,0 -0.577859,-0.131421 -0.71289,-0.396485 -0.13003,-0.265062 -0.150567,-0.622159 -0.06055,-1.072265 0.08502,-0.430102 0.239791,-0.765802 0.464843,-1.00586 0.230055,-0.240056 0.509766,-0.359375 0.839844,-0.359375 z M 6.9316406,50.816406 h 0.7050781 c 0.3950937,0 0.6832387,0.0923 0.8632813,0.277344 0.1850438,0.180043 0.2475142,0.44117 0.1875,0.78125 -0.1050249,0.595141 -0.5217801,0.892578 -1.2519531,0.892578 H 6.5195312 Z m 42.9707034,1.650391 c -0.09502,0.260061 -0.210672,0.557499 -0.345703,0.892578 -0.135033,0.335079 -0.266454,0.650242 -0.396485,0.945312 h 0.501953 c 0.175042,-0.275065 0.353161,-0.569691 0.533203,-0.884765 0.180044,-0.315074 0.332002,-0.606031 0.457032,-0.871094 l -0.0293,-0.08203 z"
       style="display:inline;fill:#000000;fill-opacity:0.159566"
       id="path7" /><path
       d="M 10.152344,1.25 C 7.7045263,1.2121789 5.2615734,2.5284877 1.1308594,5.5605469 L 1.84375,55.103516 c 0,0 2.0507195,3.851543 3.6601562,5.253906 1.5871601,1.38295 5.6269528,2.869141 5.6269528,2.86914 h 79.072266 c 0,0 4.209533,-0.704096 5.556641,-2.166015 1.139223,-1.236326 1.439453,-4.833984 1.439453,-4.833985 V 4.9238281 C 89.218569,0.0366288 87.604132,0.51574248 79.224609,6.03125 l -0.07031,6.074219 -10.087891,-0.05078 -0.06445,-7.6582036 C 62.11505,1.6018219 60.746301,0.17950281 54.660156,5.34375 l 0.002,6.652344 L 43.957031,12.441406 44.015625,5.375 C 37.318934,0.70728392 36.327889,0.63321797 29.109375,5.5585937 l -0.02734,6.2773443 H 19.203125 V 5.0507812 C 15.052443,2.6783337 12.600158,1.2878211 10.152344,1.25 Z M 9.1855469,19.095703 H 11.351563 V 40.667969 H 9.1855469 Z m 11.9492191,0 h 2.580078 l -8.316406,10.292969 8.667968,11.279297 H 21.388672 L 12.816406,29.611328 Z m 11.853515,5.226563 c 2.804115,0 4.652847,0.923752 6.246094,3.154296 h 0.0625 v -2.771484 h 2.039062 v 15.962891 h -2.039062 v -2.962891 h -0.0625 c -1.561382,2.262412 -3.537572,3.345703 -6.246094,3.345703 -4.843472,0 -8.507812,-3.632367 -8.507812,-8.412109 0,-4.779742 3.60061,-8.316406 8.507812,-8.316406 z m 20.425781,0 c 4.87534,0 8.47461,3.599272 8.47461,8.474609 0,4.716012 -3.663726,8.253906 -8.539063,8.253906 -2.70852,0 -4.747609,-1.115156 -6.085937,-3.345703 h -0.06445 v 8.572266 H 45.033203 V 24.705078 h 2.039063 v 2.740234 h 0.06445 c 1.688841,-2.166814 3.600688,-3.123046 6.277343,-3.123046 z m 29.060547,0 c 4.811609,0 8.41211,3.601117 8.41211,8.380859 0,4.716012 -3.633596,8.347656 -8.34961,8.347656 -4.747877,0 -8.347656,-3.631644 -8.347656,-8.347656 0,-4.716012 3.601009,-8.380859 8.285156,-8.380859 z m -17.558593,0.382812 h 8.318359 v 1.943359 h -6.150391 v 14.019532 h -2.167968 z m -31.896485,1.560547 c -3.600738,0 -6.373047,2.836147 -6.373047,6.46875 0,3.568873 2.836039,6.373047 6.373047,6.373047 3.505146,0 6.277344,-2.804789 6.277344,-6.341797 0,-3.632603 -2.772198,-6.5 -6.277344,-6.5 z m 20.394531,0 c -3.600738,0 -6.341796,2.803666 -6.341796,6.5 0,3.632603 2.67722,6.341797 6.246093,6.341797 3.600741,0 6.404297,-2.804174 6.404297,-6.373047 0,-3.632603 -2.771583,-6.46875 -6.308594,-6.46875 z m 29.15625,0 c -3.568873,0 -6.214843,2.741166 -6.214843,6.4375 0,3.664469 2.644632,6.404297 6.18164,6.404297 3.537011,0 6.183594,-2.739828 6.183594,-6.404297 0,-3.664469 -2.645245,-6.4375 -6.150391,-6.4375 z m -8.068359,21.347656 0.04492,0.5625 c -0.215051,0.03001 -0.428622,0.05984 -0.638672,0.08984 -0.21005,0.02501 -0.376923,0.05117 -0.501953,0.07617 -0.390093,0.07502 -0.699633,0.197148 -0.929688,0.367187 -0.225052,0.170041 -0.405983,0.387281 -0.541015,0.652344 -0.135032,0.260062 -0.259973,0.569602 -0.375,0.929688 h 0.02148 c 0.160038,-0.220053 0.349403,-0.407464 0.564453,-0.5625 0.220053,-0.160039 0.484849,-0.240235 0.794922,-0.240235 0.370089,0 0.652611,0.09511 0.847656,0.285156 0.200048,0.185044 0.32499,0.432114 0.375,0.742188 0.05001,0.305073 0.03791,0.637961 -0.03711,0.998047 -0.12503,0.585139 -0.359137,1.04859 -0.699219,1.388672 -0.335079,0.34008 -0.746211,0.509765 -1.236328,0.509765 -0.620147,0 -1.045336,-0.232155 -1.27539,-0.697265 -0.230055,-0.470113 -0.244972,-1.180634 -0.04492,-2.13086 0.120028,-0.560132 0.284091,-1.0385 0.49414,-1.433593 0.210051,-0.395095 0.486949,-0.707446 0.832032,-0.9375 0.345081,-0.235057 0.778703,-0.389826 1.298828,-0.464844 0.100024,-0.015 0.24269,-0.03554 0.427734,-0.06055 0.185044,-0.02501 0.378077,-0.04921 0.578125,-0.07422 z M 6.8730469,47.980469 h 1.1171875 c 0.6701594,0 1.1521954,0.139855 1.4472656,0.419922 0.3000714,0.275064 0.4008051,0.643406 0.3007813,1.103515 -0.1350321,0.630151 -0.5574092,0.981623 -1.2675782,1.056641 l -0.00781,0.03906 c 0.7451774,0.205049 1.051906,0.669358 0.921875,1.394532 C 9.3047441,52.434247 9.0903176,52.769945 8.7402344,53 8.3951522,53.225054 7.9252197,53.337891 7.3300781,53.337891 H 5.7402344 Z m 0.5390625,0.578125 -0.359375,1.703125 h 0.8554687 c 0.6751607,0 1.056463,-0.267607 1.1464844,-0.802735 0.1000238,-0.600142 -0.269175,-0.90039 -1.109375,-0.90039 z m 4.7636716,0.697265 c 0.265064,0 0.478634,0.06809 0.638672,0.203125 0.16504,0.130031 0.287169,0.290424 0.367188,0.480469 h 0.03711 l 0.240234,-0.623047 h 0.501954 l -0.855469,4.021485 h -0.523438 l 0.09766,-0.744141 h -0.03125 c -0.170041,0.220053 -0.369555,0.413086 -0.59961,0.578125 -0.230055,0.160038 -0.485558,0.240234 -0.765625,0.240234 -0.315075,0 -0.562145,-0.09792 -0.742187,-0.292968 -0.180043,-0.195047 -0.29007,-0.459843 -0.330078,-0.794922 -0.04001,-0.340082 -0.01018,-0.723336 0.08984,-1.148438 0.145035,-0.595141 0.380002,-1.062263 0.705078,-1.402344 0.325078,-0.345082 0.714816,-0.517578 1.169922,-0.517578 z m 47.75586,0 c 0.265062,0 0.478634,0.06809 0.638671,0.203125 0.16504,0.130031 0.287169,0.290424 0.367188,0.480469 h 0.03711 l 0.240235,-0.623047 h 0.503906 l -0.855469,4.021485 h -0.52539 l 0.09766,-0.744141 h -0.03125 c -0.170041,0.220053 -0.369556,0.413086 -0.59961,0.578125 -0.230054,0.160038 -0.485558,0.240234 -0.765625,0.240234 -0.315074,0 -0.562144,-0.09792 -0.742187,-0.292968 -0.180043,-0.195047 -0.290069,-0.459843 -0.330078,-0.794922 -0.04001,-0.340082 -0.01018,-0.723336 0.08984,-1.148438 0.145033,-0.595141 0.38,-1.062263 0.705078,-1.402344 0.325076,-0.345082 0.714814,-0.517578 1.169922,-0.517578 z m 20.615234,0 c 0.325078,0 0.589015,0.05599 0.789062,0.166016 0.205048,0.105025 0.347716,0.24855 0.427735,0.433594 0.08002,0.185044 0.09493,0.39018 0.04492,0.615234 -0.09002,0.410098 -0.3866,0.674893 -0.886719,0.794922 l -0.0059,0.02344 c 0.225052,0.05501 0.386304,0.144502 0.486328,0.269532 0.100024,0.12503 0.158824,0.264026 0.173828,0.414062 0.02,0.145035 0.01439,0.28489 -0.01563,0.419922 -0.06502,0.300072 -0.237512,0.54433 -0.517578,0.734375 -0.275066,0.190046 -0.652698,0.285156 -1.132813,0.285156 -0.21005,0 -0.412375,-0.02335 -0.607422,-0.06836 -0.190044,-0.04001 -0.358871,-0.09405 -0.503906,-0.164063 v -0.570312 c 0.175042,0.08002 0.358783,0.145301 0.548828,0.195312 0.190046,0.04501 0.383079,0.06641 0.578125,0.06641 0.265064,0 0.488785,-0.04474 0.673828,-0.134766 0.185045,-0.09502 0.300694,-0.24417 0.345703,-0.449219 0.04001,-0.195045 0.0017,-0.364731 -0.113281,-0.509765 -0.110026,-0.145035 -0.316022,-0.21875 -0.621094,-0.21875 h -0.55664 l 0.128906,-0.554688 h 0.388672 c 0.310074,0 0.54137,-0.03912 0.691406,-0.11914 0.155037,-0.08502 0.250148,-0.221207 0.285156,-0.40625 0.04001,-0.215052 -0.0011,-0.379114 -0.121093,-0.494141 -0.115028,-0.120029 -0.296816,-0.181641 -0.546875,-0.181641 -0.140034,0 -0.294803,0.02054 -0.464844,0.06055 -0.170041,0.03501 -0.333244,0.08819 -0.488281,0.158203 l -0.195313,-0.509765 c 0.385092,-0.170041 0.789742,-0.25586 1.214844,-0.25586 z m 8.214844,0 c 0.415098,0 0.72097,0.110026 0.916015,0.330078 0.195047,0.215051 0.254706,0.500385 0.179688,0.855469 -0.07002,0.330079 -0.290069,0.604166 -0.660156,0.824219 -0.370089,0.220053 -0.923028,0.330078 -1.658204,0.330078 h -0.134765 c -0.04501,0.395095 0.0025,0.706587 0.142578,0.931641 0.145035,0.225054 0.397726,0.33789 0.757812,0.33789 0.190045,0 0.369022,-0.02897 0.539063,-0.08398 0.170041,-0.05501 0.356593,-0.129587 0.556641,-0.224609 v 0.5625 c -0.185045,0.08002 -0.371597,0.150923 -0.556641,0.210937 -0.180043,0.05501 -0.397283,0.08203 -0.652344,0.08203 -0.330078,0 -0.600496,-0.05966 -0.810547,-0.179687 -0.210049,-0.12503 -0.367631,-0.293857 -0.472656,-0.503906 -0.105025,-0.210051 -0.164684,-0.445017 -0.179687,-0.705079 -0.015,-0.265063 0.0083,-0.533529 0.06836,-0.808593 0.07502,-0.365087 0.199958,-0.695164 0.375,-0.990235 0.180043,-0.295069 0.402905,-0.530036 0.667969,-0.705078 0.270063,-0.175042 0.576792,-0.263672 0.921875,-0.263672 z m 3.667968,0 c 0.17004,0 0.342537,0.01774 0.517579,0.05273 0.17504,0.03501 0.332622,0.08256 0.472656,0.142578 l -0.1875,0.554687 c -0.100024,-0.04501 -0.219342,-0.08694 -0.359375,-0.126953 -0.135032,-0.04501 -0.289802,-0.06836 -0.464844,-0.06836 -0.365087,0 -0.656042,0.130563 -0.871094,0.390625 -0.210049,0.260062 -0.364819,0.62278 -0.464843,1.08789 -0.115028,0.535128 -0.09449,0.933298 0.06055,1.19336 0.155038,0.255061 0.411399,0.382812 0.771485,0.382812 0.170041,0 0.330433,-0.02335 0.480469,-0.06836 0.155036,-0.05001 0.309807,-0.109672 0.464843,-0.179688 v 0.554688 c -0.140032,0.07002 -0.294804,0.126864 -0.464843,0.171875 -0.16504,0.04501 -0.349639,0.06836 -0.554688,0.06836 -0.605143,0 -1.030333,-0.196702 -1.275391,-0.591797 -0.245058,-0.400094 -0.295425,-0.938119 -0.15039,-1.613281 0.130031,-0.595141 0.364139,-1.067885 0.699219,-1.417969 0.34008,-0.355083 0.781041,-0.533203 1.326171,-0.533203 z M 15.125,49.316406 h 0.666016 l -0.53125,2.519531 c -0.07502,0.350083 -0.07784,0.61121 -0.0078,0.78125 0.07002,0.165039 0.219164,0.248047 0.449219,0.248047 0.280067,0 0.547674,-0.138996 0.802734,-0.414062 0.255061,-0.275066 0.448094,-0.715168 0.578125,-1.320313 l 0.390625,-1.814453 h 0.660156 l -0.541015,2.519531 c -0.03501,0.17004 -0.05359,0.336056 -0.05859,0.496094 0,0.155037 0.0335,0.282789 0.103516,0.382813 0.07502,0.100024 0.202769,0.15039 0.382812,0.15039 0.16504,0 0.337536,-0.06161 0.517578,-0.18164 0.185045,-0.120029 0.35754,-0.311109 0.517578,-0.576172 0.160038,-0.265063 0.284979,-0.618489 0.375,-1.058594 l 0.369141,-1.732422 h 0.660156 l -0.855468,4.021485 H 19.0625 l 0.08203,-0.744141 h -0.03711 c -0.09002,0.120029 -0.197236,0.244969 -0.322266,0.375 -0.120028,0.12503 -0.259883,0.231386 -0.419922,0.316406 -0.160037,0.08502 -0.341826,0.126953 -0.546875,0.126953 -0.275064,0 -0.488637,-0.0802 -0.638672,-0.240234 -0.150035,-0.160038 -0.239524,-0.377278 -0.269531,-0.652344 h -0.03125 c -0.100024,0.145035 -0.213719,0.287701 -0.34375,0.427735 -0.12503,0.135031 -0.273318,0.247869 -0.443359,0.33789 -0.16504,0.08502 -0.361742,0.126953 -0.591797,0.126953 -0.395094,0 -0.671135,-0.142666 -0.826172,-0.427734 -0.155037,-0.285068 -0.176428,-0.692531 -0.06641,-1.222656 z m 6.496094,0 h 0.660156 l -0.546875,2.550781 c -0.07502,0.340081 -0.07135,0.592774 0.01367,0.757813 0.09002,0.160038 0.253225,0.240234 0.488281,0.240234 0.185044,0 0.372455,-0.06161 0.5625,-0.18164 0.190046,-0.120029 0.365353,-0.311109 0.525391,-0.576172 0.165039,-0.265063 0.292791,-0.618489 0.382812,-1.058594 l 0.367188,-1.732422 h 0.652343 l -0.855468,4.021485 h -0.539063 l 0.08203,-0.744141 h -0.03711 c -0.225054,0.290069 -0.442293,0.500829 -0.652344,0.630859 -0.205048,0.12503 -0.441968,0.1875 -0.707031,0.1875 -0.410097,0 -0.693477,-0.137043 -0.853516,-0.412109 -0.160037,-0.280067 -0.186199,-0.678237 -0.07617,-1.193359 z m 7.34375,0 h 1.53125 l -0.847657,4.021485 h -0.652343 l 0.330078,-1.554688 h -0.654297 l -1.275391,1.554688 h -0.787109 l 1.447266,-1.734375 c -0.260063,-0.100024 -0.450284,-0.260417 -0.570313,-0.480469 -0.120029,-0.220053 -0.149862,-0.473603 -0.08984,-0.763672 0.06502,-0.315075 0.228219,-0.567767 0.488282,-0.757813 0.265062,-0.190044 0.624969,-0.285156 1.080078,-0.285156 z m 2.701172,0 h 0.667968 l -0.533203,2.519531 c -0.07502,0.350083 -0.07784,0.61121 -0.0078,0.78125 0.07002,0.165039 0.221117,0.248047 0.451172,0.248047 0.280066,0 0.547673,-0.138996 0.802734,-0.414062 0.255061,-0.275066 0.446141,-0.715168 0.576172,-1.320313 l 0.390625,-1.814453 h 0.660156 l -0.539062,2.519531 c -0.03501,0.17004 -0.05555,0.336056 -0.06055,0.496094 0,0.155037 0.03545,0.282789 0.105468,0.382813 0.07502,0.100024 0.200817,0.15039 0.38086,0.15039 0.165039,0 0.339488,-0.06161 0.519531,-0.18164 0.185044,-0.120029 0.35754,-0.311109 0.517578,-0.576172 0.160038,-0.265063 0.284979,-0.618489 0.375,-1.058594 l 0.367188,-1.732422 H 37 l -0.599609,2.835938 c -0.06001,0.285067 -0.07688,0.476148 -0.04687,0.576172 0.03501,0.100024 0.130119,0.15039 0.285156,0.15039 0.09502,0 0.189275,-0.0121 0.279297,-0.03711 l -0.330078,1.544922 h -0.646485 l 0.210938,-0.990235 C 35.992301,53.361477 35.871035,53.284091 35.791016,53.164062 35.715998,53.039034 35.682499,52.848811 35.6875,52.59375 h -0.03906 c -0.09002,0.120029 -0.197235,0.244969 -0.322265,0.375 -0.120029,0.12503 -0.259884,0.231386 -0.419922,0.316406 -0.160038,0.08502 -0.341826,0.126953 -0.546875,0.126953 -0.275066,0 -0.488636,-0.0802 -0.638672,-0.240234 -0.150036,-0.160038 -0.239524,-0.377278 -0.269531,-0.652344 h -0.0293 c -0.100024,0.145035 -0.215672,0.287701 -0.345703,0.427735 -0.12503,0.135031 -0.273319,0.247869 -0.44336,0.33789 -0.165038,0.08502 -0.361742,0.126953 -0.591796,0.126953 -0.395095,0 -0.671135,-0.142666 -0.826172,-0.427734 -0.155037,-0.285068 -0.176429,-0.692531 -0.06641,-1.222656 z m 6.601562,0 h 0.660156 l -0.546875,2.550781 c -0.07502,0.340081 -0.07135,0.592774 0.01367,0.757813 0.09002,0.160038 0.253226,0.240234 0.488281,0.240234 0.185045,0 0.372456,-0.06161 0.5625,-0.18164 0.190046,-0.120029 0.365353,-0.311109 0.525391,-0.576172 0.16504,-0.265063 0.292791,-0.618489 0.382813,-1.058594 l 0.367187,-1.732422 h 0.652344 l -0.855469,4.021485 h -0.539062 l 0.08203,-0.744141 h -0.03711 c -0.225053,0.290069 -0.442293,0.500829 -0.652343,0.630859 -0.205049,0.12503 -0.441968,0.1875 -0.707032,0.1875 -0.410096,0 -0.693477,-0.137043 -0.853515,-0.412109 -0.160038,-0.280067 -0.1862,-0.678237 -0.07617,-1.193359 z m 4.306641,0 h 0.660156 l -0.353516,1.6875 h 0.480469 l 1.484375,-1.6875 h 0.744141 l -1.740235,1.949219 0.97461,2.072266 h -0.720703 l -0.802735,-1.779297 h -0.539062 l -0.375,1.779297 h -0.660157 z m 3.630859,0 h 0.660156 l -0.548828,2.550781 c -0.07502,0.340081 -0.06941,0.592774 0.01563,0.757813 0.09002,0.160038 0.253226,0.240234 0.488281,0.240234 0.185045,0 0.372456,-0.06161 0.5625,-0.18164 0.190046,-0.120029 0.3634,-0.311109 0.523438,-0.576172 0.165039,-0.265063 0.292792,-0.618489 0.382812,-1.058594 l 0.369141,-1.732422 h 0.652344 l -0.855469,4.021485 h -0.541016 l 0.08398,-0.744141 h -0.03906 c -0.225052,0.290069 -0.442294,0.500829 -0.652343,0.630859 -0.205049,0.12503 -0.440015,0.1875 -0.705079,0.1875 -0.410096,0 -0.69543,-0.137043 -0.855468,-0.412109 -0.160038,-0.280067 -0.184244,-0.678237 -0.07422,-1.193359 z m 8.175781,0 h 0.660157 l -0.34375,1.671875 h 1.746093 l 0.361328,-1.671875 h 0.660157 l -0.847657,4.021485 h -0.667968 l 0.375,-1.800782 h -1.748047 l -0.382813,1.800782 h -0.667968 z m 8.5,0 h 0.667969 l -0.533203,2.519531 c -0.07502,0.350083 -0.07784,0.61121 -0.0078,0.78125 0.07002,0.165039 0.221118,0.248047 0.451172,0.248047 0.280067,0 0.547674,-0.138996 0.802735,-0.414062 0.25506,-0.275066 0.446141,-0.715168 0.576172,-1.320313 l 0.390625,-1.814453 h 0.660156 l -0.539063,2.519531 c -0.03501,0.17004 -0.05554,0.336056 -0.06055,0.496094 0,0.155037 0.03545,0.282789 0.105469,0.382813 0.07502,0.100024 0.20277,0.15039 0.382813,0.15039 0.165039,0 0.337535,-0.06161 0.517578,-0.18164 0.185044,-0.120029 0.35754,-0.311109 0.517578,-0.576172 0.160038,-0.265063 0.284978,-0.618489 0.375,-1.058594 l 0.367187,-1.732422 h 0.660157 l -0.855469,4.021485 h -0.541016 l 0.08398,-0.744141 h -0.03906 c -0.09002,0.120029 -0.197236,0.244969 -0.322265,0.375 -0.120029,0.12503 -0.259884,0.231386 -0.419922,0.316406 -0.160038,0.08502 -0.341826,0.126953 -0.546875,0.126953 -0.275066,0 -0.488636,-0.0802 -0.638672,-0.240234 -0.150036,-0.160038 -0.239524,-0.377278 -0.269531,-0.652344 h -0.0293 c -0.100024,0.145035 -0.215673,0.287701 -0.345703,0.427735 -0.12503,0.135031 -0.273319,0.247869 -0.44336,0.33789 -0.165039,0.08502 -0.361742,0.126953 -0.591797,0.126953 -0.395093,0 -0.669182,-0.142666 -0.824218,-0.427734 -0.155037,-0.285068 -0.178386,-0.692531 -0.06836,-1.222656 z m 12.603516,0 h 0.660156 l -0.548828,2.550781 c -0.07502,0.340081 -0.06941,0.592774 0.01563,0.757813 0.09002,0.160038 0.253226,0.240234 0.488281,0.240234 0.185045,0 0.372456,-0.06161 0.5625,-0.18164 0.190046,-0.120029 0.365353,-0.311109 0.525391,-0.576172 0.165039,-0.265063 0.290838,-0.618489 0.380859,-1.058594 L 77.9375,49.316406 h 0.652344 l -0.855469,4.021485 h -0.541016 l 0.08398,-0.744141 h -0.03906 c -0.225054,0.290069 -0.442294,0.500829 -0.652344,0.630859 -0.205048,0.12503 -0.440014,0.1875 -0.705078,0.1875 -0.410097,0 -0.695431,-0.137043 -0.855468,-0.412109 -0.160039,-0.280067 -0.184244,-0.678237 -0.07422,-1.193359 z m 7.650391,0 h 0.660156 l -0.34375,1.671875 h 1.748047 l 0.359375,-1.671875 h 0.660156 l -0.847656,4.021485 h -0.667969 l 0.375,-1.800782 h -1.748047 l -0.382812,1.800782 H 82.28125 Z m -70.890625,0.486328 c -0.305073,0.005 -0.569868,0.138376 -0.794922,0.398438 -0.225054,0.260062 -0.39388,0.632072 -0.503906,1.117187 -0.110026,0.480115 -0.113697,0.857747 -0.01367,1.132813 0.105025,0.275066 0.293293,0.414062 0.568359,0.414062 0.285068,0 0.551816,-0.141808 0.796875,-0.421875 0.25006,-0.280066 0.43747,-0.646454 0.5625,-1.101562 0.12503,-0.475114 0.128701,-0.849934 0.01367,-1.125 -0.110026,-0.280067 -0.318834,-0.419064 -0.628906,-0.414063 z m 47.755859,0 c -0.305073,0.005 -0.569868,0.138376 -0.794922,0.398438 -0.225054,0.260062 -0.391927,0.632072 -0.501953,1.117187 -0.110026,0.480115 -0.115644,0.857747 -0.01563,1.132813 0.105025,0.275066 0.295248,0.414062 0.570312,0.414062 0.285069,0 0.549865,-0.141808 0.794922,-0.421875 0.25006,-0.280066 0.437471,-0.646454 0.5625,-1.101562 0.12503,-0.475114 0.130648,-0.849934 0.01563,-1.125 C 60.520833,49.93673 60.310074,49.797733 60,49.802734 Z m 28.716797,0 c -0.25006,0 -0.485026,0.106356 -0.705078,0.316407 -0.215052,0.210049 -0.381925,0.525213 -0.501953,0.945312 h 0.05273 c 0.280067,0 0.536429,-0.02335 0.771484,-0.06836 0.240058,-0.04501 0.438714,-0.116773 0.59375,-0.216797 0.160039,-0.105025 0.25882,-0.24207 0.298828,-0.41211 0.03501,-0.150035 0.0108,-0.280598 -0.07422,-0.390625 -0.08002,-0.115026 -0.225497,-0.173828 -0.435547,-0.173828 z m -59.857422,0.07617 c -0.470112,0 -0.7442,0.190222 -0.824219,0.570313 -0.05001,0.250059 -0.0053,0.443092 0.134766,0.578125 0.145035,0.130031 0.350172,0.193359 0.615234,0.193359 h 0.660156 l 0.285157,-1.341797 z m 43.863281,0.158203 c -0.330078,0 -0.609789,0.119319 -0.839844,0.359375 -0.225052,0.240058 -0.379823,0.575757 -0.464843,1.00586 -0.09002,0.450106 -0.06948,0.807203 0.06055,1.072265 0.135031,0.265064 0.37281,0.396485 0.71289,0.396485 0.330079,0 0.598544,-0.124941 0.808594,-0.375 0.215051,-0.25006 0.371774,-0.601532 0.466797,-1.056641 0.09002,-0.430102 0.07228,-0.771425 -0.05273,-1.021484 -0.125028,-0.255061 -0.356326,-0.38086 -0.691406,-0.38086 z M 6.9316406,50.816406 6.5195312,52.767578 H 7.4355469 C 8.1657206,52.767578 8.582475,52.470141 8.6875,51.875 8.7475142,51.534919 8.685044,51.273793 8.5,51.09375 8.3199572,50.908706 8.0318128,50.816406 7.6367187,50.816406 Z m 42.9707034,1.650391 h 0.720703 l 0.0293,0.08203 c -0.12503,0.265063 -0.276988,0.556019 -0.457032,0.871094 -0.180042,0.315075 -0.358161,0.6097 -0.533203,0.884765 h -0.501953 c 0.130031,-0.29507 0.261452,-0.610232 0.396485,-0.945312 0.135031,-0.33508 0.25068,-0.632516 0.345703,-0.892578 z"
       style="display:inline;fill:#000000"
       id="path6" /><text
       xml:space="preserve"
       id="Invoice"
       style="font-style:normal;font-variant:normal;font-weight:normal;font-stretch:normal;font-size:26.6667px;line-height:2.6;font-family:'Nimbus Mono PS';-inkscape-font-specification:'Nimbus Mono PS';text-align:center;white-space:pre;shape-inside:url(#rect4);display:inline;fill:#000000"
       transform="matrix(1.0691643,0,0,1.1210031,-11.914897,0.28629602)"
       inkscape:label="Invoice"><tspan
         x="107.72936"
         y="37.503223"
         id="tspan1"></tspan></text></g></svg>
