<?xml version="1.0" encoding="UTF-8" standalone="no"?>
<svg
   width="256"
   height="64"
   viewBox="0 0 256 64"
   fill="none"
   version="1.1"
   id="svg4"
   sodipodi:docname="paper_heading_cargo_invoice.svg"
   inkscape:version="1.3.2 (091e20ef0f, 2023-11-25, custom)"
   inkscape:export-filename="paper_heading_cargo_invoice.svg.96dpi.png"
   inkscape:export-xdpi="96"
   inkscape:export-ydpi="96"
   xml:space="preserve"
   xmlns:inkscape="http://www.inkscape.org/namespaces/inkscape"
   xmlns:sodipodi="http://sodipodi.sourceforge.net/DTD/sodipodi-0.dtd"
   xmlns="http://www.w3.org/2000/svg"
   xmlns:svg="http://www.w3.org/2000/svg"
   xmlns:rdf="http://www.w3.org/1999/02/22-rdf-syntax-ns#"
   xmlns:cc="http://creativecommons.org/ns#"
   xmlns:dc="http://purl.org/dc/elements/1.1/"><metadata
     id="metadata10"><rdf:RDF><cc:Work
         rdf:about=""><dc:format>image/svg+xml</dc:format><dc:type
           rdf:resource="http://purl.org/dc/dcmitype/StillImage" /></cc:Work></rdf:RDF></metadata><defs
     id="defs8"><rect
       x="7.373055"
       y="14.345875"
       width="83.02699"
       height="30.225146"
       id="rect8" /><rect
       x="5.6275416"
       y="14.776046"
       width="83.943453"
       height="31.919539"
       id="rect7" /><rect
       x="103.68167"
       y="0.089865061"
       width="152.09662"
       height="64.060426"
       id="rect4" /><rect
       x="98.880199"
       y="0.41303194"
       width="156.98905"
       height="63.470382"
       id="rect3" /><rect
       x="108.17342"
       y="11.654646"
       width="126.81237"
       height="39.820726"
       id="rect1" /><inkscape:path-effect
       effect="powermask"
       id="path-effect537"
       is_visible="true"
       lpeversion="1"
       uri="#mask-powermask-path-effect537"
       invert="false"
       hide_mask="false"
       background="true"
       background_color="#ffffffff" /><rect
       x="-696.29968"
       y="-43.388832"
       width="637.4054"
       height="131.45215"
       id="rect3263" /><inkscape:path-effect
       effect="powermask"
       id="path-effect1533"
       is_visible="true"
       lpeversion="1"
       uri="#mask-powermask-path-effect1533"
       invert="false"
       hide_mask="false"
       background="true"
       background_color="#ffffffff" /><rect
       x="-111.73019"
       y="-119.49218"
       width="354.099"
       height="119.49218"
       id="rect452" /><rect
       x="12.500253"
       y="14.598581"
       width="334.51892"
       height="47.488827"
       id="rect348" /><mask
       maskUnits="userSpaceOnUse"
       id="mask-powermask-path-effect537"><path
         id="mask-powermask-path-effect537_box"
         style="fill:#ffffff;fill-opacity:1"
         d="m -156.82688,-214.98718 h 376.0737 V 28.676595 h -376.0737 z" /><g
         id="g535"
         transform="matrix(1.0402092,0,0,1.0402092,-2.8656518,12.311957)"
         style="fill:#552200"><g
           aria-label="Cargo"
           transform="matrix(2.6010044,0,0,2.6010044,161.5879,145.13955)"
           id="g487"
           style="font-size:40px;line-height:1.25;white-space:pre;shape-inside:url(#rect452);fill:#552200"><path
             d="m -84.210469,-90.85718 c -1.24,1.56 -1.96,2.36 -2.96,3.12 -2,1.56 -4.64,2.44 -7.32,2.44 -6.880001,0 -12.480001,-5.64 -12.480001,-12.6 0,-7.12 5.36,-12.56 12.440001,-12.56 2.56,0 4.96,0.68 6.92,2 1.32,0.84 2.12,1.72 3.24,3.48 h 3.32 c -2.28,-5.08 -7.48,-8.2 -13.6,-8.2 -8.800001,0 -15.320001,6.56 -15.320001,15.4 0,8.68 6.68,15.2 15.520001,15.2 6,0 10.56,-2.8 13.52,-8.28 z"
             style="font-family:'URW Gothic';-inkscape-font-specification:'URW Gothic';fill:#552200"
             id="path477" /><path
             d="m -54.570468,-104.97718 h -2.96 v 3.88 c -2.2,-3.04 -4.84,-4.4 -8.64,-4.4 -6.56,0 -11.52,4.96 -11.52,11.52 0,6.56 5,11.4 11.76,11.4 3.72,0 6.04,-1.2 8.4,-4.36 v 3.84 h 2.96 z m -11.52,2.2 c 4.84,0 8.56,3.76 8.56,8.64 0,5 -3.68,8.84 -8.4,8.84 -4.96,0 -8.76,-3.88 -8.76,-8.88 0,-4.76 3.84,-8.6 8.6,-8.6 z"
             style="font-family:'URW Gothic';-inkscape-font-specification:'URW Gothic';fill:#552200"
             id="path479" /><path
             d="m -49.530446,-83.09718 h 2.96 v -12.76 c -0.04,-3.96 2.16,-6.4 6.2,-6.72 v -2.92 c -3.16,0.16 -5.04,1.24 -6.2,3.64 v -3.12 h -2.96 z"
             style="font-family:'URW Gothic';-inkscape-font-specification:'URW Gothic';fill:#552200"
             id="path481" /><path
             d="m -16.490396,-104.97718 h -2.96 v 3.88 c -2.2,-3.04 -4.88,-4.4 -8.6,-4.4 -6.4,0 -11.16,4.96 -11.16,11.56 0,6.4 4.96,11.36 11.4,11.36 3.96,0 6.64,-1.6 8.36,-4.96 v 1.48 c 0,2.16 -0.24,3.52 -0.88,4.88 -1.16,2.52 -3.76,3.96 -7.16,3.96 -2.44,0 -4.32,-0.72 -5.88,-2.2 -0.76,-0.68 -1.24,-1.36 -2.16,-3 h -2.88 c 1.6,5.12 5.48,7.92 11,7.92 3.8,0 7,-1.44 8.88,-3.92 1.48,-2 2.04,-4.32 2.04,-8.6 z m -11.36,2.2 c 4.72,0 8.4,3.72 8.4,8.48 0,5.12 -3.6,9 -8.36,9 -4.8,0 -8.4,-3.8 -8.4,-8.88 0,-5 3.52,-8.6 8.36,-8.6 z"
             style="font-family:'URW Gothic';-inkscape-font-specification:'URW Gothic';fill:#552200"
             id="path483" /><path
             d="m -0.53038391,-105.49718 c -6.51999999,0 -11.48000009,4.92 -11.48000009,11.32 0,6.76 4.9200001,11.6 11.72000009,11.6 6.40000001,0 11.11999991,-4.84 11.11999991,-11.4 0,-6.68 -4.7599999,-11.52 -11.35999991,-11.52 z m 0,2.72 c 4.84000001,0 8.36000001,3.72 8.36000001,8.84 0,5.04 -3.44,8.64 -8.20000001,8.64 -5.03999999,0 -8.63999999,-3.64 -8.63999999,-8.8 0,-4.96 3.64,-8.68 8.47999999,-8.68 z"
             style="font-family:'URW Gothic';-inkscape-font-specification:'URW Gothic';fill:#552200"
             id="path485" /></g><g
           aria-label="Your crates, our business"
           id="g533"
           style="font-size:32.6668px;line-height:1.25;fill:#552200;stroke-width:0.816671"><path
             d="m -118.78331,-35.723892 6.63544,-11.627977 h 3.36558 l -9.04399,14.738342 -1.46745,8.485712 h -2.85516 l 1.54721,-8.836625 -3.84409,-14.387429 h 3.09441 z"
             style="font-style:italic;font-family:'Roboto Condensed';-inkscape-font-specification:'Roboto Condensed, ';fill:#552200"
             id="path489" /><path
             d="m -110.10619,-33.522711 q 0.52637,-3.716486 2.53614,-5.98147 2.02572,-2.280934 5.10419,-2.201181 1.91407,0.04785 3.190115,1.116541 1.276047,1.052739 1.818366,2.918958 0.558271,1.866218 0.303062,4.115251 l -0.191407,1.62696 q -0.52637,3.700536 -2.552094,5.949569 -2.025722,2.249032 -5.088242,2.169279 -1.91407,-0.04785 -3.19011,-1.10059 -1.27605,-1.052739 -1.83432,-2.918957 -0.54232,-1.866219 -0.28711,-4.099301 z m 2.47234,2.759452 q -0.0479,2.137378 0.65397,3.317722 0.71778,1.180343 2.15333,1.244145 1.85027,0.07975 3.06251,-1.307948 1.21225,-1.403651 1.62696,-4.195004 l 0.239262,-1.866219 0.07975,-1.148442 q 0.04785,-2.153329 -0.685872,-3.333672 -0.71778,-1.180344 -2.13738,-1.244146 -1.88217,-0.07975 -3.14226,1.563157 -1.24415,1.62696 -1.61101,4.529967 l -0.19141,1.579108 z"
             style="font-style:italic;font-family:'Roboto Condensed';-inkscape-font-specification:'Roboto Condensed, ';fill:#552200"
             id="path491" /><path
             d="m -86.228166,-25.643121 q -1.674811,1.91407 -4.131202,1.850268 -1.834317,-0.0319 -2.823253,-1.339849 -0.972986,-1.307948 -0.972986,-3.652685 l 0.07975,-1.451503 1.866218,-11.14946 h 2.727551 l -1.850268,11.197312 -0.0638,1.164393 q -0.0638,1.164392 0.366864,1.930021 0.446616,0.749677 1.323898,0.781578 2.312836,0.111654 3.79624,-2.280934 l 2.201181,-12.79237 h 2.759452 l -2.98276,17.258535 h -2.599946 z"
             style="font-style:italic;font-family:'Roboto Condensed';-inkscape-font-specification:'Roboto Condensed, ';fill:#552200"
             id="path493" /><path
             d="m -70.134024,-38.754503 q -0.685875,-0.143555 -1.228195,-0.143555 -2.089527,0 -3.445327,2.408538 l -2.137378,12.361705 h -2.759452 l 2.99871,-17.258535 2.663748,-0.01595 -0.382814,1.770516 q 1.515306,-2.15333 3.413426,-2.105478 0.382814,0.01595 1.180343,0.239259 z"
             style="font-style:italic;font-family:'Roboto Condensed';-inkscape-font-specification:'Roboto Condensed, ';fill:#552200"
             id="path495" /><path
             d="m -56.257015,-26.185441 q 1.3558,0.04785 2.280934,-0.845381 0.925134,-0.893233 1.291998,-2.520193 l 2.599945,-0.01595 q -0.366863,2.552094 -2.153329,4.195004 -1.786466,1.64291 -4.179054,1.579108 -2.280933,-0.04785 -3.636733,-1.37175 -1.3558,-1.323899 -1.62696,-3.716487 -0.159506,-1.435553 0.01595,-2.887056 l 0.223309,-1.738614 q 0.526369,-4.035499 2.45639,-6.156927 1.945972,-2.121428 5.056336,-2.041675 2.392588,0.0638 3.700536,1.754565 1.323899,1.690762 1.212245,4.514016 l -2.599946,-0.01595 q 0.0957,-3.748388 -2.472341,-3.844091 -3.748388,-0.143555 -4.529967,5.343446 -0.494468,3.397475 -0.398764,4.625671 0.159506,3.094413 2.759451,3.142265 z"
             style="font-style:italic;font-family:'Roboto Condensed';-inkscape-font-specification:'Roboto Condensed, ';fill:#552200"
             id="path497" /><path
             d="m -38.121195,-38.754503 q -0.685875,-0.143555 -1.228195,-0.143555 -2.089527,0 -3.445327,2.408538 l -2.137379,12.361705 h -2.759451 l 2.99871,-17.258535 2.663748,-0.01595 -0.382814,1.770516 q 1.515306,-2.15333 3.413426,-2.105478 0.382814,0.01595 1.180343,0.239259 z"
             style="font-style:italic;font-family:'Roboto Condensed';-inkscape-font-specification:'Roboto Condensed, ';fill:#552200"
             id="path499" /><path
             d="m -29.68334,-24.127815 q -0.0957,-0.478518 -0.07975,-0.941085 l 0.0638,-0.941084 q -1.834318,2.217131 -3.955746,2.217131 -2.073576,0 -3.237969,-1.339849 -1.148442,-1.3558 -1.020837,-3.572932 0.175456,-2.679698 2.201181,-4.290707 2.041675,-1.61101 5.343446,-1.61101 h 1.914071 l 0.27116,-1.834317 q 0.28711,-2.855155 -2.15333,-2.855155 -1.260096,0 -2.105477,0.749677 -0.829431,0.733727 -1.052739,1.930021 l -2.72755,0.01595 q 0.207358,-2.18523 1.977873,-3.668635 1.786465,-1.483404 4.195004,-1.451503 2.328786,0.0319 3.572931,1.435552 1.260097,1.387702 1.020838,3.891944 l -1.403652,8.501662 q -0.143555,0.909184 -0.111654,1.738614 l 0.0957,1.754565 -0.0319,0.27116 z m -3.397474,-2.217132 q 2.073576,0 3.572931,-2.025724 l 0.717776,-4.131202 -1.260096,-0.01595 q -1.62696,0 -2.887056,0.606122 -1.260097,0.590172 -1.786466,1.658861 -0.510419,1.052739 -0.350913,2.296885 0.207358,1.611009 1.993824,1.611009 z"
             style="font-style:italic;font-family:'Roboto Condensed';-inkscape-font-specification:'Roboto Condensed, ';fill:#552200"
             id="path501" /><path
             d="m -15.854178,-45.565404 -0.733727,4.179054 h 2.536143 l -0.398764,2.280934 h -2.520193 l -1.818367,10.734745 -0.0319,0.638023 q -0.0638,1.3558 0.972986,1.3558 0.382814,0.01595 1.148442,-0.159506 l -0.239259,2.408539 q -0.893233,0.319011 -1.802416,0.28711 -1.451504,0 -2.185231,-1.196294 -0.733727,-1.196294 -0.54232,-3.381524 l 1.754565,-10.686893 h -2.568045 l 0.414716,-2.280934 h 2.536143 l 0.733727,-4.179054 z"
             style="font-style:italic;font-family:'Roboto Condensed';-inkscape-font-specification:'Roboto Condensed, ';fill:#552200"
             id="path503" /><path
             d="m -7.2249119,-23.808804 q -2.9030071,-0.0319 -4.3385591,-2.089526 -1.435553,-2.057626 -1.052739,-5.614607 l 0.207357,-1.706713 q 0.494469,-4.019547 2.4404402,-6.284531 1.9619222,-2.280934 4.9765831,-2.201181 2.4563903,0.0638 3.6845855,1.690762 1.24414572,1.61101 1.18034338,4.545918 l -0.14355528,1.91407 -0.2392588,1.64291 -9.2513403,-0.01595 q -0.2073576,1.435553 -0.191407,2.249033 0.031901,1.611009 0.7975293,2.536143 0.7656282,0.909183 2.1852304,0.925134 1.0208376,0.0319 2.0097739,-0.398765 1.004887,-0.446616 2.1054775,-1.547207 l 1.2919975,1.802417 q -1.0208376,1.339849 -2.5201927,1.961922 -1.4993552,0.622073 -3.1422656,0.590171 z m 2.0576257,-15.488019 q -2.8232538,-0.127605 -3.9557455,3.413425 l -0.4306658,1.547207 6.6194934,0.01595 0.079753,-0.414715 q 0.095703,-0.733727 0.095703,-1.531257 -0.063802,-2.903006 -2.4085386,-3.030611 z"
             style="font-style:italic;font-family:'Roboto Condensed';-inkscape-font-specification:'Roboto Condensed, ';fill:#552200"
             id="path505" /><path
             d="m 10.320735,-28.673732 q 0.207358,-1.515306 -1.690762,-2.520193 l -2.1373786,-1.116541 q -1.6588611,-0.925134 -2.3287857,-1.961922 -0.6539741,-1.036788 -0.5742211,-2.408539 0.1276047,-2.18523 1.7864657,-3.620783 1.658861,-1.435553 4.051449,-1.403652 2.3128347,0.0638 3.6207827,1.531257 1.307949,1.451503 1.212245,3.716486 h -2.72755 q 0.0319,-1.291997 -0.574221,-2.025724 -0.606123,-0.749678 -1.6907626,-0.781579 -1.2281951,0 -2.0257245,0.701826 -0.7975293,0.685875 -0.9570352,1.786466 -0.191407,1.291997 1.2600964,2.121428 l 2.6956489,1.37175 q 2.98276,1.658861 2.823254,4.402362 -0.159506,2.344736 -1.882169,3.748388 -1.7226635,1.387701 -4.1950045,1.323898 -2.3766374,-0.0319 -3.8600419,-1.547206 -1.4834046,-1.531257 -1.3877011,-3.939795 l 2.7754021,0.01595 q -0.031901,1.499355 0.6539741,2.280934 0.6858752,0.765628 1.9459715,0.765628 1.3238987,0 2.1852304,-0.669924 0.8772824,-0.669925 1.0208374,-1.770515 z"
             style="font-style:italic;font-family:'Roboto Condensed';-inkscape-font-specification:'Roboto Condensed, ';fill:#552200"
             id="path507" /><path
             d="m 15.408973,-19.486195 -1.658861,-1.196294 q 1.850268,-2.280933 2.296885,-4.529966 l 0.414715,-2.408539 h 2.823254 l -0.334963,2.153329 q -0.574221,3.636734 -3.54103,5.98147 z"
             style="font-style:italic;font-family:'Roboto Condensed';-inkscape-font-specification:'Roboto Condensed, ';fill:#552200"
             id="path509" /><path
             d="m 30.84914,-33.522711 q 0.526369,-3.716486 2.536143,-5.98147 2.025725,-2.280934 5.104188,-2.201181 1.91407,0.04785 3.190117,1.116541 1.276047,1.052739 1.818367,2.918958 0.558271,1.866218 0.303061,4.115251 l -0.191407,1.62696 q -0.526369,3.700536 -2.552094,5.949569 -2.025724,2.249032 -5.088237,2.169279 -1.91407,-0.04785 -3.190117,-1.10059 -1.276047,-1.052739 -1.834317,-2.918957 -0.54232,-1.866219 -0.287111,-4.099301 z m 2.472341,2.759452 q -0.04785,2.137378 0.653974,3.317722 0.717776,1.180343 2.153329,1.244145 1.850268,0.07975 3.062513,-1.307948 1.212244,-1.403651 1.62696,-4.195004 l 0.239258,-1.866219 0.07975,-1.148442 q 0.04785,-2.153329 -0.685875,-3.333672 -0.717776,-1.180344 -2.137378,-1.244146 -1.88217,-0.07975 -3.142266,1.563157 -1.244146,1.62696 -1.611009,4.529967 l -0.191407,1.579108 z"
             style="font-style:italic;font-family:'Roboto Condensed';-inkscape-font-specification:'Roboto Condensed, ';fill:#552200"
             id="path511" /><path
             d="m 54.727168,-25.643121 q -1.674812,1.91407 -4.131202,1.850268 -1.834317,-0.0319 -2.823254,-1.339849 -0.972986,-1.307948 -0.972986,-3.652685 l 0.07975,-1.451503 1.866219,-11.14946 h 2.72755 l -1.850268,11.197312 -0.0638,1.164393 q -0.0638,1.164392 0.366863,1.930021 0.446617,0.749677 1.323899,0.781578 2.312835,0.111654 3.79624,-2.280934 l 2.201181,-12.79237 h 2.759451 l -2.982759,17.258535 h -2.599946 z"
             style="font-style:italic;font-family:'Roboto Condensed';-inkscape-font-specification:'Roboto Condensed, ';fill:#552200"
             id="path513" /><path
             d="m 70.821302,-38.754503 q -0.685875,-0.143555 -1.228195,-0.143555 -2.089527,0 -3.445327,2.408538 l -2.137378,12.361705 H 61.25095 l 2.99871,-17.258535 2.663748,-0.01595 -0.382814,1.770516 q 1.515306,-2.15333 3.413426,-2.105478 0.382814,0.01595 1.180343,0.239259 z"
             style="font-style:italic;font-family:'Roboto Condensed';-inkscape-font-specification:'Roboto Condensed, ';fill:#552200"
             id="path515" /><path
             d="m 85.352297,-23.808804 q -2.647797,-0.0957 -3.748388,-2.376637 l -0.590172,2.057626 h -2.536143 l 4.258807,-24.500101 h 2.743501 l -1.738614,9.139686 q 1.706712,-2.280934 4.115251,-2.217132 2.249033,0.0319 3.381524,1.658861 1.148443,1.61101 1.08464,4.705423 -0.0638,1.706713 -0.382814,3.812191 -0.319012,2.105477 -0.941084,3.604832 -1.738614,4.226906 -5.646508,4.115251 z m 4.258807,-12.186248 q -0.07975,-1.674811 -0.733727,-2.440439 -0.653975,-0.765629 -1.89812,-0.79753 -2.025725,-0.04785 -3.556981,2.376638 l -1.403652,8.246453 q 0.749678,2.249033 2.775402,2.328786 1.866219,0.07975 2.998711,-1.307949 1.132491,-1.403651 1.483404,-4.418312 0.366864,-3.030612 0.334963,-3.987647 z"
             style="font-style:italic;font-family:'Roboto Condensed';-inkscape-font-specification:'Roboto Condensed, ';fill:#552200"
             id="path517" /><path
             d="m 103.201,-25.643121 q -1.67481,1.91407 -4.131203,1.850268 -1.834317,-0.0319 -2.823254,-1.339849 -0.972985,-1.307948 -0.972985,-3.652685 l 0.07975,-1.451503 1.866218,-11.14946 h 2.727551 l -1.850268,11.197312 -0.0638,1.164393 q -0.0638,1.164392 0.366864,1.930021 0.446616,0.749677 1.323898,0.781578 2.312839,0.111654 3.796239,-2.280934 l 2.20118,-12.79237 h 2.75945 l -2.98276,17.258535 h -2.59994 z"
             style="font-style:italic;font-family:'Roboto Condensed';-inkscape-font-specification:'Roboto Condensed, ';fill:#552200"
             id="path519" /><path
             d="m 118.72091,-28.673732 q 0.20736,-1.515306 -1.69076,-2.520193 l -2.13738,-1.116541 q -1.65886,-0.925134 -2.32878,-1.961922 -0.65398,-1.036788 -0.57423,-2.408539 0.12761,-2.18523 1.78647,-3.620783 1.65886,-1.435553 4.05145,-1.403652 2.31283,0.0638 3.62078,1.531257 1.30795,1.451503 1.21225,3.716486 h -2.72755 q 0.0319,-1.291997 -0.57422,-2.025724 -0.60613,-0.749678 -1.69077,-0.781579 -1.22819,0 -2.02572,0.701826 -0.79753,0.685875 -0.95704,1.786466 -0.1914,1.291997 1.2601,2.121428 l 2.69565,1.37175 q 2.98276,1.658861 2.82325,4.402362 -0.1595,2.344736 -1.88217,3.748388 -1.72266,1.387701 -4.195,1.323898 -2.37664,-0.0319 -3.86004,-1.547206 -1.48341,-1.531257 -1.3877,-3.939795 l 2.7754,0.01595 q -0.0319,1.499355 0.65397,2.280934 0.68588,0.765628 1.94597,0.765628 1.3239,0 2.18523,-0.669924 0.87729,-0.669925 1.02084,-1.770515 z"
             style="font-style:italic;font-family:'Roboto Condensed';-inkscape-font-specification:'Roboto Condensed, ';fill:#552200"
             id="path521" /><path
             d="m 127.30233,-24.127815 h -2.75945 l 2.99871,-17.258535 h 2.75945 z m 0.87728,-21.820403 q 0.0319,-0.685875 0.44662,-1.196294 0.41471,-0.510419 1.13249,-0.54232 0.68587,-0.0319 1.13249,0.462567 0.44662,0.494468 0.41472,1.228195 -0.0319,0.701826 -0.46257,1.212245 -0.41472,0.494468 -1.13249,0.510419 -0.70183,0.0319 -1.13249,-0.462567 -0.43067,-0.494468 -0.39877,-1.212245 z"
             style="font-style:italic;font-family:'Roboto Condensed';-inkscape-font-specification:'Roboto Condensed, ';fill:#552200"
             id="path523" /><path
             d="m 137.3193,-41.402301 -0.36687,1.88217 q 1.88217,-2.217132 4.27476,-2.185231 1.64291,0.01595 2.59995,1.116541 0.97298,1.100591 1.10059,2.998711 0.0638,1.10059 -0.0479,2.153329 l -1.88216,11.308966 h -2.74351 l 1.89812,-11.356818 0.0638,-1.260096 q 0,-2.44044 -2.00978,-2.488292 -1.64291,-0.04785 -3.06251,1.866219 l -0.47852,0.685875 -2.16928,12.553112 h -2.75945 l 2.99871,-17.258535 z"
             style="font-style:italic;font-family:'Roboto Condensed';-inkscape-font-specification:'Roboto Condensed, ';fill:#552200"
             id="path525" /><path
             d="m 153.66867,-23.808804 q -2.90301,-0.0319 -4.33856,-2.089526 -1.43556,-2.057626 -1.05274,-5.614607 l 0.20736,-1.706713 q 0.49446,-4.019547 2.44043,-6.284531 1.96193,-2.280934 4.97659,-2.201181 2.45639,0.0638 3.68458,1.690762 1.24415,1.61101 1.18035,4.545918 l -0.14356,1.91407 -0.23926,1.64291 -9.25134,-0.01595 q -0.20736,1.435553 -0.1914,2.249033 0.0319,1.611009 0.79752,2.536143 0.76563,0.909183 2.18524,0.925134 1.02083,0.0319 2.00977,-0.398765 1.00489,-0.446616 2.10548,-1.547207 l 1.29199,1.802417 q -1.02083,1.339849 -2.52019,1.961922 -1.49935,0.622073 -3.14226,0.590171 z m 2.05762,-15.488019 q -2.82325,-0.127605 -3.95574,3.413425 l -0.43067,1.547207 6.61949,0.01595 0.0798,-0.414715 q 0.0957,-0.733727 0.0957,-1.531257 -0.0638,-2.903006 -2.40854,-3.030611 z"
             style="font-style:italic;font-family:'Roboto Condensed';-inkscape-font-specification:'Roboto Condensed, ';fill:#552200"
             id="path527" /><path
             d="m 171.21429,-28.673732 q 0.20736,-1.515306 -1.69076,-2.520193 l -2.13738,-1.116541 q -1.65886,-0.925134 -2.32879,-1.961922 -0.65397,-1.036788 -0.57422,-2.408539 0.12761,-2.18523 1.78647,-3.620783 1.65886,-1.435553 4.05145,-1.403652 2.31283,0.0638 3.62078,1.531257 1.30795,1.451503 1.21224,3.716486 h -2.72755 q 0.0319,-1.291997 -0.57422,-2.025724 -0.60612,-0.749678 -1.69076,-0.781579 -1.22819,0 -2.02572,0.701826 -0.79753,0.685875 -0.95704,1.786466 -0.19141,1.291997 1.2601,2.121428 l 2.69565,1.37175 q 2.98276,1.658861 2.82325,4.402362 -0.15951,2.344736 -1.88217,3.748388 -1.72266,1.387701 -4.195,1.323898 -2.37664,-0.0319 -3.86004,-1.547206 -1.48341,-1.531257 -1.38771,-3.939795 l 2.77541,0.01595 q -0.0319,1.499355 0.65397,2.280934 0.68588,0.765628 1.94597,0.765628 1.3239,0 2.18523,-0.669924 0.87728,-0.669925 1.02084,-1.770515 z"
             style="font-style:italic;font-family:'Roboto Condensed';-inkscape-font-specification:'Roboto Condensed, ';fill:#552200"
             id="path529" /><path
             d="m 185.80908,-28.673732 q 0.20736,-1.515306 -1.69076,-2.520193 l -2.13738,-1.116541 q -1.65886,-0.925134 -2.32879,-1.961922 -0.65397,-1.036788 -0.57422,-2.408539 0.1276,-2.18523 1.78647,-3.620783 1.65886,-1.435553 4.05144,-1.403652 2.31284,0.0638 3.62079,1.531257 1.30795,1.451503 1.21224,3.716486 h -2.72755 q 0.0319,-1.291997 -0.57422,-2.025724 -0.60612,-0.749678 -1.69076,-0.781579 -1.2282,0 -2.02573,0.701826 -0.79753,0.685875 -0.95703,1.786466 -0.19141,1.291997 1.2601,2.121428 l 2.69564,1.37175 q 2.98276,1.658861 2.82326,4.402362 -0.15951,2.344736 -1.88217,3.748388 -1.72266,1.387701 -4.19501,1.323898 -2.37663,-0.0319 -3.86004,-1.547206 -1.4834,-1.531257 -1.3877,-3.939795 l 2.7754,0.01595 q -0.0319,1.499355 0.65398,2.280934 0.68587,0.765628 1.94597,0.765628 1.3239,0 2.18523,-0.669924 0.87728,-0.669925 1.02084,-1.770515 z"
             style="font-style:italic;font-family:'Roboto Condensed';-inkscape-font-specification:'Roboto Condensed, ';fill:#552200"
             id="path531" /></g></g></mask><filter
       id="mask-powermask-path-effect537_inverse"
       inkscape:label="filtermask-powermask-path-effect537"
       style="color-interpolation-filters:sRGB"
       height="100"
       width="100"
       x="-50"
       y="-50"><feColorMatrix
         id="mask-powermask-path-effect537_primitive1"
         values="1"
         type="saturate"
         result="fbSourceGraphic" /><feColorMatrix
         id="mask-powermask-path-effect537_primitive2"
         values="-1 0 0 0 1 0 -1 0 0 1 0 0 -1 0 1 0 0 0 1 0 "
         in="fbSourceGraphic" /></filter><rect
       x="7.373055"
       y="14.345875"
       width="83.026993"
       height="30.225145"
       id="rect8-7" /></defs><sodipodi:namedview
     pagecolor="#ffffff"
     bordercolor="#666666"
     borderopacity="1"
     objecttolerance="10"
     gridtolerance="10"
     guidetolerance="10"
     inkscape:pageopacity="0"
     inkscape:pageshadow="2"
     inkscape:window-width="1920"
     inkscape:window-height="1044"
     id="namedview6"
     showgrid="false"
     inkscape:snap-bbox="true"
     inkscape:bbox-paths="false"
     inkscape:bbox-nodes="true"
     inkscape:snap-object-midpoints="false"
     inkscape:snap-nodes="false"
     inkscape:snap-page="true"
     inkscape:zoom="5.6568544"
     inkscape:cx="84.852812"
     inkscape:cy="35.178561"
     inkscape:window-x="0"
     inkscape:window-y="0"
     inkscape:window-maximized="1"
     inkscape:current-layer="layer5"
     inkscape:showpageshadow="2"
     inkscape:pagecheckerboard="0"
     inkscape:deskcolor="#d1d1d1" /><g
     inkscape:groupmode="layer"
     id="layer5"
     inkscape:label="CrateOutline"
     style="display:inline"><path
       d="M 9.1855469,19.095703 V 40.667969 H 11.351563 V 19.095703 Z m 11.9492191,0 -8.31836,10.515625 8.572266,11.056641 h 2.677734 L 15.398438,29.388672 23.714844,19.095703 Z m 11.853515,5.226563 c -4.907162,0 -8.507812,3.536701 -8.507812,8.316406 0,4.779702 3.66438,8.412109 8.507812,8.412109 2.708503,0 4.684725,-1.083307 6.246094,-3.345703 h 0.0625 v 2.962891 h 2.039062 V 24.705078 h -2.039062 v 2.771484 h -0.0625 c -1.593234,-2.230523 -3.442,-3.154296 -6.246094,-3.154296 z m 20.425781,0 c -2.676631,0 -4.588518,0.956253 -6.277343,3.123046 h -0.06445 v -2.740234 h -2.039063 v 21.572266 h 2.166016 v -8.572266 h 0.06445 c 1.338317,2.230531 3.377441,3.345703 6.085937,3.345703 4.8753,0 8.539063,-3.537931 8.539063,-8.253906 0,-4.875297 -3.599305,-8.474609 -8.47461,-8.474609 z m 29.060547,0 c -4.684107,0 -8.285156,3.664884 -8.285156,8.380859 0,4.715975 3.599819,8.347656 8.347656,8.347656 4.715979,0 8.34961,-3.631681 8.34961,-8.347656 0,-4.779702 -3.600536,-8.380859 -8.41211,-8.380859 z m -17.558593,0.382812 v 15.962891 h 2.167968 V 26.648437 h 6.150391 v -1.943359 z m -31.896485,1.560547 c 3.505119,0 6.277344,2.867426 6.277344,6.5 0,3.536979 -2.772225,6.341797 -6.277344,6.341797 -3.536979,0 -6.373047,-2.804203 -6.373047,-6.373047 0,-3.632574 2.772338,-6.46875 6.373047,-6.46875 z m 20.394531,0 c 3.536984,0 6.308594,2.836176 6.308594,6.46875 0,3.568844 -2.803583,6.373047 -6.404297,6.373047 -3.568841,0 -6.246093,-2.709223 -6.246093,-6.341797 0,-3.696305 2.74109,-6.5 6.341796,-6.5 z m 29.15625,0 c 3.505119,0 6.150391,2.77306 6.150391,6.4375 0,3.66444 -2.64661,6.404297 -6.183594,6.404297 -3.536979,0 -6.18164,-2.739857 -6.18164,-6.404297 0,-3.696305 2.646002,-6.4375 6.214843,-6.4375 z m -2.376953,19.675781 c -0.191997,0 -0.38913,0.02179 -0.591797,0.06445 -0.202664,0.04267 -0.378011,0.101115 -0.527343,0.175782 l 0.207031,0.552734 c 0.298665,-0.133333 0.59038,-0.201172 0.873047,-0.201172 0.426664,0 0.730777,0.157992 0.912109,0.472656 0.181333,0.314667 0.271485,0.796602 0.271485,1.447266 v 0.0957 c 0,0.03733 -0.0025,0.07843 -0.0078,0.121094 h -0.02344 c -0.096,-0.176 -0.237162,-0.331511 -0.423829,-0.464844 -0.186664,-0.138666 -0.439766,-0.207031 -0.759765,-0.207031 -0.362665,0 -0.678646,0.09015 -0.945313,0.271484 -0.266664,0.176 -0.483104,0.411747 -0.648437,0.705078 -0.165333,0.288 -0.284709,0.597068 -0.359375,0.927735 -0.05333,0.266664 -0.07512,0.534643 -0.06445,0.80664 0.016,0.266667 0.07888,0.512331 0.185547,0.736328 0.106665,0.218667 0.265183,0.398443 0.478515,0.53711 0.213333,0.133333 0.490701,0.199219 0.832031,0.199219 0.330667,0 0.622383,-0.06837 0.873047,-0.207032 0.256,-0.138664 0.474919,-0.32588 0.65625,-0.560547 0.186667,-0.234664 0.337746,-0.492725 0.455078,-0.77539 0.117333,-0.288 0.207485,-0.579715 0.271485,-0.873047 0.181333,-0.853329 0.227384,-1.561622 0.136719,-2.126953 -0.08533,-0.565332 -0.282466,-0.990771 -0.591797,-1.273438 -0.309333,-0.282664 -0.712986,-0.423828 -1.208985,-0.423828 z M 6.1542969,46.390625 4.9453125,52.101562 h 1.6972656 c 0.6346643,10e-7 1.1359076,-0.119376 1.5039063,-0.359375 0.3733317,-0.245332 0.6021669,-0.602934 0.6875,-1.072265 0.138666,-0.773331 -0.1897116,-1.269617 -0.984375,-1.488281 l 0.00781,-0.03906 c 0.7573303,-0.08 1.2095161,-0.456909 1.3535156,-1.128906 C 9.3176063,47.523004 9.2106238,47.131222 8.890625,46.837891 8.5759595,46.539224 8.060367,46.390625 7.3457031,46.390625 Z m 0.5761718,0.615234 h 0.5683594 c 0.8959964,0 1.29026,0.318986 1.1835938,0.958985 -0.096,0.570664 -0.5046122,0.857422 -1.2246094,0.857422 H 6.3457031 Z M 11.810547,47.75 c -0.485332,0 -0.901382,0.182784 -1.248047,0.550781 -0.346665,0.362667 -0.5972871,0.86143 -0.7519531,1.496094 -0.1066663,0.453332 -0.1383699,0.861945 -0.095703,1.224609 0.042667,0.357333 0.1595636,0.639657 0.3515622,0.847657 0.192,0.207997 0.455017,0.3125 0.791016,0.3125 0.298665,0 0.571074,-0.08519 0.816406,-0.25586 0.245333,-0.175999 0.459292,-0.380569 0.640625,-0.615234 h 0.03125 l -0.103515,0.791015 h 0.560546 l 0.91211,-4.287109 h -0.53711 l -0.255859,0.664063 h -0.03906 C 12.797477,48.275849 12.666234,48.103509 12.490234,47.964844 12.31957,47.820844 12.093212,47.75 11.810547,47.75 Z m 50.927734,0 c -0.485331,0 -0.90138,0.182784 -1.248047,0.550781 -0.346664,0.362667 -0.597286,0.86143 -0.751953,1.496094 -0.106666,0.453332 -0.138372,0.861945 -0.0957,1.224609 0.04267,0.357333 0.159563,0.639657 0.351563,0.847657 0.191997,0.207997 0.456971,0.3125 0.792968,0.3125 0.298667,0 0.569122,-0.08519 0.814453,-0.25586 0.245334,-0.175999 0.459293,-0.380569 0.640625,-0.615234 h 0.03125 l -0.103515,0.791015 h 0.560547 l 0.912109,-4.287109 h -0.537109 l -0.25586,0.664063 h -0.03906 C 63.725209,48.275849 63.593968,48.103509 63.417969,47.964844 63.247302,47.820844 63.020948,47.75 62.738281,47.75 Z m 11.535156,0 c -0.367998,0 -0.694424,0.09263 -0.982421,0.279297 -0.282667,0.186666 -0.520891,0.437288 -0.712891,0.751953 -0.186666,0.314665 -0.320391,0.667308 -0.400391,1.056641 -0.064,0.293331 -0.08827,0.580614 -0.07227,0.863281 0.016,0.277332 0.08136,0.527953 0.193359,0.751953 0.112,0.224 0.279909,0.403778 0.503906,0.537109 0.224,0.128 0.511282,0.191407 0.863282,0.191407 0.271997,0 0.503313,-0.02922 0.695312,-0.08789 0.197333,-0.064 0.396418,-0.139277 0.59375,-0.224609 v -0.59961 c -0.213332,0.101333 -0.412417,0.181568 -0.59375,0.240235 -0.181333,0.05867 -0.371552,0.08789 -0.574219,0.08789 -0.383997,0 -0.653929,-0.119375 -0.808593,-0.359375 -0.149334,-0.239999 -0.200344,-0.570856 -0.152344,-0.992187 h 0.144531 c 0.783997,0 1.372914,-0.116896 1.767578,-0.351563 0.394666,-0.234665 0.628459,-0.52886 0.703125,-0.880859 0.08,-0.378665 0.01659,-0.682776 -0.191406,-0.91211 C 75.042005,47.866897 74.716103,47.75 74.273437,47.75 Z m 10.464844,0 c -0.367997,0 -0.696375,0.09263 -0.984375,0.279297 -0.282664,0.186666 -0.518938,0.437288 -0.710937,0.751953 -0.186667,0.314665 -0.320391,0.667308 -0.400391,1.056641 -0.064,0.293331 -0.08826,0.580614 -0.07227,0.863281 0.016,0.277332 0.07941,0.527953 0.191407,0.751953 0.112,0.224 0.279906,0.403778 0.503906,0.537109 0.224,0.128 0.513237,0.191407 0.865234,0.191407 0.272,0 0.503313,-0.02922 0.695313,-0.08789 0.197332,-0.064 0.394464,-0.139277 0.591797,-0.224609 v -0.59961 c -0.213333,0.101333 -0.410464,0.181568 -0.591797,0.240235 -0.181333,0.05867 -0.373506,0.08789 -0.576172,0.08789 -0.383999,0 -0.653927,-0.119375 -0.808594,-0.359375 -0.149332,-0.239999 -0.19839,-0.570856 -0.15039,-0.992187 h 0.142578 c 0.783996,0 1.372913,-0.116896 1.767578,-0.351563 0.394664,-0.234665 0.630411,-0.52886 0.705078,-0.880859 0.08,-0.378665 0.01659,-0.682776 -0.191406,-0.91211 C 85.506848,47.866897 85.180946,47.75 84.738281,47.75 Z m 8.455078,0 c -0.511997,0 -0.95036,0.172867 -1.318359,0.519531 -0.362665,0.346667 -0.613287,0.837992 -0.751953,1.472656 -0.106667,0.485332 -0.116058,0.9113 -0.02539,1.279297 0.096,0.362667 0.275777,0.64747 0.53711,0.855469 0.261331,0.202667 0.594667,0.304688 1,0.304688 0.511997,0 0.947882,-0.175345 1.310546,-0.527344 0.362667,-0.357332 0.613287,-0.853618 0.751954,-1.488281 0.111999,-0.490666 0.123872,-0.918586 0.0332,-1.28125 -0.09067,-0.362667 -0.267965,-0.642512 -0.529297,-0.839844 C 93.939841,47.847589 93.604026,47.75 93.193359,47.75 Z m -78.238281,0.06445 -0.552734,2.607422 c -0.117333,0.565331 -0.09306,1.00069 0.07226,1.304687 0.165334,0.304 0.457574,0.455079 0.878907,0.455079 0.245331,0 0.456812,-0.04605 0.632812,-0.136719 0.181333,-0.096 0.339325,-0.215375 0.472656,-0.359375 0.138667,-0.149333 0.260521,-0.300413 0.367188,-0.455078 h 0.03125 c 0.032,0.293331 0.129065,0.524647 0.289062,0.695312 0.16,0.170667 0.386355,0.25586 0.679688,0.25586 0.218665,0 0.413319,-0.04605 0.583984,-0.136719 0.170667,-0.09067 0.319266,-0.202604 0.447266,-0.335938 0.133333,-0.138664 0.24775,-0.270437 0.34375,-0.398437 h 0.04102 l -0.08789,0.791015 h 0.576172 l 0.912109,-4.287109 H 19.9375 l -0.390625,1.847656 c -0.096,0.469332 -0.229724,0.844289 -0.400391,1.126953 -0.170664,0.282667 -0.355401,0.489188 -0.552734,0.617188 -0.192,0.128 -0.374782,0.191406 -0.550781,0.191406 -0.192,0 -0.328204,-0.05349 -0.408203,-0.160156 -0.07467,-0.106667 -0.113282,-0.24287 -0.113282,-0.408203 0.0053,-0.170667 0.02712,-0.346011 0.06445,-0.527344 l 0.576172,-2.6875 H 17.458984 L 17.042969,49.75 c -0.138667,0.645331 -0.345188,1.114871 -0.617188,1.408203 -0.271997,0.293333 -0.556803,0.439453 -0.855468,0.439453 -0.245333,0 -0.405803,-0.08767 -0.480469,-0.263672 -0.07467,-0.181331 -0.07218,-0.458699 0.0078,-0.832031 l 0.56836,-2.6875 z m 6.927734,0 -0.568359,2.65625 c -0.117333,0.549332 -0.09059,0.972819 0.08008,1.271484 0.170667,0.293333 0.474777,0.439454 0.91211,0.439454 0.282664,0 0.533286,-0.06589 0.751953,-0.199219 0.223999,-0.138667 0.455313,-0.362543 0.695312,-0.671875 h 0.04102 l -0.08789,0.791015 h 0.574219 l 0.912109,-4.287109 h -0.695312 l -0.392578,1.847656 c -0.096,0.469332 -0.232206,0.844289 -0.408203,1.126953 -0.170667,0.282667 -0.355929,0.489188 -0.558594,0.617188 -0.202667,0.128 -0.402276,0.191406 -0.59961,0.191406 -0.250664,0 -0.425484,-0.08519 -0.521484,-0.255859 -0.09067,-0.176 -0.09563,-0.445929 -0.01563,-0.808594 l 0.583984,-2.71875 z m 7.832032,0 c -0.485332,0 -0.869679,0.100069 -1.152344,0.302734 -0.277332,0.202666 -0.450198,0.472597 -0.519531,0.808594 -0.064,0.309333 -0.0323,0.581741 0.0957,0.816406 0.128,0.234666 0.330089,0.405053 0.607422,0.511719 l -1.544922,1.847656 h 0.841797 l 1.359375,-1.65625 h 0.695312 l -0.351562,1.65625 h 0.695312 l 0.904297,-4.287109 z m 2.878906,0 -0.550781,2.607422 c -0.117333,0.565331 -0.09502,1.00069 0.07031,1.304687 0.165333,0.304 0.459527,0.455079 0.88086,0.455079 0.245331,0 0.456812,-0.04605 0.632812,-0.136719 0.181333,-0.096 0.337371,-0.215375 0.470703,-0.359375 0.138667,-0.149333 0.262474,-0.300413 0.369141,-0.455078 h 0.03125 c 0.032,0.293331 0.129065,0.524647 0.289062,0.695312 0.16,0.170667 0.386355,0.25586 0.679688,0.25586 0.218665,0 0.413319,-0.04605 0.583984,-0.136719 0.170667,-0.09067 0.319266,-0.202604 0.447266,-0.335938 0.133333,-0.138664 0.24775,-0.270437 0.34375,-0.398437 h 0.04102 c -0.0053,0.271999 0.03133,0.474089 0.111329,0.607422 0.08533,0.127999 0.2141,0.210713 0.384765,0.248047 l -0.224609,1.05664 h 0.6875 l 0.351562,-1.648437 c -0.096,0.02667 -0.193589,0.03906 -0.294922,0.03906 -0.165332,0 -0.267354,-0.05349 -0.304687,-0.160156 -0.032,-0.106667 -0.01517,-0.311237 0.04883,-0.615234 l 0.638672,-3.023438 h -0.703125 l -0.392578,1.847656 c -0.096,0.469332 -0.227771,0.844289 -0.398438,1.126953 -0.170664,0.282667 -0.355401,0.489188 -0.552734,0.617188 -0.192,0.128 -0.376737,0.191406 -0.552734,0.191406 -0.192,0 -0.328205,-0.05349 -0.408204,-0.160156 -0.07467,-0.106667 -0.111328,-0.24287 -0.111328,-0.408203 0.0053,-0.170667 0.02712,-0.346011 0.06445,-0.527344 l 0.576172,-2.6875 H 35.097656 L 34.681641,49.75 c -0.138667,0.645331 -0.343235,1.114871 -0.615235,1.408203 -0.271997,0.293333 -0.556803,0.439453 -0.855469,0.439453 -0.245332,0 -0.405802,-0.08767 -0.480468,-0.263672 -0.07467,-0.181331 -0.07218,-0.458699 0.0078,-0.832031 l 0.56836,-2.6875 z m 7.041016,0 -0.56836,2.65625 c -0.117333,0.549332 -0.09059,0.972819 0.08008,1.271484 0.170667,0.293333 0.474778,0.439454 0.91211,0.439454 0.282664,0 0.533286,-0.06589 0.751953,-0.199219 0.223999,-0.138667 0.455315,-0.362543 0.695312,-0.671875 h 0.04102 l -0.08789,0.791015 h 0.574219 l 0.912109,-4.287109 H 42.25 l -0.392578,1.847656 c -0.096,0.469332 -0.232204,0.844289 -0.408203,1.126953 -0.170667,0.282667 -0.355928,0.489188 -0.558594,0.617188 -0.202666,0.128 -0.402278,0.191406 -0.599609,0.191406 -0.250667,0 -0.425485,-0.08519 -0.521485,-0.255859 -0.09067,-0.176 -0.09562,-0.445929 -0.01563,-0.808594 l 0.583985,-2.71875 z m 4.591796,0 -0.904296,4.287109 h 0.703125 l 0.40039,-1.896484 h 0.576172 l 0.855469,1.896484 h 0.769531 l -1.041016,-2.207031 1.855469,-2.080078 h -0.791015 l -1.583985,1.798828 h -0.511719 l 0.375,-1.798828 z m 3.871094,0 -0.568359,2.65625 c -0.117333,0.549332 -0.09059,0.972819 0.08008,1.271484 0.170666,0.293333 0.474778,0.439454 0.912109,0.439454 0.282667,0 0.533288,-0.06589 0.751953,-0.199219 0.223999,-0.138667 0.457267,-0.362543 0.697266,-0.671875 h 0.03906 l -0.08789,0.791015 h 0.576172 l 0.912109,-4.287109 h -0.695312 l -0.392578,1.847656 c -0.096,0.469332 -0.232204,0.844289 -0.408204,1.126953 -0.170664,0.282667 -0.357882,0.489188 -0.560546,0.617188 -0.202667,0.128 -0.402277,0.191406 -0.59961,0.191406 -0.250664,0 -0.423531,-0.08519 -0.519531,-0.255859 -0.09067,-0.176 -0.09562,-0.445929 -0.01563,-0.808594 l 0.583984,-2.71875 z m 8.720703,0 -0.912109,4.287109 h 0.710937 l 0.408204,-1.919921 h 1.865234 l -0.400391,1.919921 h 0.712891 l 0.902344,-4.287109 h -0.703125 l -0.384766,1.783203 h -1.863281 l 0.367187,-1.783203 z m 9.064453,0 -0.552734,2.607422 c -0.117333,0.565331 -0.09307,1.00069 0.07227,1.304687 0.165332,0.304 0.457574,0.455079 0.878906,0.455079 0.245333,0 0.456815,-0.04605 0.632812,-0.136719 0.181334,-0.096 0.339324,-0.215375 0.472657,-0.359375 0.138665,-0.149333 0.260521,-0.300413 0.367187,-0.455078 h 0.0332 c 0.032,0.293331 0.12711,0.524647 0.28711,0.695312 0.159999,0.170667 0.386356,0.25586 0.679687,0.25586 0.218667,0 0.413318,-0.04605 0.583985,-0.136719 0.170664,-0.09067 0.321221,-0.202604 0.449218,-0.335938 0.133334,-0.138664 0.247751,-0.270437 0.34375,-0.398437 h 0.03906 l -0.08789,0.791015 h 0.576172 l 0.912109,-4.287109 h -0.705078 l -0.390625,1.847656 c -0.096,0.469332 -0.229725,0.844289 -0.40039,1.126953 -0.170667,0.282667 -0.355401,0.489188 -0.552735,0.617188 -0.191997,0.128 -0.374781,0.191406 -0.550781,0.191406 -0.191999,0 -0.328203,-0.05349 -0.408203,-0.160156 -0.07467,-0.106667 -0.113281,-0.24287 -0.113281,-0.408203 0.0053,-0.170667 0.02712,-0.346011 0.06445,-0.527344 l 0.576172,-2.6875 H 68.386719 L 67.970703,49.75 c -0.138666,0.645331 -0.34519,1.114871 -0.617187,1.408203 -0.272,0.293333 -0.556804,0.439453 -0.855469,0.439453 -0.245333,0 -0.405802,-0.08767 -0.480469,-0.263672 -0.07467,-0.181331 -0.07218,-0.458699 0.0078,-0.832031 l 0.568359,-2.6875 z m 21.878907,0 -0.767578,2.759766 c -0.101334,0.373331 -0.220711,0.626434 -0.359375,0.759765 -0.138667,0.133334 -0.313485,0.199219 -0.521485,0.199219 -0.106666,0 -0.204255,-0.01488 -0.294922,-0.04687 v 0.615234 c 0.032,0.01067 0.08053,0.02058 0.144532,0.03125 0.05867,0.016 0.127031,0.02539 0.207031,0.02539 0.255999,0 0.474917,-0.04605 0.65625,-0.136719 0.181333,-0.096 0.339323,-0.253989 0.472656,-0.472656 0.138667,-0.218665 0.258042,-0.513386 0.359375,-0.886719 l 0.632813,-2.255859 h 1.367187 l -0.800781,3.695312 h 0.71289 l 0.919922,-4.287109 z m 5.416015,0.511719 c 0.384,0 0.64649,0.151079 0.785157,0.455078 0.143997,0.298665 0.153915,0.734023 0.03125,1.304687 -0.218667,1.013329 -0.663941,1.519532 -1.335938,1.519532 -0.378664,0 -0.643635,-0.153558 -0.792969,-0.462891 -0.149331,-0.314665 -0.161731,-0.754983 -0.03906,-1.320312 0.223999,-0.99733 0.674233,-1.496094 1.351562,-1.496094 z m -81.294921,0.0078 c 0.330665,-0.0053 0.554541,0.140788 0.671875,0.439453 0.122664,0.293333 0.117712,0.694508 -0.01563,1.201172 -0.133333,0.485332 -0.334898,0.877115 -0.601563,1.175782 -0.261332,0.298664 -0.543659,0.447265 -0.847656,0.447265 -0.293333,0 -0.495422,-0.14612 -0.607422,-0.439453 -0.106667,-0.293332 -0.101713,-0.696987 0.01563,-1.208984 0.117333,-0.517332 0.295157,-0.914073 0.535156,-1.191407 0.24,-0.277331 0.524277,-0.418494 0.84961,-0.423828 z m 50.927734,0 c 0.330665,-0.0053 0.554542,0.140788 0.671875,0.439453 0.122666,0.293333 0.117713,0.694508 -0.01563,1.201172 -0.133333,0.485332 -0.334896,0.877115 -0.601563,1.175782 -0.261331,0.298664 -0.543656,0.447265 -0.847656,0.447265 -0.293332,0 -0.495422,-0.14612 -0.607422,-0.439453 -0.106666,-0.293332 -0.101713,-0.696987 0.01563,-1.208984 0.117333,-0.517332 0.29711,-0.914073 0.53711,-1.191407 0.239997,-0.277331 0.522324,-0.418494 0.847656,-0.423828 z m 11.416015,0 c 0.224,0 0.377558,0.06093 0.462891,0.183594 0.09067,0.117333 0.11741,0.256016 0.08008,0.416016 -0.04267,0.181332 -0.149647,0.327453 -0.320312,0.439453 -0.165333,0.106666 -0.37486,0.184422 -0.63086,0.232422 -0.250664,0.048 -0.525554,0.07227 -0.824218,0.07227 H 72.9375 c 0.128,-0.447997 0.307778,-0.783813 0.537109,-1.007812 0.234667,-0.224 0.485289,-0.335938 0.751953,-0.335938 z m 10.462891,0 c 0.224,0 0.379511,0.06093 0.464844,0.183594 0.09067,0.117333 0.117409,0.256016 0.08008,0.416016 -0.04267,0.181332 -0.149646,0.327453 -0.320313,0.439453 -0.165331,0.106666 -0.376813,0.184422 -0.632812,0.232422 -0.250665,0.048 -0.523599,0.07227 -0.822266,0.07227 h -0.05664 c 0.127999,-0.447997 0.305823,-0.783813 0.535156,-1.007812 0.234666,-0.224 0.485288,-0.335938 0.751953,-0.335938 z m -55.087891,0.08008 h 0.927735 l -0.302735,1.431641 h -0.705078 c -0.282664,0 -0.501583,-0.06837 -0.65625,-0.207031 -0.149331,-0.144 -0.195911,-0.350521 -0.142578,-0.617188 0.08533,-0.405331 0.377577,-0.607422 0.878906,-0.607422 z m 50.609375,0.126954 c 0.266666,0 0.476193,0.08962 0.63086,0.265625 0.16,0.175997 0.276897,0.388007 0.351562,0.638671 -0.08533,0.405333 -0.194791,0.770371 -0.328125,1.095704 -0.127997,0.319997 -0.291475,0.577531 -0.49414,0.769531 -0.202667,0.186666 -0.450808,0.279297 -0.744141,0.279297 -0.218665,0 -0.391005,-0.05101 -0.513672,-0.152344 -0.117333,-0.106667 -0.200047,-0.24287 -0.248047,-0.408203 -0.04267,-0.165333 -0.06002,-0.340677 -0.05469,-0.527344 0.01067,-0.186666 0.03245,-0.36201 0.06445,-0.527344 0.09067,-0.415997 0.249183,-0.758726 0.478516,-1.02539 0.229331,-0.272 0.51609,-0.408203 0.857421,-0.408203 z M 6.21875,49.414062 h 0.7519531 c 0.4213317,10e-7 0.7279227,0.09759 0.9199219,0.294922 0.1973325,0.192 0.2632184,0.469365 0.1992188,0.832032 -0.1119996,0.634663 -0.5572739,0.953125 -1.3359376,0.953125 H 5.7773437 Z m 45.824219,1.759766 c -0.101333,0.277333 -0.225141,0.59384 -0.369141,0.951172 -0.144,0.357332 -0.285161,0.693148 -0.423828,1.007812 h 0.537109 c 0.186667,-0.293331 0.374407,-0.60736 0.566407,-0.943359 0.191997,-0.335999 0.354948,-0.64507 0.488281,-0.927734 l -0.03125,-0.08789 z"
       style="display:inline;fill:#000000;fill-opacity:0.156804"
       id="path7" /><text
       xml:space="preserve"
       id="Invoice"
       style="font-style:normal;font-variant:normal;font-weight:normal;font-stretch:normal;font-size:26.6667px;line-height:2.6;font-family:'Nimbus Mono PS';-inkscape-font-specification:'Nimbus Mono PS';text-align:center;white-space:pre;shape-inside:url(#rect4);display:inline;fill:#000000"
       transform="matrix(1.0691643,0,0,1.1210031,-11.914897,0.28629602)"
       inkscape:label="Invoice"><tspan
         x="107.72936"
         y="37.503223"
         id="tspan2">Накладная</tspan></text><path
       d="M 10.152344,1.25 C 7.7045421,1.2121791 5.2615442,2.5285087 1.1308594,5.5605469 L 1.84375,55.103516 c 0,0 2.0507312,3.851552 3.6601562,5.253906 1.5871494,1.382938 5.6269528,2.869141 5.6269528,2.86914 h 79.072266 c 0,0 4.20954,-0.704108 5.556641,-2.166015 1.139211,-1.236319 1.439453,-4.833984 1.439453,-4.833985 V 4.9238281 C 89.218625,0.03666314 87.604076,0.5157811 79.224609,6.03125 l -0.07031,6.074219 -10.087891,-0.05078 -0.06445,-7.6582036 C 62.115084,1.6018385 60.746259,0.17953895 54.660156,5.34375 l 0.002,6.652344 L 43.957031,12.441406 44.015625,5.375 C 37.318981,0.70731661 36.32784,0.63325251 29.109375,5.5585937 l -0.02734,6.2773443 H 19.203125 V 5.0507812 C 15.052471,2.6783505 12.600139,1.2878209 10.152344,1.25 Z M 9.1855469,19.095703 H 11.351563 V 40.667969 H 9.1855469 Z m 11.9492191,0 h 2.580078 l -8.316406,10.292969 8.667968,11.279297 H 21.388672 L 12.816406,29.611328 Z m 11.853515,5.226563 c 2.804096,0 4.652859,0.923771 6.246094,3.154296 h 0.0625 v -2.771484 h 2.039062 v 15.962891 h -2.039062 v -2.962891 h -0.0625 c -1.56137,2.262398 -3.537588,3.345703 -6.246094,3.345703 -4.843437,0 -8.507812,-3.632402 -8.507812,-8.412109 0,-4.779709 3.600645,-8.316406 8.507812,-8.316406 z m 20.425781,0 c 4.87531,0 8.47461,3.599307 8.47461,8.474609 0,4.715979 -3.663759,8.253906 -8.539063,8.253906 -2.708499,0 -4.747618,-1.11517 -6.085937,-3.345703 h -0.06445 v 8.572266 H 45.033203 V 24.705078 h 2.039063 v 2.740234 h 0.06445 c 1.688827,-2.166795 3.600709,-3.123046 6.277343,-3.123046 z m 29.060547,0 c 4.811579,0 8.41211,3.601152 8.41211,8.380859 0,4.715979 -3.633626,8.347656 -8.34961,8.347656 -4.747842,0 -8.347656,-3.631677 -8.347656,-8.347656 0,-4.715979 3.601044,-8.380859 8.285156,-8.380859 z m -17.558593,0.382812 h 8.318359 v 1.943359 h -6.150391 v 14.019532 h -2.167968 z m -31.896485,1.560547 c -3.600712,0 -6.373047,2.836173 -6.373047,6.46875 0,3.568847 2.836065,6.373047 6.373047,6.373047 3.505123,0 6.277344,-2.804815 6.277344,-6.341797 0,-3.632577 -2.772221,-6.5 -6.277344,-6.5 z m 20.394531,0 c -3.60071,0 -6.341796,2.803692 -6.341796,6.5 0,3.632577 2.677248,6.341797 6.246093,6.341797 3.600718,0 6.404297,-2.8042 6.404297,-6.373047 0,-3.632577 -2.771606,-6.46875 -6.308594,-6.46875 z m 29.15625,0 c -3.568845,0 -6.214843,2.741192 -6.214843,6.4375 0,3.664443 2.644658,6.404297 6.18164,6.404297 3.536988,0 6.183594,-2.739854 6.183594,-6.404297 0,-3.664443 -2.645268,-6.4375 -6.150391,-6.4375 z m -2.376953,19.675781 c 0.496,0 0.899652,0.141164 1.208985,0.423828 0.309331,0.282667 0.506467,0.708105 0.591797,1.273438 0.09067,0.565331 0.04461,1.273623 -0.136719,2.126953 -0.064,0.293333 -0.154152,0.585047 -0.271485,0.873047 -0.117332,0.282666 -0.268411,0.540726 -0.455078,0.77539 -0.181331,0.234667 -0.40025,0.421883 -0.65625,0.560547 -0.250664,0.138662 -0.54238,0.207032 -0.873047,0.207032 -0.34133,0 -0.618698,-0.06589 -0.832031,-0.199219 -0.213333,-0.138667 -0.371849,-0.318443 -0.478515,-0.53711 -0.106667,-0.223997 -0.169547,-0.469661 -0.185547,-0.736328 -0.01067,-0.271997 0.01112,-0.539976 0.06445,-0.80664 0.07467,-0.330667 0.194042,-0.639735 0.359375,-0.927735 0.165333,-0.293331 0.381773,-0.529078 0.648437,-0.705078 0.266667,-0.181334 0.582647,-0.271484 0.945313,-0.271484 0.32,0 0.573101,0.06837 0.759765,0.207031 0.186667,0.133333 0.327829,0.288844 0.423829,0.464844 h 0.02344 c 0.0053,-0.04266 0.0078,-0.08376 0.0078,-0.121094 v -0.0957 c 0,-0.650664 -0.09015,-1.132599 -0.271485,-1.447266 -0.181333,-0.314664 -0.485445,-0.472656 -0.912109,-0.472656 -0.282667,0 -0.574381,0.06784 -0.873047,0.201172 l -0.207031,-0.552734 c 0.149333,-0.07467 0.324679,-0.133112 0.527343,-0.175782 0.202667,-0.04266 0.3998,-0.06445 0.591797,-0.06445 z M 6.1542969,46.390625 h 1.1914062 c 0.7146646,0 1.2302561,0.148599 1.5449219,0.447266 0.3199991,0.293331 0.4269814,0.685112 0.3203125,1.175781 -0.1439997,0.671997 -0.5961846,1.048906 -1.3535156,1.128906 l -0.00781,0.03906 c 0.7946642,0.218664 1.1230411,0.71495 0.984375,1.488281 -0.085333,0.469331 -0.3141679,0.826933 -0.6875,1.072265 -0.3679991,0.239999 -0.8692414,0.359376 -1.5039063,0.359375 H 4.9453125 Z m 0.5761718,0.615234 -0.3847656,1.816407 h 0.9121094 c 0.7199979,0 1.1286096,-0.286758 1.2246094,-0.857422 0.1066663,-0.64 -0.2875965,-0.958985 -1.1835938,-0.958985 z M 11.810547,47.75 c 0.282666,0 0.509023,0.07084 0.679687,0.214844 0.176,0.138666 0.307243,0.311005 0.392579,0.513672 h 0.03906 l 0.255859,-0.664063 h 0.53711 l -0.91211,4.287109 h -0.560546 l 0.103515,-0.791015 h -0.03125 c -0.181333,0.234666 -0.395292,0.439234 -0.640625,0.615234 -0.245333,0.17067 -0.51774,0.25586 -0.816406,0.25586 -0.336,0 -0.599016,-0.104503 -0.791016,-0.3125 C 9.8744072,51.661141 9.7575106,51.378817 9.7148438,51.021484 9.672177,50.65882 9.7038805,50.250208 9.8105469,49.796875 9.965213,49.162211 10.215834,48.663448 10.5625,48.300781 10.909166,47.932784 11.325214,47.75 11.810547,47.75 Z m 50.927734,0 c 0.282667,0 0.509021,0.07084 0.679688,0.214844 0.176,0.138666 0.30724,0.311005 0.392578,0.513672 h 0.03906 l 0.25586,-0.664063 h 0.537109 l -0.912109,4.287109 h -0.560547 l 0.103515,-0.791015 h -0.03125 c -0.181332,0.234666 -0.395291,0.439234 -0.640625,0.615234 -0.245331,0.17067 -0.515786,0.25586 -0.814453,0.25586 -0.335997,0 -0.600971,-0.104503 -0.792968,-0.3125 -0.192,-0.208 -0.308893,-0.490324 -0.351563,-0.847657 -0.04267,-0.362664 -0.01096,-0.771276 0.0957,-1.224609 0.154667,-0.634664 0.405289,-1.133427 0.751953,-1.496094 C 61.836901,47.932784 62.25295,47.75 62.738281,47.75 Z m 11.535156,0 c 0.442666,0 0.768568,0.116897 0.976563,0.351562 0.207996,0.229334 0.271406,0.533444 0.191406,0.91211 -0.07467,0.352 -0.308458,0.646193 -0.703125,0.880859 -0.394664,0.234667 -0.983581,0.351563 -1.767578,0.351563 h -0.144531 c -0.048,0.421331 0.003,0.752187 0.152344,0.992187 0.154664,0.24 0.424596,0.359375 0.808593,0.359375 0.202667,0 0.392886,-0.02922 0.574219,-0.08789 0.181333,-0.05867 0.380417,-0.138902 0.59375,-0.240235 v 0.59961 c -0.197333,0.08533 -0.396417,0.160609 -0.59375,0.224609 -0.192,0.05867 -0.423315,0.08789 -0.695312,0.08789 -0.352,0 -0.639282,-0.06341 -0.863282,-0.191407 -0.223997,-0.133331 -0.391906,-0.313109 -0.503906,-0.537109 -0.111999,-0.224 -0.177359,-0.47462 -0.193359,-0.751953 -0.016,-0.282667 0.0083,-0.56995 0.07227,-0.863281 0.08,-0.389333 0.213725,-0.741975 0.400391,-1.056641 0.192,-0.314666 0.430224,-0.565287 0.712891,-0.751953 C 73.579013,47.84263 73.905439,47.75 74.273437,47.75 Z m 10.464844,0 c 0.442666,0 0.768567,0.116897 0.976563,0.351562 0.207996,0.229334 0.271406,0.533444 0.191406,0.91211 -0.07467,0.352 -0.310414,0.646193 -0.705078,0.880859 -0.394666,0.234667 -0.983581,0.351563 -1.767578,0.351563 h -0.142578 c -0.048,0.421331 0.0011,0.752187 0.15039,0.992187 0.154667,0.24 0.424594,0.359375 0.808594,0.359375 0.202666,0 0.394839,-0.02922 0.576172,-0.08789 0.181333,-0.05867 0.378464,-0.138902 0.591797,-0.240235 v 0.59961 c -0.197333,0.08533 -0.394464,0.160609 -0.591797,0.224609 -0.192,0.05867 -0.423313,0.08789 -0.695313,0.08789 -0.351997,0 -0.641234,-0.06341 -0.865234,-0.191407 -0.224,-0.133331 -0.391906,-0.313109 -0.503906,-0.537109 -0.111997,-0.224 -0.175407,-0.47462 -0.191407,-0.751953 -0.016,-0.282667 0.0083,-0.56995 0.07227,-0.863281 0.08,-0.389333 0.213724,-0.741975 0.400391,-1.056641 0.192,-0.314666 0.428273,-0.565287 0.710937,-0.751953 C 84.041906,47.84263 84.370284,47.75 84.738281,47.75 Z m 8.455078,0 c 0.410667,0 0.746482,0.09759 1.007813,0.294922 0.261333,0.197333 0.438627,0.477177 0.529297,0.839844 0.09067,0.362664 0.0788,0.790583 -0.0332,1.28125 -0.138667,0.634664 -0.389287,1.130948 -0.751954,1.488281 -0.362664,0.352 -0.798549,0.527344 -1.310546,0.527344 -0.405333,0 -0.738669,-0.102021 -1,-0.304688 -0.261333,-0.208 -0.44111,-0.492802 -0.53711,-0.855469 -0.09067,-0.367997 -0.08128,-0.793965 0.02539,-1.279297 C 91.261713,49.107522 91.512334,48.616198 91.875,48.269531 92.243,47.922867 92.681362,47.75 93.193359,47.75 Z m -78.238281,0.06445 h 0.710938 l -0.56836,2.6875 c -0.07999,0.373333 -0.08248,0.6507 -0.0078,0.832031 0.07467,0.176002 0.235136,0.263672 0.480469,0.263672 0.298665,0 0.583471,-0.14612 0.855468,-0.439453 0.272,-0.293333 0.478521,-0.762872 0.617188,-1.408203 l 0.416015,-1.935547 h 0.703125 l -0.576172,2.6875 c -0.03733,0.181333 -0.05915,0.356677 -0.06445,0.527344 0,0.165333 0.03861,0.301536 0.113282,0.408203 0.08,0.106666 0.216203,0.160156 0.408203,0.160156 0.176,0 0.358781,-0.06341 0.550781,-0.191406 0.197333,-0.128 0.38207,-0.334521 0.552734,-0.617188 0.170667,-0.282664 0.304391,-0.65762 0.400391,-1.126953 L 19.9375,47.814453 h 0.705078 l -0.912109,4.287109 h -0.576172 l 0.08789,-0.791015 h -0.04102 c -0.096,0.128 -0.210417,0.259773 -0.34375,0.398437 -0.128,0.133334 -0.276599,0.245268 -0.447266,0.335938 -0.170666,0.09067 -0.365318,0.136719 -0.583984,0.136719 -0.293333,0 -0.519688,-0.08519 -0.679688,-0.25586 -0.159997,-0.170666 -0.257062,-0.401981 -0.289062,-0.695312 h -0.03125 c -0.106667,0.154666 -0.228521,0.305745 -0.367188,0.455078 -0.133331,0.144 -0.291323,0.263375 -0.472656,0.359375 -0.176,0.09067 -0.387481,0.136719 -0.632812,0.136719 -0.421333,0 -0.713573,-0.151079 -0.878907,-0.455079 -0.165328,-0.303997 -0.189598,-0.739356 -0.07226,-1.304687 z m 6.927734,0 h 0.703125 l -0.583984,2.71875 c -0.08,0.362666 -0.07504,0.632594 0.01563,0.808594 0.096,0.170669 0.27082,0.255859 0.521484,0.255859 0.197334,0 0.396943,-0.06341 0.59961,-0.191406 0.202666,-0.128 0.387927,-0.334521 0.558594,-0.617188 0.175997,-0.282664 0.312203,-0.65762 0.408203,-1.126953 l 0.392578,-1.847656 h 0.695312 l -0.912109,4.287109 h -0.574219 l 0.08789,-0.791015 h -0.04102 c -0.24,0.309333 -0.471312,0.533208 -0.695312,0.671875 -0.218667,0.133329 -0.469289,0.199219 -0.751953,0.199219 -0.437333,0 -0.741443,-0.146121 -0.91211,-0.439454 -0.17067,-0.298665 -0.197411,-0.722151 -0.08008,-1.271484 z m 7.832032,0 h 1.630859 l -0.904297,4.287109 h -0.695312 l 0.351562,-1.65625 h -0.695312 l -1.359375,1.65625 h -0.841797 l 1.544922,-1.847656 c -0.277333,-0.106666 -0.479422,-0.277053 -0.607422,-0.511719 -0.128,-0.234665 -0.159703,-0.507073 -0.0957,-0.816406 0.06933,-0.335997 0.242198,-0.605928 0.519531,-0.808594 0.282666,-0.202665 0.667011,-0.302734 1.152344,-0.302734 z m 2.878906,0 h 0.712891 l -0.56836,2.6875 c -0.07999,0.373333 -0.08248,0.6507 -0.0078,0.832031 0.07467,0.176002 0.235136,0.263672 0.480468,0.263672 0.298666,0 0.583472,-0.14612 0.855469,-0.439453 0.272,-0.293333 0.476568,-0.762872 0.615235,-1.408203 l 0.416015,-1.935547 h 0.705078 l -0.576172,2.6875 c -0.03733,0.181333 -0.05915,0.356677 -0.06445,0.527344 0,0.165333 0.03666,0.301536 0.111328,0.408203 0.08,0.106666 0.216204,0.160156 0.408204,0.160156 0.175997,0 0.360734,-0.06341 0.552734,-0.191406 0.197333,-0.128 0.38207,-0.334521 0.552734,-0.617188 0.170667,-0.282664 0.302438,-0.65762 0.398438,-1.126953 l 0.392578,-1.847656 h 0.703125 l -0.638672,3.023438 c -0.064,0.303997 -0.08083,0.508567 -0.04883,0.615234 0.03733,0.106666 0.139355,0.160156 0.304687,0.160156 0.101333,0 0.198922,-0.01239 0.294922,-0.03906 l -0.351562,1.648437 h -0.6875 l 0.224609,-1.05664 c -0.170666,-0.03733 -0.299435,-0.120047 -0.384765,-0.248047 -0.08,-0.133333 -0.116627,-0.335422 -0.111329,-0.607422 h -0.04102 c -0.096,0.128 -0.210417,0.259773 -0.34375,0.398437 -0.128,0.133334 -0.276599,0.245268 -0.447266,0.335938 -0.170666,0.09067 -0.365318,0.136719 -0.583984,0.136719 -0.293333,0 -0.519688,-0.08519 -0.679688,-0.25586 -0.159997,-0.170666 -0.257062,-0.401981 -0.289062,-0.695312 h -0.03125 c -0.106667,0.154666 -0.230474,0.305745 -0.369141,0.455078 -0.133333,0.144 -0.28937,0.263375 -0.470703,0.359375 -0.176,0.09067 -0.387481,0.136719 -0.632812,0.136719 -0.421333,0 -0.715527,-0.151079 -0.88086,-0.455079 -0.16533,-0.303997 -0.187645,-0.739356 -0.07031,-1.304687 z m 7.041016,0 h 0.703125 l -0.583985,2.71875 c -0.07999,0.362666 -0.07505,0.632594 0.01563,0.808594 0.096,0.170669 0.270818,0.255859 0.521485,0.255859 0.197331,0 0.396943,-0.06341 0.599609,-0.191406 0.202666,-0.128 0.387927,-0.334521 0.558594,-0.617188 0.176,-0.282664 0.312203,-0.65762 0.408203,-1.126953 L 42.25,47.814453 h 0.695312 l -0.912109,4.287109 h -0.574219 l 0.08789,-0.791015 h -0.04102 c -0.239997,0.309333 -0.471312,0.533208 -0.695312,0.671875 -0.218667,0.133329 -0.469289,0.199219 -0.751953,0.199219 -0.437333,0 -0.741443,-0.146121 -0.91211,-0.439454 -0.170668,-0.298665 -0.197411,-0.722151 -0.08008,-1.271484 z m 4.591796,0 h 0.703125 l -0.375,1.798828 h 0.511719 l 1.583985,-1.798828 h 0.791015 l -1.855469,2.080078 1.041016,2.207031 h -0.769531 l -0.855469,-1.896484 h -0.576172 l -0.40039,1.896484 h -0.703125 z m 3.871094,0 h 0.705078 l -0.583984,2.71875 c -0.07999,0.362666 -0.07505,0.632594 0.01563,0.808594 0.096,0.170669 0.268867,0.255859 0.519531,0.255859 0.197333,0 0.396943,-0.06341 0.59961,-0.191406 0.202664,-0.128 0.389882,-0.334521 0.560546,-0.617188 0.176,-0.282664 0.312204,-0.65762 0.408204,-1.126953 l 0.392578,-1.847656 h 0.695312 l -0.912109,4.287109 h -0.576172 l 0.08789,-0.791015 h -0.03906 c -0.24,0.309333 -0.473267,0.533208 -0.697266,0.671875 -0.218665,0.133329 -0.469286,0.199219 -0.751953,0.199219 -0.437331,0 -0.741443,-0.146121 -0.912109,-0.439454 -0.17067,-0.298665 -0.197411,-0.722151 -0.08008,-1.271484 z m 8.720703,0 h 0.703125 l -0.367187,1.783203 h 1.863281 l 0.384766,-1.783203 h 0.703125 l -0.902344,4.287109 h -0.712891 l 0.400391,-1.919921 h -1.865234 l -0.408204,1.919921 H 55.90625 Z m 9.064453,0 h 0.710938 l -0.568359,2.6875 c -0.07999,0.373333 -0.08248,0.6507 -0.0078,0.832031 0.07467,0.176002 0.235136,0.263672 0.480469,0.263672 0.298666,0 0.583469,-0.14612 0.855469,-0.439453 0.271997,-0.293333 0.478521,-0.762872 0.617187,-1.408203 l 0.416016,-1.935547 h 0.703125 l -0.576172,2.6875 c -0.03733,0.181333 -0.05915,0.356677 -0.06445,0.527344 0,0.165333 0.03861,0.301536 0.113281,0.408203 0.08,0.106666 0.216203,0.160156 0.408203,0.160156 0.176,0 0.358784,-0.06341 0.550781,-0.191406 0.197334,-0.128 0.382068,-0.334521 0.552735,-0.617188 0.170666,-0.282664 0.30439,-0.65762 0.40039,-1.126953 l 0.390625,-1.847656 h 0.705078 l -0.912109,4.287109 h -0.576172 l 0.08789,-0.791015 h -0.03906 c -0.096,0.128 -0.210416,0.259773 -0.34375,0.398437 -0.127997,0.133334 -0.278554,0.245268 -0.449218,0.335938 -0.170667,0.09067 -0.365318,0.136719 -0.583985,0.136719 -0.293331,0 -0.519687,-0.08519 -0.679687,-0.25586 -0.16,-0.170666 -0.25511,-0.401981 -0.28711,-0.695312 h -0.0332 c -0.106666,0.154666 -0.228521,0.305745 -0.367187,0.455078 -0.133333,0.144 -0.291323,0.263375 -0.472657,0.359375 -0.175997,0.09067 -0.387479,0.136719 -0.632812,0.136719 -0.421333,0 -0.713573,-0.151079 -0.878906,-0.455079 -0.16534,-0.303997 -0.189599,-0.739356 -0.07227,-1.304687 z m 21.878907,0 h 2.728515 l -0.919922,4.287109 h -0.71289 l 0.800781,-3.695312 h -1.367187 l -0.632813,2.255859 c -0.101333,0.373333 -0.220708,0.668053 -0.359375,0.886719 -0.133333,0.218667 -0.291323,0.376656 -0.472656,0.472656 -0.181333,0.09067 -0.40025,0.136719 -0.65625,0.136719 -0.08,0 -0.148361,-0.0094 -0.207031,-0.02539 -0.064,-0.01067 -0.112532,-0.02058 -0.144532,-0.03125 v -0.615234 c 0.09067,0.03199 0.188256,0.04687 0.294922,0.04687 0.208,0 0.382818,-0.06589 0.521485,-0.199219 0.138664,-0.133331 0.258041,-0.386434 0.359375,-0.759765 z m 5.416015,0.511719 c -0.67733,0 -1.127562,0.498763 -1.351562,1.496094 -0.122669,0.56533 -0.110269,1.005646 0.03906,1.320312 0.149334,0.309333 0.414305,0.462891 0.792969,0.462891 0.671997,0 1.117271,-0.506202 1.335938,-1.519532 0.122666,-0.570665 0.112747,-1.006021 -0.03125,-1.304687 -0.138667,-0.304 -0.401157,-0.455078 -0.785157,-0.455078 z m -81.294921,0.0078 c -0.325333,0.0053 -0.60961,0.146497 -0.84961,0.423828 -0.24,0.277334 -0.417823,0.674074 -0.535156,1.191407 -0.117338,0.511997 -0.122292,0.915651 -0.01563,1.208984 0.112,0.293333 0.314089,0.439453 0.607422,0.439453 0.303997,0 0.586323,-0.148601 0.847656,-0.447265 0.266666,-0.298667 0.46823,-0.690449 0.601563,-1.175782 0.133337,-0.506664 0.138289,-0.907839 0.01563,-1.201172 -0.117334,-0.298665 -0.34121,-0.444753 -0.671875,-0.439453 z m 50.927734,0 c -0.325333,0.0053 -0.607659,0.146497 -0.847656,0.423828 -0.24,0.277334 -0.419777,0.674074 -0.53711,1.191407 -0.117338,0.511997 -0.122291,0.915651 -0.01563,1.208984 0.112,0.293333 0.314089,0.439453 0.607422,0.439453 0.304,0 0.586325,-0.148601 0.847656,-0.447265 0.266667,-0.298667 0.46823,-0.690449 0.601563,-1.175782 0.133338,-0.506664 0.138291,-0.907839 0.01563,-1.201172 -0.117333,-0.298665 -0.341209,-0.444753 -0.671875,-0.439453 z m 11.416015,0 c -0.266664,0 -0.517286,0.111938 -0.751953,0.335938 -0.229331,0.224 -0.409109,0.559815 -0.537109,1.007812 h 0.05664 c 0.298664,0 0.573554,-0.02426 0.824218,-0.07227 0.256,-0.048 0.465527,-0.125756 0.63086,-0.232422 0.170666,-0.112 0.277642,-0.25812 0.320312,-0.439453 0.03733,-0.16 0.01059,-0.298683 -0.08008,-0.416016 -0.08533,-0.122664 -0.238891,-0.183594 -0.462891,-0.183594 z m 10.462891,0 c -0.266666,0 -0.517287,0.111938 -0.751953,0.335938 -0.229333,0.224 -0.407156,0.559815 -0.535156,1.007812 h 0.05664 c 0.298667,0 0.5716,-0.02426 0.822266,-0.07227 0.256,-0.048 0.467481,-0.125756 0.632812,-0.232422 0.170667,-0.112 0.277643,-0.25812 0.320313,-0.439453 0.03733,-0.16 0.01059,-0.298683 -0.08008,-0.416016 -0.08533,-0.122664 -0.240844,-0.183594 -0.464844,-0.183594 z m -55.087891,0.08008 c -0.50133,0 -0.793576,0.202091 -0.878906,0.607422 -0.05333,0.266667 -0.0068,0.473188 0.142578,0.617188 0.154667,0.138661 0.373586,0.207031 0.65625,0.207031 h 0.705078 l 0.302735,-1.431641 z m 50.609375,0.126954 c -0.341331,0 -0.62809,0.136203 -0.857421,0.408203 -0.229333,0.266664 -0.387846,0.609393 -0.478516,1.02539 -0.032,0.165334 -0.05378,0.340678 -0.06445,0.527344 -0.0053,0.186667 0.01202,0.362011 0.05469,0.527344 0.048,0.165333 0.130714,0.301536 0.248047,0.408203 0.122667,0.101334 0.295006,0.152344 0.513672,0.152344 0.293333,0 0.541474,-0.09263 0.744141,-0.279297 0.202666,-0.192 0.366143,-0.449534 0.49414,-0.769531 0.133334,-0.325333 0.242795,-0.690371 0.328125,-1.095704 -0.07467,-0.250664 -0.191562,-0.462674 -0.351562,-0.638671 -0.154667,-0.176005 -0.364194,-0.265625 -0.63086,-0.265625 z M 6.21875,49.414062 5.7773437,51.494141 h 0.9765625 c 0.7786645,0 1.2239379,-0.318461 1.3359376,-0.953125 0.064,-0.362667 -0.00189,-0.640032 -0.1992188,-0.832032 -0.1919994,-0.19733 -0.4985898,-0.294921 -0.9199219,-0.294922 z m 45.824219,1.759766 h 0.767578 l 0.03125,0.08789 c -0.133333,0.282664 -0.296284,0.591734 -0.488281,0.927734 -0.192,0.336 -0.37974,0.650028 -0.566407,0.943359 H 51.25 c 0.138667,-0.314664 0.279828,-0.650479 0.423828,-1.007812 0.144,-0.357333 0.267808,-0.673839 0.369141,-0.951172 z"
       style="display:inline;fill:#000000"
       id="path6" /></g></svg>
