<?xml version="1.0" encoding="UTF-8" standalone="no"?>
<svg
   width="256"
   height="32"
   viewBox="0 0 256 32"
   fill="none"
   version="1.1"
   id="svg21"
   sodipodi:docname="cargo.svg"
   inkscape:version="1.4.2 (ebf0e940d0, 2025-05-08)"
   xmlns:inkscape="http://www.inkscape.org/namespaces/inkscape"
   xmlns:sodipodi="http://sodipodi.sourceforge.net/DTD/sodipodi-0.dtd"
   xmlns="http://www.w3.org/2000/svg"
   xmlns:svg="http://www.w3.org/2000/svg">
  <defs
     id="defs21" />
  <sodipodi:namedview
     id="namedview21"
     pagecolor="#ffffff"
     bordercolor="#000000"
     borderopacity="0.25"
     inkscape:showpageshadow="2"
     inkscape:pageopacity="0.0"
     inkscape:pagecheckerboard="0"
     inkscape:deskcolor="#d1d1d1"
     inkscape:zoom="3.4785156"
     inkscape:cx="98.461538"
     inkscape:cy="37.084784"
     inkscape:window-width="1920"
     inkscape:window-height="1052"
     inkscape:window-x="0"
     inkscape:window-y="0"
     inkscape:window-maximized="1"
     inkscape:current-layer="svg21" />
  <path
     fill-rule="evenodd"
     clip-rule="evenodd"
     d="M10.3599 9.76624C10.2014 9.63414 10.0876 9.45694 10.0342 9.25865C9.98074 9.06037 9.99014 8.8506 10.0611 8.65779C10.1321 8.46498 10.2612 8.29845 10.431 8.18078C10.6008 8.06311 10.803 8 11.0102 8H15.99C16.0972 8 16.2 8.04216 16.2757 8.11722C16.3515 8.19227 16.3941 8.29407 16.3941 8.40021V14.793L10.3599 9.76624ZM23.4014 8H18.0385C17.9035 8 17.7739 8.05081 17.6784 8.14124C17.5829 8.23168 17.5293 8.35434 17.5293 8.48223V23.5178C17.5293 23.6457 17.5829 23.7683 17.6784 23.8588C17.7739 23.9492 17.9035 24 18.0385 24H22.0384C22.1735 24 22.303 23.9492 22.3985 23.8588C22.494 23.7683 22.5476 23.6457 22.5476 23.5178V15.3911L27.9868 23.7703C28.0323 23.8405 28.0961 23.8985 28.1721 23.9387C28.248 23.9789 28.3336 24 28.4206 24H33.9606C34.0956 24 34.2252 23.9492 34.3207 23.8588C34.4162 23.7683 34.4698 23.6457 34.4698 23.5178V8.48223C34.4698 8.4189 34.4566 8.3562 34.431 8.29769C34.4055 8.23918 34.3679 8.18602 34.3207 8.14124C34.2734 8.09646 34.2172 8.06094 34.1554 8.03671C34.0937 8.01247 34.0274 8 33.9606 8H29.8395C29.7044 8 29.5749 8.05081 29.4794 8.14124C29.3839 8.23168 29.3302 8.35434 29.3302 8.48223V16.695L23.8352 8.2297C23.7897 8.15951 23.7259 8.10154 23.6499 8.06133C23.574 8.02111 23.4884 8 23.4014 8ZM41.9657 22.7414C41.9122 22.5431 41.7985 22.3659 41.6399 22.2338L35.6058 17.207V23.5999C35.6058 23.6524 35.6162 23.7044 35.6366 23.753C35.6569 23.8016 35.6866 23.8457 35.7241 23.8828C35.7617 23.92 35.8062 23.9495 35.8552 23.9696C35.9043 23.9897 35.9568 24.0001 36.0099 24.0001H40.9897C41.1969 24.0001 41.3991 23.937 41.5689 23.8193C41.7386 23.7016 41.8678 23.5351 41.9387 23.3423C42.0097 23.1495 42.0191 22.9397 41.9657 22.7414Z"
     fill="#A46106"
     id="path1" />
  <g
     id="g21"
     style="display:none">
    <path
       d="m 245.892,14.244 c 0.76,0 1.34,0.192 1.74,0.576 0.4,0.384 0.6,1.004 0.6,1.86 V 21 h -2.292 v -3.612 c 0,-0.504 -0.068,-0.852 -0.204,-1.044 -0.136,-0.2 -0.336,-0.3 -0.6,-0.3 -0.368,0 -0.624,0.164 -0.768,0.492 -0.144,0.32 -0.216,0.776 -0.216,1.368 V 21 h -2.292 v -3.612 c 0,-0.48 -0.064,-0.824 -0.192,-1.032 -0.128,-0.208 -0.32,-0.312 -0.576,-0.312 -0.392,0 -0.66,0.176 -0.804,0.528 -0.136,0.352 -0.204,0.86 -0.204,1.524 V 21 h -2.292 v -6.636 h 1.728 l 0.336,0.816 h 0.06 c 0.176,-0.272 0.428,-0.496 0.756,-0.672 0.336,-0.176 0.748,-0.264 1.236,-0.264 0.488,0 0.888,0.084 1.2,0.252 0.32,0.16 0.58,0.384 0.78,0.672 h 0.072 c 0.208,-0.296 0.476,-0.524 0.804,-0.684 0.336,-0.16 0.712,-0.24 1.128,-0.24 z"
       fill="#a46106"
       id="path2" />
    <path
       d="m 236.175,14.244 c 0.128,0 0.26,0.008 0.396,0.024 0.136,0.016 0.236,0.032 0.3,0.048 l -0.204,2.16 c -0.08,-0.016 -0.18,-0.032 -0.3,-0.048 -0.112,-0.016 -0.272,-0.024 -0.48,-0.024 -0.192,0 -0.4,0.028 -0.624,0.084 -0.216,0.056 -0.404,0.18 -0.564,0.372 -0.16,0.184 -0.24,0.476 -0.24,0.876 V 21 h -2.292 v -6.636 h 1.704 l 0.36,1.056 h 0.108 c 0.184,-0.328 0.44,-0.604 0.768,-0.828 0.336,-0.232 0.692,-0.348 1.068,-0.348 z"
       fill="#a46106"
       id="path3" />
    <path
       d="m 230.862,17.664 c 0,1.112 -0.296,1.968 -0.888,2.568 -0.592,0.592 -1.404,0.888 -2.436,0.888 -0.64,0 -1.208,-0.132 -1.704,-0.396 -0.496,-0.272 -0.888,-0.664 -1.176,-1.176 -0.28,-0.52 -0.42,-1.148 -0.42,-1.884 0,-1.096 0.296,-1.94 0.888,-2.532 0.592,-0.592 1.408,-0.888 2.448,-0.888 0.64,0 1.204,0.132 1.692,0.396 0.496,0.264 0.884,0.652 1.164,1.164 0.288,0.504 0.432,1.124 0.432,1.86 z m -4.296,0 c 0,0.568 0.076,1.004 0.228,1.308 0.152,0.296 0.408,0.444 0.768,0.444 0.352,0 0.6,-0.148 0.744,-0.444 0.152,-0.304 0.228,-0.74 0.228,-1.308 0,-0.568 -0.076,-0.996 -0.228,-1.284 -0.144,-0.288 -0.396,-0.432 -0.756,-0.432 -0.344,0 -0.596,0.144 -0.756,0.432 -0.152,0.288 -0.228,0.716 -0.228,1.284 z"
       fill="#a46106"
       id="path4" />
    <path
       d="m 220.47,21 h -2.28 v -8.568 h 5.064 v 1.86 h -2.784 v 1.632 h 2.568 v 1.86 h -2.568 z"
       fill="#a46106"
       id="path5" />
    <path
       d="m 211.053,14.244 c 0.688,0 1.248,0.192 1.68,0.576 0.432,0.384 0.648,1.004 0.648,1.86 V 21 h -2.292 v -3.624 c 0,-0.44 -0.064,-0.772 -0.192,-0.996 -0.128,-0.224 -0.332,-0.336 -0.612,-0.336 -0.432,0 -0.724,0.176 -0.876,0.528 -0.144,0.352 -0.216,0.86 -0.216,1.524 V 21 h -2.292 v -6.636 h 1.728 l 0.312,0.876 h 0.084 c 0.208,-0.312 0.48,-0.556 0.816,-0.732 0.344,-0.176 0.748,-0.264 1.212,-0.264 z"
       fill="#a46106"
       id="path6" />
    <path
       d="m 205.597,17.664 c 0,1.112 -0.296,1.968 -0.888,2.568 -0.592,0.592 -1.404,0.888 -2.436,0.888 -0.64,0 -1.208,-0.132 -1.704,-0.396 -0.496,-0.272 -0.888,-0.664 -1.176,-1.176 -0.28,-0.52 -0.42,-1.148 -0.42,-1.884 0,-1.096 0.296,-1.94 0.888,-2.532 0.592,-0.592 1.408,-0.888 2.448,-0.888 0.64,0 1.204,0.132 1.692,0.396 0.496,0.264 0.884,0.652 1.164,1.164 0.288,0.504 0.432,1.124 0.432,1.86 z m -4.296,0 c 0,0.568 0.076,1.004 0.228,1.308 0.152,0.296 0.408,0.444 0.768,0.444 0.352,0 0.6,-0.148 0.744,-0.444 0.152,-0.304 0.228,-0.74 0.228,-1.308 0,-0.568 -0.076,-0.996 -0.228,-1.284 -0.144,-0.288 -0.396,-0.432 -0.756,-0.432 -0.344,0 -0.596,0.144 -0.756,0.432 -0.152,0.288 -0.228,0.716 -0.228,1.284 z"
       fill="#a46106"
       id="path7" />
    <path
       d="m 196.522,11.688 c 0.328,0 0.612,0.068 0.852,0.204 0.248,0.136 0.372,0.408 0.372,0.816 0,0.392 -0.124,0.66 -0.372,0.804 -0.24,0.136 -0.524,0.204 -0.852,0.204 -0.336,0 -0.624,-0.068 -0.864,-0.204 -0.232,-0.144 -0.348,-0.412 -0.348,-0.804 0,-0.408 0.116,-0.68 0.348,-0.816 0.24,-0.136 0.528,-0.204 0.864,-0.204 z m 1.14,2.676 V 21 h -2.292 v -6.636 z"
       fill="#a46106"
       id="path8" />
    <path
       d="m 193.091,19.308 c 0.208,0 0.396,-0.02 0.564,-0.06 0.176,-0.048 0.356,-0.104 0.54,-0.168 v 1.668 c -0.248,0.104 -0.512,0.192 -0.792,0.264 -0.28,0.072 -0.636,0.108 -1.068,0.108 -0.432,0 -0.812,-0.068 -1.14,-0.204 -0.32,-0.136 -0.572,-0.368 -0.756,-0.696 -0.184,-0.336 -0.276,-0.804 -0.276,-1.404 V 16.08 h -0.804 v -0.936 l 1.02,-0.72 0.588,-1.392 h 1.5 v 1.332 h 1.632 v 1.716 h -1.632 v 2.58 c 0,0.432 0.208,0.648 0.624,0.648 z"
       fill="#a46106"
       id="path9" />
    <path
       d="m 187.101,11.688 c 0.328,0 0.612,0.068 0.852,0.204 0.248,0.136 0.372,0.408 0.372,0.816 0,0.392 -0.124,0.66 -0.372,0.804 -0.24,0.136 -0.524,0.204 -0.852,0.204 -0.336,0 -0.624,-0.068 -0.864,-0.204 -0.232,-0.144 -0.348,-0.412 -0.348,-0.804 0,-0.408 0.116,-0.68 0.348,-0.816 0.24,-0.136 0.528,-0.204 0.864,-0.204 z m 1.14,2.676 V 21 h -2.292 v -6.636 z"
       fill="#a46106"
       id="path10" />
    <path
       d="m 184.669,18.96 c 0,0.416 -0.096,0.788 -0.288,1.116 -0.184,0.328 -0.484,0.584 -0.9,0.768 -0.408,0.184 -0.948,0.276 -1.62,0.276 -0.472,0 -0.896,-0.028 -1.272,-0.084 -0.368,-0.048 -0.744,-0.144 -1.128,-0.288 v -1.836 c 0.424,0.192 0.852,0.332 1.284,0.42 0.432,0.08 0.772,0.12 1.02,0.12 0.496,0 0.744,-0.112 0.744,-0.336 0,-0.096 -0.04,-0.18 -0.12,-0.252 -0.08,-0.072 -0.224,-0.152 -0.432,-0.24 -0.2,-0.088 -0.488,-0.208 -0.864,-0.36 -0.552,-0.232 -0.964,-0.496 -1.236,-0.792 -0.272,-0.304 -0.408,-0.728 -0.408,-1.272 0,-0.648 0.248,-1.136 0.744,-1.464 0.504,-0.328 1.168,-0.492 1.992,-0.492 0.44,0 0.852,0.048 1.236,0.144 0.384,0.096 0.784,0.236 1.2,0.42 l -0.624,1.476 c -0.328,-0.152 -0.66,-0.272 -0.996,-0.36 -0.336,-0.088 -0.604,-0.132 -0.804,-0.132 -0.376,0 -0.564,0.092 -0.564,0.276 0,0.08 0.032,0.152 0.096,0.216 0.072,0.064 0.204,0.136 0.396,0.216 0.192,0.08 0.472,0.196 0.84,0.348 0.384,0.152 0.7,0.32 0.948,0.504 0.256,0.176 0.444,0.392 0.564,0.648 0.128,0.248 0.192,0.568 0.192,0.96 z"
       fill="#a46106"
       id="path11" />
    <path
       d="m 176.999,11.688 c 0.328,0 0.612,0.068 0.852,0.204 0.248,0.136 0.372,0.408 0.372,0.816 0,0.392 -0.124,0.66 -0.372,0.804 -0.24,0.136 -0.524,0.204 -0.852,0.204 -0.336,0 -0.624,-0.068 -0.864,-0.204 -0.232,-0.144 -0.348,-0.412 -0.348,-0.804 0,-0.408 0.116,-0.68 0.348,-0.816 0.24,-0.136 0.528,-0.204 0.864,-0.204 z m 1.14,2.676 V 21 h -2.292 v -6.636 z"
       fill="#a46106"
       id="path12" />
    <path
       d="M 174.252,14.364 V 21 h -1.728 l -0.288,-0.828 h -0.132 c -0.208,0.336 -0.492,0.58 -0.852,0.732 -0.36,0.144 -0.744,0.216 -1.152,0.216 -0.432,0 -0.824,-0.084 -1.176,-0.252 -0.352,-0.168 -0.632,-0.432 -0.84,-0.792 -0.2,-0.36 -0.3,-0.824 -0.3,-1.392 v -4.32 h 2.292 v 3.624 c 0,0.432 0.06,0.76 0.18,0.984 0.128,0.224 0.332,0.336 0.612,0.336 0.432,0 0.72,-0.176 0.864,-0.528 0.152,-0.352 0.228,-0.856 0.228,-1.512 v -2.904 z"
       fill="#a46106"
       id="path13" />
    <path
       d="m 163.925,21.132 c 0,-0.328 0.024,-0.652 0.072,-0.972 h -0.072 c -0.152,0.264 -0.368,0.492 -0.648,0.684 -0.28,0.184 -0.648,0.276 -1.104,0.276 -0.704,0 -1.276,-0.292 -1.716,-0.876 -0.44,-0.584 -0.66,-1.436 -0.66,-2.556 0,-1.12 0.224,-1.972 0.672,-2.556 0.448,-0.592 1.028,-0.888 1.74,-0.888 0.464,0 0.836,0.092 1.116,0.276 0.288,0.176 0.52,0.396 0.696,0.66 h 0.048 l 0.168,-0.816 h 1.98 v 9.516 h -2.292 z m -0.816,-1.788 c 0.376,0 0.636,-0.116 0.78,-0.348 0.144,-0.24 0.216,-0.596 0.216,-1.068 v -0.276 c 0,-0.52 -0.072,-0.92 -0.216,-1.2 -0.136,-0.288 -0.408,-0.432 -0.816,-0.432 -0.632,0 -0.948,0.568 -0.948,1.704 0,0.576 0.08,0.992 0.24,1.248 0.16,0.248 0.408,0.372 0.744,0.372 z"
       fill="#a46106"
       id="path14" />
    <path
       d="m 156.64,21.12 c -1.008,0 -1.812,-0.272 -2.412,-0.816 -0.6,-0.544 -0.9,-1.408 -0.9,-2.592 0,-0.808 0.152,-1.464 0.456,-1.968 0.304,-0.512 0.716,-0.888 1.236,-1.128 0.528,-0.248 1.128,-0.372 1.8,-0.372 0.408,0 0.792,0.044 1.152,0.132 0.368,0.088 0.708,0.212 1.02,0.372 l -0.672,1.692 c -0.272,-0.12 -0.528,-0.216 -0.768,-0.288 -0.232,-0.072 -0.476,-0.108 -0.732,-0.108 -0.344,0 -0.624,0.136 -0.84,0.408 -0.216,0.272 -0.324,0.688 -0.324,1.248 0,0.576 0.108,0.988 0.324,1.236 0.224,0.24 0.508,0.36 0.852,0.36 0.328,0 0.656,-0.052 0.984,-0.156 0.336,-0.104 0.652,-0.248 0.948,-0.432 v 1.824 c -0.272,0.176 -0.58,0.32 -0.924,0.432 -0.344,0.104 -0.744,0.156 -1.2,0.156 z"
       fill="#a46106"
       id="path15" />
    <path
       d="m 150.297,21 -0.42,-1.608 h -2.784 L 146.661,21 h -2.544 l 2.796,-8.604 h 3.084 L 152.829,21 Z m -1.272,-4.908 c -0.04,-0.152 -0.096,-0.368 -0.168,-0.648 -0.072,-0.288 -0.144,-0.584 -0.216,-0.888 -0.072,-0.304 -0.128,-0.552 -0.168,-0.744 -0.032,0.192 -0.084,0.432 -0.156,0.72 -0.064,0.288 -0.132,0.572 -0.204,0.852 -0.064,0.28 -0.12,0.516 -0.168,0.708 l -0.372,1.404 h 1.824 z"
       fill="#a46106"
       id="path16" />
    <path
       d="m 140.487,17.664 c 0,1.112 -0.296,1.968 -0.888,2.568 -0.592,0.592 -1.404,0.888 -2.436,0.888 -0.64,0 -1.208,-0.132 -1.704,-0.396 -0.496,-0.272 -0.888,-0.664 -1.176,-1.176 -0.28,-0.52 -0.42,-1.148 -0.42,-1.884 0,-1.096 0.296,-1.94 0.888,-2.532 0.592,-0.592 1.408,-0.888 2.448,-0.888 0.64,0 1.204,0.132 1.692,0.396 0.496,0.264 0.884,0.652 1.164,1.164 0.288,0.504 0.432,1.124 0.432,1.86 z m -4.296,0 c 0,0.568 0.076,1.004 0.228,1.308 0.152,0.296 0.408,0.444 0.768,0.444 0.352,0 0.6,-0.148 0.744,-0.444 0.152,-0.304 0.228,-0.74 0.228,-1.308 0,-0.568 -0.076,-0.996 -0.228,-1.284 -0.144,-0.288 -0.396,-0.432 -0.756,-0.432 -0.344,0 -0.596,0.144 -0.756,0.432 -0.152,0.288 -0.228,0.716 -0.228,1.284 z"
       fill="#a46106"
       id="path17" />
    <path
       d="m 128.564,14.244 c 0.464,0 0.836,0.092 1.116,0.276 0.288,0.176 0.52,0.396 0.696,0.66 h 0.048 l 0.168,-0.816 h 1.98 v 6.648 c 0,0.936 -0.292,1.648 -0.876,2.136 -0.576,0.488 -1.464,0.732 -2.664,0.732 -0.536,0 -1.008,-0.028 -1.416,-0.084 -0.408,-0.056 -0.8,-0.156 -1.176,-0.3 v -1.908 c 0.4,0.168 0.78,0.292 1.14,0.372 0.36,0.088 0.8,0.132 1.32,0.132 0.92,0 1.38,-0.328 1.38,-0.984 v -0.12 c 0,-0.232 0.024,-0.508 0.072,-0.828 h -0.072 c -0.152,0.264 -0.368,0.492 -0.648,0.684 -0.28,0.184 -0.648,0.276 -1.104,0.276 -0.704,0 -1.276,-0.292 -1.716,-0.876 -0.44,-0.584 -0.66,-1.436 -0.66,-2.556 0,-1.12 0.224,-1.972 0.672,-2.556 0.448,-0.592 1.028,-0.888 1.74,-0.888 z m 0.864,1.776 c -0.632,0 -0.948,0.568 -0.948,1.704 0,0.576 0.08,0.992 0.24,1.248 0.16,0.248 0.408,0.372 0.744,0.372 0.376,0 0.636,-0.116 0.78,-0.348 0.144,-0.24 0.216,-0.596 0.216,-1.068 v -0.276 c 0,-0.52 -0.072,-0.92 -0.216,-1.2 -0.136,-0.288 -0.408,-0.432 -0.816,-0.432 z"
       fill="#a46106"
       id="path18" />
    <path
       d="m 124.941,14.244 c 0.128,0 0.26,0.008 0.396,0.024 0.136,0.016 0.236,0.032 0.3,0.048 l -0.204,2.16 c -0.08,-0.016 -0.18,-0.032 -0.3,-0.048 -0.112,-0.016 -0.272,-0.024 -0.48,-0.024 -0.192,0 -0.4,0.028 -0.624,0.084 -0.216,0.056 -0.404,0.18 -0.564,0.372 -0.16,0.184 -0.24,0.476 -0.24,0.876 V 21 h -2.292 v -6.636 h 1.704 l 0.36,1.056 h 0.108 c 0.184,-0.328 0.44,-0.604 0.768,-0.828 0.336,-0.232 0.692,-0.348 1.068,-0.348 z"
       fill="#a46106"
       id="path19" />
    <path
       d="m 116.696,14.244 c 0.84,0 1.496,0.208 1.968,0.624 0.472,0.416 0.708,1.008 0.708,1.776 V 21 h -1.584 l -0.444,-0.876 h -0.048 c -0.184,0.232 -0.376,0.424 -0.576,0.576 -0.192,0.144 -0.416,0.248 -0.672,0.312 -0.256,0.072 -0.568,0.108 -0.936,0.108 -0.576,0 -1.056,-0.176 -1.44,-0.528 -0.384,-0.352 -0.576,-0.892 -0.576,-1.62 0,-0.712 0.244,-1.24 0.732,-1.584 0.496,-0.344 1.212,-0.536 2.148,-0.576 l 1.104,-0.036 V 16.68 c 0,-0.296 -0.072,-0.504 -0.216,-0.624 -0.144,-0.128 -0.34,-0.192 -0.588,-0.192 -0.264,0 -0.556,0.048 -0.876,0.144 -0.32,0.088 -0.644,0.204 -0.972,0.348 l -0.66,-1.512 c 0.384,-0.2 0.816,-0.348 1.296,-0.444 0.488,-0.104 1.032,-0.156 1.632,-0.156 z m -0.132,3.816 c -0.416,0.016 -0.712,0.092 -0.888,0.228 -0.168,0.128 -0.252,0.312 -0.252,0.552 0,0.224 0.06,0.392 0.18,0.504 0.12,0.104 0.28,0.156 0.48,0.156 0.28,0 0.516,-0.088 0.708,-0.264 0.2,-0.176 0.3,-0.404 0.3,-0.684 v -0.516 z"
       fill="#a46106"
       id="path20" />
    <path
       d="m 109.611,14.208 c -0.544,0 -0.972,0.224 -1.284,0.672 -0.312,0.448 -0.468,1.072 -0.468,1.872 0,0.808 0.156,1.424 0.468,1.848 0.312,0.416 0.784,0.624 1.416,0.624 0.376,0 0.74,-0.052 1.092,-0.156 0.36,-0.104 0.72,-0.232 1.08,-0.384 v 1.956 c -0.376,0.168 -0.764,0.288 -1.164,0.36 -0.392,0.08 -0.812,0.12 -1.26,0.12 -0.928,0 -1.688,-0.184 -2.28,-0.552 -0.592,-0.368 -1.028,-0.88 -1.308,-1.536 -0.28,-0.664 -0.42,-1.428 -0.42,-2.292 0,-0.864 0.16,-1.628 0.48,-2.292 0.32,-0.664 0.788,-1.184 1.404,-1.56 0.624,-0.384 1.38,-0.576 2.268,-0.576 0.416,0 0.852,0.048 1.308,0.144 0.456,0.096 0.904,0.248 1.344,0.456 l -0.708,1.824 c -0.312,-0.152 -0.628,-0.276 -0.948,-0.372 -0.32,-0.104 -0.66,-0.156 -1.02,-0.156 z"
       fill="#a46106"
       id="path21" />
  </g>
  <text
     xml:space="preserve"
     style="font-style:normal;font-variant:normal;font-weight:900;font-stretch:normal;font-size:12px;font-family:'Noto Sans Symbols';-inkscape-font-specification:'Noto Sans Symbols, Heavy';font-variant-ligatures:normal;font-variant-caps:normal;font-variant-numeric:normal;font-variant-east-asian:normal;text-align:start;writing-mode:lr-tb;direction:ltr;text-anchor:start;fill:#a46106;fill-opacity:1"
     x="77.236862"
     y="21.611996"
     id="text21"><tspan
       sodipodi:role="line"
       id="tspan1"
       x="77.236862"
       y="21.611996">Бланк покупки снабжения</tspan></text>
</svg>
