<?xml version="1.0" encoding="UTF-8" standalone="no"?>
<svg
   width="256"
   height="32"
   viewBox="0 0 256 32"
   fill="none"
   version="1.1"
   id="svg24"
   sodipodi:docname="science.svg"
   inkscape:version="1.4.2 (ebf0e940d0, 2025-05-08)"
   xmlns:inkscape="http://www.inkscape.org/namespaces/inkscape"
   xmlns:sodipodi="http://sodipodi.sourceforge.net/DTD/sodipodi-0.dtd"
   xmlns="http://www.w3.org/2000/svg"
   xmlns:svg="http://www.w3.org/2000/svg">
  <defs
     id="defs24" />
  <sodipodi:namedview
     id="namedview24"
     pagecolor="#ffffff"
     bordercolor="#000000"
     borderopacity="0.25"
     inkscape:showpageshadow="2"
     inkscape:pageopacity="0.0"
     inkscape:pagecheckerboard="0"
     inkscape:deskcolor="#d1d1d1"
     showguides="true"
     inkscape:zoom="3.5214844"
     inkscape:cx="137.58403"
     inkscape:cy="33.792568"
     inkscape:window-width="1920"
     inkscape:window-height="1052"
     inkscape:window-x="0"
     inkscape:window-y="0"
     inkscape:window-maximized="1"
     inkscape:current-layer="svg24" />
  <path
     fill-rule="evenodd"
     clip-rule="evenodd"
     d="M10.3599 9.76624C10.2014 9.63414 10.0876 9.45694 10.0342 9.25865C9.98074 9.06037 9.99014 8.8506 10.0611 8.65779C10.1321 8.46498 10.2612 8.29845 10.431 8.18078C10.6008 8.06311 10.803 8 11.0102 8H15.99C16.0972 8 16.2 8.04216 16.2757 8.11722C16.3515 8.19227 16.3941 8.29407 16.3941 8.40021V14.793L10.3599 9.76624ZM23.4014 8H18.0385C17.9035 8 17.7739 8.05081 17.6784 8.14124C17.5829 8.23168 17.5293 8.35434 17.5293 8.48223V23.5178C17.5293 23.6457 17.5829 23.7683 17.6784 23.8588C17.7739 23.9492 17.9035 24 18.0385 24H22.0384C22.1735 24 22.303 23.9492 22.3985 23.8588C22.494 23.7683 22.5476 23.6457 22.5476 23.5178V15.3911L27.9868 23.7703C28.0323 23.8405 28.0961 23.8985 28.1721 23.9387C28.248 23.9789 28.3336 24 28.4206 24H33.9606C34.0956 24 34.2252 23.9492 34.3207 23.8588C34.4162 23.7683 34.4698 23.6457 34.4698 23.5178V8.48223C34.4698 8.4189 34.4566 8.3562 34.431 8.29769C34.4055 8.23918 34.3679 8.18602 34.3207 8.14124C34.2734 8.09646 34.2172 8.06094 34.1554 8.03671C34.0937 8.01247 34.0274 8 33.9606 8H29.8395C29.7044 8 29.5749 8.05081 29.4794 8.14124C29.3839 8.23168 29.3302 8.35434 29.3302 8.48223V16.695L23.8352 8.2297C23.7897 8.15951 23.7259 8.10154 23.6499 8.06133C23.574 8.02111 23.4884 8 23.4014 8ZM41.9657 22.7414C41.9122 22.5431 41.7985 22.3659 41.6399 22.2338L35.6058 17.207V23.5999C35.6058 23.6524 35.6162 23.7044 35.6366 23.753C35.6569 23.8016 35.6866 23.8457 35.7241 23.8828C35.7617 23.92 35.8062 23.9495 35.8552 23.9696C35.9043 23.9897 35.9568 24.0001 36.0099 24.0001H40.9897C41.1969 24.0001 41.3991 23.937 41.5689 23.8193C41.7386 23.7016 41.8678 23.5351 41.9387 23.3423C42.0097 23.1495 42.0191 22.9397 41.9657 22.7414Z"
     fill="#D381C9"
     id="path1" />
  <text
     xml:space="preserve"
     style="font-style:normal;font-variant:normal;font-weight:900;font-stretch:normal;font-size:12px;font-family:'Noto Sans Symbols';-inkscape-font-specification:'Noto Sans Symbols, Heavy';font-variant-ligatures:normal;font-variant-caps:normal;font-variant-numeric:normal;font-variant-east-asian:normal;text-align:start;writing-mode:lr-tb;direction:ltr;text-anchor:start;fill:#d381c9;fill-opacity:1"
     x="92.526321"
     y="21.612007"
     id="text21"><tspan
       sodipodi:role="line"
       id="tspan24"
       x="92.526321"
       y="21.612007">Бланк научной покупки</tspan></text>
</svg>
