<?xml version="1.0" standalone="no"?>
<!DOCTYPE svg PUBLIC "-//W3C//DTD SVG 20010904//EN"
 "http://www.w3.org/TR/2001/REC-SVG-20010904/DTD/svg10.dtd">
<svg version="1.0" xmlns="http://www.w3.org/2000/svg"
 width="1920.000000pt" height="1080.000000pt" viewBox="0 0 1920.000000 1080.000000"
 preserveAspectRatio="xMidYMid meet">

<g transform="translate(0.000000,1080.000000) scale(0.100000,-0.100000)"
fill="#000000" stroke="none">
<path d="M0 8220 c0 -2433 1 -2582 17 -2608 10 -15 23 -32 29 -39 7 -7 42 -61
80 -120 37 -59 75 -117 84 -128 10 -11 34 -49 54 -85 20 -36 55 -94 76 -130
22 -36 43 -71 48 -77 4 -7 28 -45 53 -85 25 -40 83 -134 129 -208 228 -367
493 -685 702 -843 199 -149 380 -232 618 -284 113 -24 403 -76 530 -94 126
-18 448 -70 680 -110 370 -64 568 -106 773 -165 64 -19 123 -34 130 -34 6 0
25 -7 40 -15 16 -8 47 -19 70 -25 41 -11 139 -46 267 -97 154 -61 382 -185
530 -287 181 -125 423 -360 520 -506 8 -12 20 -28 25 -34 19 -21 93 -140 139
-225 62 -112 116 -234 160 -361 20 -58 42 -116 48 -130 5 -14 21 -59 33 -100
112 -358 231 -619 367 -797 63 -83 191 -209 278 -274 36 -27 71 -54 78 -60 39
-33 290 -176 442 -252 l95 -47 1188 2 1188 3 -81 115 c-112 157 -152 204 -309
361 -271 270 -520 452 -1141 837 -405 251 -589 418 -871 797 -85 114 -94 126
-275 400 -198 298 -307 453 -416 589 -32 39 -53 73 -47 75 13 4 45 -25 73 -66
11 -17 53 -73 92 -125 77 -100 113 -153 286 -408 264 -391 290 -428 437 -615
96 -122 304 -328 405 -400 15 -11 48 -36 73 -55 43 -32 221 -147 423 -271 443
-273 731 -489 971 -728 184 -184 245 -256 342 -402 l72 -109 1255 0 1255 1 75
82 c168 183 451 436 586 522 65 42 199 110 234 120 14 3 -24 -18 -85 -48 -190
-93 -344 -216 -620 -492 l-180 -180 159 -3 160 -3 50 48 51 48 -44 -47 -45
-48 2405 0 2405 0 55 67 c393 489 930 761 1783 904 l196 33 -1 876 c-1 810 -2
871 -17 825 -130 -416 -229 -649 -386 -905 -275 -451 -628 -779 -1061 -986
-314 -150 -654 -224 -960 -211 -329 15 -500 89 -950 408 -136 97 -358 221
-445 249 -207 67 -315 87 -525 97 -170 7 -401 -15 -610 -58 -285 -60 -350 -69
-520 -75 -646 -24 -1313 202 -1825 616 -240 194 -511 515 -635 751 -15 30 -41
79 -57 109 -33 63 -149 333 -172 400 -8 25 -33 97 -54 160 -44 127 -82 251
-82 269 0 6 4 11 9 11 6 0 33 -73 62 -162 131 -412 251 -679 417 -933 437
-667 1188 -1106 2027 -1185 255 -24 444 -11 740 51 400 83 690 96 985 44 168
-29 373 -110 538 -212 75 -46 232 -152 242 -163 12 -13 242 -162 305 -197 182
-101 332 -142 545 -150 400 -15 841 112 1208 349 311 201 571 472 780 812 180
291 312 607 422 1011 19 68 20 136 20 2531 l0 2461 -132 -39 c-73 -22 -232
-72 -353 -113 -992 -331 -1579 -862 -1770 -1600 -45 -174 -56 -269 -62 -510
-6 -281 8 -463 71 -872 25 -159 53 -349 62 -423 22 -159 24 -436 5 -555 -38
-242 -117 -439 -216 -539 -200 -201 -476 -159 -1065 164 -431 236 -782 390
-1020 446 -129 30 -147 33 -263 49 -146 19 -298 19 -491 0 -135 -13 -168 -13
-155 -1 2 2 64 9 138 15 583 48 970 -51 1669 -427 378 -204 468 -247 629 -302
407 -140 634 12 741 495 25 111 27 138 27 355 0 247 2 229 -71 692 -92 587
-103 923 -44 1263 78 448 290 819 645 1130 363 319 772 520 1490 734 l160 48
3 1497 2 1496 -654 0 -654 0 -16 -22 -17 -23 11 22 11 23 -2774 0 -2774 0 -38
-127 c-124 -420 -212 -830 -331 -1546 -76 -452 -114 -595 -200 -752 -77 -139
-172 -229 -309 -296 -206 -100 -409 -70 -546 79 -100 109 -134 219 -133 422 2
348 125 596 629 1275 272 367 441 648 515 860 10 27 21 58 25 68 7 16 -32 17
-731 17 l-739 0 -79 -70 c-43 -39 -82 -70 -85 -70 -3 1 28 32 69 70 l75 69
-1250 0 -1250 0 -80 -76 c-44 -42 -159 -153 -255 -247 -96 -94 -213 -204 -260
-243 -214 -179 -553 -357 -864 -453 -360 -112 -778 -169 -1146 -155 -623 23
-1032 98 -1395 257 -143 63 -247 123 -442 254 -185 125 -268 173 -358 205 -27
10 -43 18 -34 18 49 2 203 -81 419 -227 102 -68 192 -127 200 -130 8 -3 35
-18 60 -32 70 -41 294 -134 405 -168 204 -63 478 -116 732 -142 173 -18 666
-24 824 -11 418 36 816 144 1154 313 66 33 132 69 146 79 15 10 30 19 33 19
12 0 199 131 261 183 33 27 161 148 285 267 124 120 243 234 265 254 l40 36
-3972 0 -3973 0 0 -2580z m8616 2555 c-11 -8 -24 -15 -30 -15 -5 0 -1 7 10 15
10 8 24 14 29 14 6 0 1 -6 -9 -14z m8395 -18 c-10 -9 -11 -8 -5 6 3 10 9 15
12 12 3 -3 0 -11 -7 -18z m285 -5 c-17 -16 -18 -16 -5 5 7 12 15 20 18 17 3
-2 -3 -12 -13 -22z m-8770 -25 c-10 -7 -57 -36 -105 -66 -384 -241 -620 -551
-548 -724 19 -45 14 -49 -9 -5 -54 105 51 322 245 506 67 63 209 170 306 231
39 25 79 50 90 57 11 7 25 13 30 13 6 0 2 -6 -9 -12z m8468 -2 c-4 -8 -11 -15
-16 -15 -6 0 -5 6 2 15 7 8 14 15 16 15 2 0 1 -7 -2 -15z m-33 -52 c-12 -20
-14 -14 -5 12 4 9 9 14 11 11 3 -2 0 -13 -6 -23z m290 4 c-10 -9 -11 -8 -5 6
3 10 9 15 12 12 3 -3 0 -11 -7 -18z m559 -17 c-6 -11 -13 -20 -16 -20 -2 0 0
9 6 20 6 11 13 20 16 20 2 0 0 -9 -6 -20z m-591 -37 c-28 -47 -29 -48 -29 -37
0 12 38 74 46 74 3 0 -5 -17 -17 -37z m-7025 -75 c-257 -246 -422 -461 -528
-690 -84 -181 -133 -372 -181 -708 -14 -96 -34 -202 -45 -235 -41 -123 -126
-185 -255 -185 -121 0 -207 52 -426 256 -170 159 -304 226 -604 304 -115 30
-119 30 -310 55 -325 41 -730 -1 -1217 -129 -129 -33 -637 -186 -718 -216 -60
-22 -322 -101 -397 -120 -344 -86 -717 -99 -1043 -34 -207 41 -319 99 -575
300 -60 47 -137 104 -170 127 -78 53 -256 141 -430 212 -395 161 -550 267
-642 440 -32 61 -37 79 -37 140 0 53 5 80 21 110 26 50 106 126 161 154 86 44
214 62 282 41 14 -4 -8 -5 -50 -3 -63 5 -88 1 -155 -22 -84 -28 -128 -55 -184
-114 -46 -49 -63 -95 -63 -169 -1 -111 75 -231 209 -332 71 -54 273 -157 428
-218 171 -68 340 -147 411 -192 55 -34 332 -238 354 -260 24 -24 144 -98 203
-124 276 -127 783 -153 1190 -61 126 29 173 42 547 160 802 253 1115 320 1535
332 363 9 621 -33 931 -152 130 -50 197 -95 340 -225 152 -138 213 -185 278
-216 109 -51 232 -37 302 33 66 66 84 122 119 373 69 490 173 751 417 1056 53
66 133 157 179 204 97 99 216 210 225 210 3 0 -43 -46 -102 -102z m6731 73
c-8 -17 -19 -33 -25 -36 -5 -3 -1 10 11 29 25 43 36 48 14 7z m-50 -80 c-8
-17 -21 -33 -27 -37 -8 -5 -7 1 3 16 8 14 19 31 23 38 15 25 16 11 1 -17z
m315 25 c0 -2 -7 -7 -16 -10 -8 -3 -12 -2 -9 4 6 10 25 14 25 6z m1337 -23
c-20 -2 -52 -2 -70 0 -17 2 0 4 38 4 39 0 53 -2 32 -4z m-209 -28 c-108 -30
-192 -71 -283 -140 -193 -144 -362 -381 -460 -643 -15 -40 -29 -71 -31 -69 -8
7 58 168 104 257 116 221 288 415 457 516 87 52 226 103 280 103 11 0 -19 -11
-67 -24z m315 18 c-7 -2 -19 -2 -25 0 -7 3 -2 5 12 5 14 0 19 -2 13 -5z m127
-23 c13 -9 13 -10 0 -9 -8 1 -26 5 -40 9 l-25 8 25 1 c14 0 32 -4 40 -9z
m-1942 -50 c-12 -16 -23 -30 -25 -30 -7 0 20 45 31 52 18 13 18 9 -6 -22z
m297 1 c-8 -17 -19 -33 -25 -36 -5 -3 -1 10 11 29 25 43 36 48 14 7z m1780 -9
c-3 -3 -11 0 -18 7 -9 10 -8 11 6 5 10 -3 15 -9 12 -12z m-1214 -15 c-10 -9
-11 -8 -5 6 3 10 9 15 12 12 3 -3 0 -11 -7 -18z m1254 3 c3 -6 -1 -7 -9 -4
-18 7 -21 14 -7 14 6 0 13 -4 16 -10z m75 -40 c8 -5 11 -10 5 -10 -5 0 -17 5
-25 10 -8 5 -10 10 -5 10 6 0 17 -5 25 -10z m-2250 -24 c0 -2 -8 -10 -17 -17
-16 -13 -17 -12 -4 4 13 16 21 21 21 13z m288 -16 c-7 -10 -14 -17 -17 -15 -4
4 18 35 25 35 2 0 -1 -9 -8 -20z m578 -8 c-17 -16 -18 -16 -5 5 7 12 15 20 18
17 3 -2 -3 -12 -13 -22z m-896 -16 c0 -2 -8 -10 -17 -17 -16 -13 -17 -12 -4 4
13 16 21 21 21 13z m860 -45 c-5 -11 -15 -23 -21 -27 -6 -3 -3 5 6 20 20 30
30 35 15 7z m-910 -21 c-11 -16 -26 -33 -32 -36 -7 -4 1 9 16 29 34 44 46 50
16 7z m273 -43 c-27 -44 -89 -126 -96 -127 -4 0 16 32 45 70 48 64 71 90 51
57z m581 -22 c-9 -14 -18 -25 -21 -25 -5 0 5 18 20 38 17 22 18 13 1 -13z
m-42 -63 c-36 -58 -103 -152 -108 -152 -2 0 23 41 56 90 33 50 63 90 65 90 3
0 -3 -12 -13 -28z m-968 -71 c-27 -33 -50 -58 -52 -56 -5 5 92 123 97 119 2
-2 -18 -30 -45 -63z m280 -46 c-34 -45 -41 -45 -12 0 13 19 27 35 31 35 4 0
-4 -16 -19 -35z m1661 26 c-3 -5 -19 -12 -35 -16 -102 -22 -253 -181 -350
-367 -13 -26 -26 -45 -28 -43 -9 8 81 161 131 223 75 95 124 138 201 177 70
35 92 42 81 26z m106 -1 c57 -11 112 -30 106 -37 -3 -2 -15 1 -28 7 -13 6 -58
17 -99 24 -41 8 -65 14 -54 15 12 1 46 -4 75 -9z m-2151 -100 c-11 -16 -26
-33 -32 -36 -7 -4 1 9 16 29 34 44 46 50 16 7z m331 12 c-5 -9 -19 -26 -32
-37 -17 -15 -15 -10 7 17 32 41 40 48 25 20z m609 -15 c0 -2 -10 -12 -22 -23
l-23 -19 19 23 c18 21 26 27 26 19z m-999 -64 c-5 -10 -74 -81 -153 -158
l-143 -140 131 135 c73 74 140 145 150 158 22 26 28 29 15 5z m339 14 c0 -2
-10 -12 -22 -23 l-23 -19 19 23 c18 21 26 27 26 19z m598 -32 c-13 -19 -27
-35 -31 -35 -4 0 4 16 19 35 34 45 41 45 12 0z m-9380 5 c7 -11 11 -20 9 -20
-2 0 -12 9 -22 20 -10 11 -14 20 -9 20 5 0 15 -9 22 -20z m8712 -53 c0 -2 -10
-12 -22 -23 l-23 -19 19 23 c18 21 26 27 26 19z m610 -27 c-11 -16 -26 -33
-33 -37 -12 -7 0 11 32 50 23 28 24 20 1 -13z m1267 -6 c-3 -3 -12 -4 -19 -1
-8 3 -5 6 6 6 11 1 17 -2 13 -5z m80 0 c-3 -3 -12 -4 -19 -1 -8 3 -5 6 6 6 11
1 17 -2 13 -5z m-148 -28 c-44 -30 -87 -93 -124 -181 -16 -36 -30 -63 -32 -61
-8 8 40 110 80 172 21 33 51 68 65 77 42 26 51 20 11 -7z m216 -4 c-3 -3 -11
0 -18 7 -9 10 -8 11 6 5 10 -3 15 -9 12 -12z m-2085 -5 c0 -2 -12 -14 -27 -28
l-28 -24 24 28 c23 25 31 32 31 24z m2120 -12 c11 -13 10 -14 -4 -9 -9 3 -16
10 -16 15 0 13 6 11 20 -6z m-1516 -30 c-14 -19 -29 -35 -31 -35 -5 0 7 18 36
53 26 31 23 18 -5 -18z m341 -140 c-15 -42 -29 -74 -31 -72 -2 2 8 38 23 80
15 42 29 74 32 72 2 -3 -9 -39 -24 -80z m-412 51 c-10 -13 -20 -22 -22 -20 -4
4 29 44 36 44 2 0 -4 -11 -14 -24z m-59 -71 c-14 -19 -29 -35 -31 -35 -5 0 7
18 36 53 26 31 23 18 -5 -18z m982 -6 c-9 -19 -15 -29 -16 -22 0 18 20 66 25
61 3 -3 -1 -20 -9 -39z m-2016 -6 c0 -5 -13 -17 -28 -27 l-27 -19 24 26 c26
28 31 32 31 20z m320 -36 c0 -2 -17 -19 -37 -38 l-38 -34 34 38 c33 34 41 42
41 34z m652 -24 c-11 -16 -37 -44 -58 -63 -26 -25 -21 -16 16 28 58 66 74 80
42 35z m1002 -57 c-14 -42 -28 -75 -30 -73 -2 2 8 38 22 81 14 42 28 75 30 73
2 -2 -8 -38 -22 -81z m282 47 c-8 -15 -15 -25 -16 -21 0 12 23 58 27 54 3 -2
-2 -17 -11 -33z m-2316 13 c0 -2 -7 -7 -16 -10 -8 -3 -12 -2 -9 4 6 10 25 14
25 6z m1503 -71 c-8 -25 -17 -45 -20 -45 -4 0 2 25 18 68 16 42 18 22 2 -23z
m-1558 25 c-3 -5 -20 -19 -38 -30 -32 -22 -32 -22 3 9 37 32 45 37 35 21z
m2329 -74 c-15 -36 -29 -64 -31 -62 -2 2 8 33 23 70 15 36 29 64 31 62 2 -2
-8 -33 -23 -70z m-1974 61 c0 -2 -11 -14 -25 -27 -14 -13 -25 -21 -25 -17 0 3
10 15 22 27 21 19 28 24 28 17z m580 -113 c-141 -144 -237 -237 -390 -378
-126 -116 -376 -308 -547 -419 -270 -176 -463 -276 -833 -432 -98 -41 -298
-111 -600 -208 -459 -149 -553 -178 -557 -173 -3 3 96 37 219 76 700 223 908
297 1184 423 288 131 555 292 842 508 209 159 321 257 537 474 105 105 194
192 200 193 5 1 -20 -28 -55 -64z m-1065 20 c-34 -29 -91 -69 -75 -51 12 13
105 86 110 86 3 0 -13 -16 -35 -35z m1641 -31 c-8 -15 -15 -25 -16 -21 0 12
23 58 27 54 3 -2 -2 -17 -11 -33z m535 10 c-12 -20 -14 -14 -5 12 4 9 9 14 11
11 3 -2 0 -13 -6 -23z m-1801 14 c0 -2 -10 -12 -22 -23 l-23 -19 19 23 c18 21
26 27 26 19z m-71 -63 c-13 -14 -37 -35 -54 -46 -16 -11 -7 1 20 26 55 51 72
60 34 20z m1852 -5 c-5 -13 -10 -19 -10 -12 -1 15 10 45 15 40 3 -2 0 -15 -5
-28z m250 -16 c-12 -20 -14 -14 -5 12 4 9 9 14 11 11 3 -2 0 -13 -6 -23z
m-2531 -4 c-27 -21 -71 -47 -55 -32 19 18 68 53 74 53 3 0 -5 -9 -19 -21z
m1716 -46 c-14 -26 -25 -45 -26 -41 0 12 43 98 48 94 2 -2 -8 -26 -22 -53z
m-1386 -7 c0 -2 -8 -10 -17 -17 -16 -13 -17 -12 -4 4 13 16 21 21 21 13z
m1911 -23 c-12 -20 -14 -14 -5 12 4 9 9 14 11 11 3 -2 0 -13 -6 -23z m260 4
c-10 -9 -11 -8 -5 6 3 10 9 15 12 12 3 -3 0 -11 -7 -18z m-278 -42 c-3 -9 -8
-14 -10 -11 -3 3 -2 9 2 15 9 16 15 13 8 -4z m-2438 -30 c-16 -14 -34 -25 -40
-25 -9 0 55 49 65 49 3 0 -8 -11 -25 -24z m1888 10 c-3 -9 -8 -14 -10 -11 -3
3 -2 9 2 15 9 16 15 13 8 -4z m793 -22 c-8 -15 -15 -25 -16 -21 0 12 23 58 27
54 3 -2 -2 -17 -11 -33z m-2276 -9 c-8 -8 -23 -20 -34 -25 -13 -7 -9 -1 9 15
34 29 43 33 25 10z m-60 -41 c0 -5 -17 -18 -38 -31 l-37 -23 35 30 c38 33 40
34 40 24z m1510 -1 c0 -5 -7 -17 -15 -28 -14 -18 -14 -17 -4 9 12 27 19 34 19
19z m-2036 -47 c-10 -8 -23 -15 -28 -15 -6 0 -1 7 10 15 10 8 23 15 28 15 6 0
1 -7 -10 -15z m1992 -37 c-18 -26 -22 -17 -5 14 6 11 13 17 16 15 3 -3 -2 -16
-11 -29z m-2036 17 c0 -2 -18 -14 -40 -25 -22 -11 -40 -18 -40 -15 0 2 17 13
38 24 42 23 42 23 42 16z m445 -21 c-26 -20 -55 -36 -55 -30 0 5 63 46 70 46
3 -1 -4 -8 -15 -16z m2126 -21 c-12 -20 -14 -14 -5 12 4 9 9 14 11 11 3 -2 0
-13 -6 -23z m-2671 -8 c0 -2 -10 -9 -22 -15 -22 -11 -22 -10 -4 4 21 17 26 19
26 11z m465 -25 c-3 -5 -12 -10 -18 -10 -7 0 -6 4 3 10 19 12 23 12 15 0z
m-535 -15 c-14 -8 -29 -14 -35 -14 -5 0 1 6 15 14 14 8 30 14 35 14 6 0 -1 -6
-15 -14z m475 -20 c-16 -14 -34 -25 -40 -25 -9 0 55 49 65 49 3 0 -8 -11 -25
-24z m1678 -10 c-3 -9 -8 -14 -10 -11 -3 3 -2 9 2 15 9 16 15 13 8 -4z m-2253
-15 c-8 -5 -19 -10 -25 -10 -5 0 -3 5 5 10 8 5 20 10 25 10 6 0 3 -5 -5 -10z
m-60 -25 c-14 -8 -29 -14 -35 -14 -5 0 1 6 15 14 14 8 30 14 35 14 6 0 -1 -6
-15 -14z m2806 -37 c-9 -12 -16 -19 -16 -15 0 11 24 47 28 42 2 -2 -3 -14 -12
-27z m-2876 8 c-14 -7 -36 -16 -50 -20 -14 -3 -7 3 15 14 45 22 74 27 35 6z
m2341 -13 c-12 -20 -14 -14 -5 12 4 9 9 14 11 11 3 -2 0 -13 -6 -23z m-1771
12 c0 -6 -56 -35 -67 -35 -4 1 8 9 27 20 39 22 40 22 40 15z m-80 -40 c0 -2
-22 -16 -50 -30 -27 -14 -50 -23 -50 -20 0 2 21 16 48 29 53 28 52 28 52 21z
m1813 -50 c-15 -30 -29 -53 -31 -51 -4 5 46 106 53 106 3 0 -7 -25 -22 -55z
m-2453 36 c-8 -5 -26 -11 -40 -15 -21 -5 -20 -3 5 9 32 15 60 20 35 6z m-110
-41 c-8 -5 -19 -10 -25 -10 -5 0 -3 5 5 10 8 5 20 10 25 10 6 0 3 -5 -5 -10z
m639 -5 c-9 -8 -119 -55 -119 -50 0 3 24 16 53 29 49 23 76 32 66 21z m-689
-14 c-8 -5 -31 -11 -50 -14 -35 -6 -35 -6 5 8 46 15 67 18 45 6z m-100 -31
c-8 -5 -22 -9 -30 -9 -10 0 -8 3 5 9 27 12 43 12 25 0z m-76 -25 c-17 -8 -44
-16 -60 -20 -16 -3 -6 4 21 14 57 22 86 26 39 6z m2749 0 c-3 -9 -8 -14 -10
-11 -3 3 -2 9 2 15 9 16 15 13 8 -4z m518 -12 c-12 -20 -14 -14 -5 12 4 9 9
14 11 11 3 -2 0 -13 -6 -23z m-2561 12 c0 -5 -69 -35 -79 -34 -5 0 68 38 77
39 1 0 2 -2 2 -5z m-864 -51 c-39 -13 -75 -24 -80 -23 -15 1 116 47 134 47 8
0 -16 -10 -54 -24z m2891 4 c-3 -8 -6 -5 -6 6 -1 11 2 17 5 13 3 -3 4 -12 1
-19z m-2167 -13 c-14 -8 -29 -14 -35 -14 -5 0 1 6 15 14 14 8 30 14 35 14 6 0
-1 -6 -15 -14z m-850 -30 c-46 -18 -64 -17 -25 0 17 8 37 14 45 14 8 0 -1 -7
-20 -14z m799 10 c-9 -8 -202 -76 -206 -72 -2 2 41 20 94 40 95 34 122 42 112
32z m-928 -51 c-41 -14 -76 -23 -78 -20 -5 5 116 44 137 44 8 0 -18 -11 -59
-24z m3116 -121 c-2 -21 -4 -6 -4 32 0 39 2 55 4 38 2 -18 2 -50 0 -70z
m-3262 72 c-16 -8 -37 -14 -45 -14 -8 0 1 7 20 14 46 18 64 17 25 0z m800 0
c-16 -8 -37 -14 -45 -14 -8 0 1 7 20 14 46 18 64 17 25 0z m-894 -30 c-18 -8
-38 -15 -45 -15 -15 1 46 28 64 29 8 0 0 -6 -19 -14z m714 -29 c-33 -13 -76
-26 -95 -30 -19 -3 1 7 45 23 96 34 135 39 50 7z m-776 10 c-3 -3 -63 -27
-134 -54 -202 -76 -279 -110 -440 -192 -253 -129 -407 -237 -604 -424 -62 -58
-81 -73 -46 -36 116 123 237 225 365 308 30 19 71 45 90 58 116 76 415 216
639 300 109 40 140 50 130 40z m631 -56 c-8 -5 -22 -9 -30 -9 -10 0 -8 3 5 9
27 12 43 12 25 0z m-50 -14 c0 -5 -104 -36 -117 -35 -11 1 88 37 105 38 6 1
12 -1 12 -3z m-131 -40 c-9 -9 -342 -117 -346 -112 -2 2 71 29 164 59 162 54
192 62 182 53z m-374 -126 c-91 -37 -239 -89 -244 -85 -3 3 4 8 14 11 11 3 65
23 120 44 55 21 107 38 115 38 9 1 7 -3 -5 -8z m-260 -99 c-6 -5 -36 -18 -67
-30 -32 -11 -90 -37 -129 -56 -39 -20 -73 -35 -75 -32 -3 3 84 46 226 110 40
18 59 22 45 8z m-285 -125 c0 -2 -30 -21 -67 -41 -62 -34 -237 -149 -323 -212
-32 -23 -32 -23 5 12 47 43 176 130 295 197 88 50 90 51 90 44z m2718 -443
c-15 -2 -42 -2 -60 0 -18 2 -6 4 27 4 33 0 48 -2 33 -4z m-111 -9 c-3 -3 -12
-4 -19 -1 -8 3 -5 6 6 6 11 1 17 -2 13 -5z m-2496 -54 c-125 -76 -211 -140
-211 -158 0 -18 309 -1255 316 -1261 5 -5 3 -7 44 52 l32 49 -12 163 c-16 216
-2 288 72 350 l32 27 -29 22 c-85 60 -112 122 -126 285 -22 246 48 343 268
371 83 11 346 30 351 25 1 -1 14 -159 29 -351 14 -192 30 -353 34 -358 4 -4
31 8 61 27 67 44 402 236 426 243 9 4 -53 -34 -139 -84 -85 -49 -198 -116
-250 -149 l-94 -60 2 -84 c1 -46 4 -107 8 -136 l6 -52 62 42 c116 78 198 129
203 125 2 -3 -47 -37 -109 -76 -61 -40 -122 -80 -135 -90 l-23 -18 12 -137 c6
-76 10 -139 8 -141 -2 -3 -51 -6 -109 -8 l-105 -3 -3 55 c-4 88 -5 88 -82 20
-61 -54 -115 -115 -208 -235 -28 -36 -19 -16 22 45 16 25 81 96 143 159 l115
114 -7 96 c-3 53 -8 113 -11 133 -7 45 -7 46 -119 -45 l-80 -65 0 -145 c0 -80
-2 -147 -5 -150 -3 -3 -53 -8 -112 -12 l-107 -7 6 37 c8 52 -6 41 -62 -50 -74
-117 -122 -242 -151 -385 l-13 -65 5 59 c6 77 54 221 105 314 21 41 39 75 39
78 0 2 -49 1 -108 -3 l-108 -6 -23 104 c-13 57 -29 109 -35 115 -8 9 -43 9
-126 3 -63 -5 -120 -11 -126 -13 -8 -3 -15 -45 -19 -116 -5 -68 -12 -113 -19
-115 -6 -2 -37 -7 -70 -10 l-58 -7 6 -61 c23 -230 51 -459 56 -467 4 -7 23 -7
56 -1 27 5 128 15 224 21 96 7 178 14 182 17 5 2 9 21 9 41 l2 37 6 -40 6 -39
53 3 c36 2 53 -1 56 -11 6 -15 46 -516 46 -568 0 -19 11 -168 24 -330 13 -162
20 -298 17 -302 -9 -11 -281 -23 -281 -12 -2 56 -39 476 -42 480 -3 2 -44 0
-91 -5 -90 -10 -140 -29 -151 -57 -3 -9 9 -62 28 -118 74 -221 174 -394 307
-528 42 -43 71 -78 65 -78 -22 0 -172 170 -224 254 -62 99 -145 280 -167 363
-30 115 -37 88 -29 -122 5 -165 4 -202 -7 -211 -15 -12 -278 -33 -285 -23 -2
3 1 20 6 37 5 20 4 96 -2 194 -11 177 -6 218 35 279 20 29 64 66 100 83 8 4 9
8 1 11 -80 39 -120 74 -147 127 -26 49 -30 71 -35 167 -4 90 -2 119 12 156 22
56 92 119 158 142 26 10 48 22 48 28 0 5 -11 118 -25 250 -14 132 -25 250 -25
263 0 17 -6 22 -26 22 l-27 0 6 93 c8 111 23 288 43 492 8 83 25 276 39 430
14 154 27 285 29 291 3 6 41 14 88 18 243 19 224 14 291 64 74 55 216 142 231
142 6 0 -27 -23 -73 -50z m2416 34 c-3 -3 -12 -4 -19 -1 -8 3 -5 6 6 6 11 1
17 -2 13 -5z m-77 -19 c0 -2 -13 -11 -30 -20 -38 -19 -40 -11 -2 9 31 17 32
18 32 11z m-3101 -24 c-82 -115 -110 -161 -104 -171 4 -6 15 -8 25 -5 43 13
40 6 -124 -380 -42 -99 -81 -189 -85 -200 -7 -15 31 -98 168 -366 97 -191 174
-349 171 -352 -3 -3 -52 -8 -110 -12 l-105 -7 -83 167 c-45 91 -87 163 -92
160 -6 -3 -10 5 -10 20 0 24 -54 145 -65 145 -3 0 -17 -24 -31 -52 l-27 -53
12 -165 c6 -91 14 -181 17 -201 l5 -37 -53 -7 c-72 -10 -158 -13 -163 -5 -2 3
-18 181 -35 395 -45 578 -59 753 -66 826 -3 37 -2 69 3 72 4 2 54 8 109 12
l101 7 7 -109 c11 -180 14 -183 51 -68 32 102 75 208 81 202 2 -2 -10 -36 -27
-77 -57 -142 -82 -247 -80 -340 1 -47 5 -103 9 -124 7 -38 11 -29 120 240 63
153 121 285 130 292 9 6 40 12 69 12 49 0 54 2 69 33 9 17 27 46 39 62 60 84
77 105 82 105 3 0 -1 -9 -8 -19z m-350 -90 c-23 -45 -44 -80 -46 -77 -3 2 15
41 38 85 24 44 45 79 47 77 2 -2 -16 -40 -39 -85z m3350 65 c-2 -2 -15 -9 -29
-15 -24 -11 -24 -11 -6 3 16 13 49 24 35 12z m-59 -30 c0 -2 -7 -7 -16 -10 -8
-3 -12 -2 -9 4 6 10 25 14 25 6z m-40 -20 c0 -2 -7 -7 -16 -10 -8 -3 -12 -2
-9 4 6 10 25 14 25 6z m-45 -26 c-3 -5 -12 -10 -18 -10 -7 0 -6 4 3 10 19 12
23 12 15 0z m-120 -60 c-3 -5 -12 -10 -18 -10 -7 0 -6 4 3 10 19 12 23 12 15
0z m-35 -15 c0 -5 -167 -91 -208 -106 -49 -19 -17 0 94 55 123 62 114 58 114
51z m547 -11 c-3 -3 -12 -4 -19 -1 -8 3 -5 6 6 6 11 1 17 -2 13 -5z m-40 -10
c-3 -3 -12 -4 -19 -1 -8 3 -5 6 6 6 11 1 17 -2 13 -5z m203 -20 c0 -2 -9 0
-20 6 -11 6 -20 13 -20 16 0 2 9 0 20 -6 11 -6 20 -13 20 -16z m-250 6 c-8 -5
-22 -9 -30 -9 -10 0 -8 3 5 9 27 12 43 12 25 0z m-10987 -17 c-51 -2 -136 -2
-190 0 -54 1 -12 3 92 3 105 0 149 -2 98 -3z m-366 -10 c-20 -2 -52 -2 -70 0
-17 2 0 4 38 4 39 0 53 -2 32 -4z m610 0 c-20 -2 -52 -2 -70 0 -17 2 0 4 38 4
39 0 53 -2 32 -4z m-782 -13 c-27 -5 -63 -8 -80 -8 -25 1 -23 2 10 8 22 4 58
7 80 7 38 0 37 0 -10 -7z m908 3 c-13 -2 -33 -2 -45 0 -13 2 -3 4 22 4 25 0
35 -2 23 -4z m6408 -17 c113 -48 168 -148 183 -333 7 -84 13 -80 -114 -85
l-85 -3 -12 95 c-6 52 -12 98 -12 101 -1 3 -12 18 -26 33 -20 22 -33 26 -75
26 -44 0 -56 -4 -82 -31 l-31 -30 6 -126 c4 -70 14 -212 22 -317 34 -412 37
-427 100 -445 37 -10 96 -1 120 19 27 22 34 80 25 185 -5 55 -6 103 -2 106 4
4 50 9 102 10 l95 4 8 -55 c5 -30 7 -102 5 -160 -3 -93 -7 -111 -32 -158 -55
-100 -146 -145 -296 -145 -84 -1 -102 2 -153 27 -68 33 -120 94 -142 170 -20
66 -78 768 -72 862 10 143 90 234 231 264 58 13 194 5 237 -14z m-7431 6 c0
-8 -200 -35 -207 -28 -2 2 36 9 84 16 48 6 93 13 98 15 18 6 25 5 25 -3z
m1138 1 c-10 -2 -28 -2 -40 0 -13 2 -5 4 17 4 22 1 32 -1 23 -4z m10392 -8 c0
-2 -10 -9 -22 -15 -22 -11 -22 -10 -4 4 21 17 26 19 26 11z m-11757 -32 c-7
-2 -19 -2 -25 0 -7 3 -2 5 12 5 14 0 19 -2 13 -5z m7052 -56 c4 -34 5 -76 3
-92 l-3 -30 -175 -13 c-96 -7 -178 -16 -182 -20 -9 -9 15 -339 25 -349 4 -3
69 -1 145 5 75 6 140 8 143 4 4 -4 10 -46 14 -93 l7 -87 -79 -6 c-43 -3 -108
-9 -145 -12 l-68 -6 0 -46 c0 -52 21 -325 25 -330 2 -2 84 2 184 9 99 7 183
11 186 8 2 -3 8 -44 11 -91 l7 -86 -29 -5 c-41 -8 -553 -41 -558 -36 -5 5 -13
85 -26 254 -22 283 -70 904 -76 973 -6 66 -5 72 12 73 11 0 118 8 239 18 121
10 246 19 277 20 l56 1 7 -63z m4115 58 c0 -3 -40 -25 -90 -50 -49 -25 -90
-43 -90 -40 0 4 166 92 178 94 1 1 2 -1 2 -4z m1030 -30 c0 -5 -5 -3 -10 5 -5
8 -10 20 -10 25 0 6 5 3 10 -5 5 -8 10 -19 10 -25z m-12243 19 c-3 -3 -12 -4
-19 -1 -8 3 -5 6 6 6 11 1 17 -2 13 -5z m-107 -29 c-41 -13 -76 -22 -78 -21
-5 6 111 44 133 44 11 0 -14 -10 -55 -23z m11790 1 c0 -2 -7 -7 -16 -10 -8 -3
-12 -2 -9 4 6 10 25 14 25 6z m-5345 -18 c9 -27 104 -1283 97 -1289 -4 -4 -53
-10 -108 -14 l-101 -7 -12 129 c-6 70 -16 184 -21 252 -6 69 -12 126 -14 128
-2 2 -20 -7 -41 -21 -88 -60 -226 -63 -309 -5 -46 32 -85 87 -101 143 -14 47
-67 636 -59 645 5 5 214 15 215 10 0 -2 11 -131 23 -286 25 -306 28 -318 88
-349 65 -34 147 2 164 72 4 13 -4 149 -16 300 -12 152 -18 280 -13 285 4 4 44
10 88 12 44 1 88 4 98 5 10 1 20 -4 22 -10z m5300 -8 c-3 -5 -12 -10 -18 -10
-7 0 -6 4 3 10 19 12 23 12 15 0z m-11860 -14 c-105 -47 -199 -85 -203 -81 -4
4 103 55 117 55 3 1 24 9 46 20 22 11 47 19 55 19 8 0 2 -6 -15 -13z m11820
-6 c-3 -5 -11 -10 -16 -10 -6 0 -7 5 -4 10 3 6 11 10 16 10 6 0 7 -4 4 -10z
m-9330 -14 c64 -18 38 -19 -40 -1 -33 7 -49 14 -35 14 14 0 48 -6 75 -13z
m8745 -6 c-27 -19 -195 -102 -187 -94 11 12 179 102 192 103 6 0 3 -4 -5 -9z
m536 -5 c-11 -8 -25 -15 -30 -15 -6 1 0 7 14 15 32 19 40 18 16 0z m-6022 -42
c3 -27 13 -138 21 -248 9 -110 27 -342 41 -515 41 -521 40 -487 18 -493 -29
-9 -162 -12 -169 -5 -8 7 -44 403 -45 480 0 28 -6 53 -15 61 -10 10 -11 17 -4
19 9 3 8 46 -1 163 -7 89 -16 150 -20 139 -4 -10 -17 -75 -30 -144 -12 -69
-33 -170 -46 -226 -13 -56 -26 -114 -28 -130 -2 -16 -6 -36 -9 -44 -3 -8 -22
-87 -41 -174 -19 -88 -39 -162 -43 -166 -4 -4 -54 -11 -111 -15 -81 -5 -103
-4 -106 7 -3 7 -12 108 -21 223 -21 270 -23 297 -30 375 -3 36 -7 94 -10 130
-3 36 -12 151 -20 255 -24 313 -24 299 10 306 17 4 60 7 98 8 l67 1 1 -32 c0
-18 11 -159 24 -313 14 -154 25 -302 25 -330 0 -27 4 -63 8 -80 8 -28 9 -26
21 33 7 34 9 67 6 72 -3 6 -2 10 3 10 5 0 13 21 17 48 8 57 144 604 151 612 6
5 110 15 191 18 l41 2 6 -47z m-3177 31 c-3 -3 -12 -4 -19 -1 -8 3 -5 6 6 6
11 1 17 -2 13 -5z m50 -10 c-3 -3 -12 -4 -19 -1 -8 3 -5 6 6 6 11 1 17 -2 13
-5z m9860 -16 c-3 -8 -6 -5 -6 6 -1 11 2 17 5 13 3 -3 4 -12 1 -19z m-9820 6
c-3 -3 -12 -4 -19 -1 -8 3 -5 6 6 6 11 1 17 -2 13 -5z m9043 1 c0 -6 -56 -35
-67 -35 -4 1 8 9 27 20 39 22 40 22 40 15z m-9003 -11 c-3 -3 -12 -4 -19 -1
-8 3 -5 6 6 6 11 1 17 -2 13 -5z m50 -10 c-3 -3 -12 -4 -19 -1 -8 3 -5 6 6 6
11 1 17 -2 13 -5z m-2967 -8 c0 -7 -142 -77 -147 -72 -3 3 26 21 63 40 66 34
84 40 84 32z m5120 -12 c0 -22 78 -1017 90 -1154 6 -63 14 -118 18 -121 4 -4
48 -16 97 -28 114 -28 94 -22 276 -75 158 -46 471 -157 567 -201 29 -14 55
-25 57 -25 3 0 58 -25 122 -55 l118 -56 106 11 c159 16 276 -4 359 -61 80 -54
111 -119 124 -255 7 -71 7 -72 -19 -78 l-26 -7 50 -52 c27 -29 60 -65 72 -82
13 -16 26 -32 29 -35 3 -3 21 -25 39 -50 l33 -45 -6 105 c-20 322 -20 377 -1
426 34 91 121 155 245 184 30 7 62 15 70 17 8 3 67 5 130 4 149 -1 229 -24
300 -88 59 -53 84 -114 94 -225 l7 -76 -38 -6 c-21 -3 -81 -8 -134 -12 -108
-7 -108 -7 -109 76 -1 92 -58 160 -134 160 -97 0 -155 -39 -161 -106 -3 -39
40 -642 50 -700 12 -70 86 -104 182 -84 35 8 65 21 80 37 23 22 25 31 23 111
-2 48 -2 101 -1 118 l1 30 118 11 c64 5 124 8 134 5 13 -3 18 -23 23 -107 10
-146 -7 -201 -85 -276 -49 -47 -69 -59 -131 -77 -112 -32 -234 -44 -331 -32
-45 5 -83 8 -85 6 -2 -2 19 -74 48 -160 48 -145 54 -177 31 -163 -4 3 -33 80
-62 171 -52 161 -55 167 -94 192 -106 69 -132 119 -146 281 l-10 118 -56 81
c-30 45 -90 119 -133 164 l-78 83 -90 -7 -90 -7 -7 32 c-3 17 -6 49 -6 70 0
58 -15 85 -63 113 -75 44 -173 29 -220 -35 -19 -27 -19 -30 7 -375 15 -192 29
-361 32 -376 3 -15 19 -39 36 -53 25 -21 40 -25 94 -25 74 0 127 19 144 50 7
13 11 63 9 133 l-3 112 60 7 c32 3 93 8 134 10 l75 3 8 -107 c7 -86 6 -117 -7
-160 -42 -144 -197 -224 -446 -229 -144 -3 -237 24 -314 92 -70 61 -79 100
-106 475 -23 307 -25 412 -9 468 14 52 100 137 162 161 26 10 47 20 47 24 -1
5 -66 37 -252 121 -119 54 -543 201 -623 216 -19 3 -35 11 -35 17 0 6 -3 8 -6
5 -3 -3 -44 5 -92 18 -158 44 -224 55 -312 52 l-85 -3 -3 27 c-3 24 -10 28
-60 40 -78 18 -76 19 -82 -32 l-5 -45 -70 -8 c-38 -4 -85 -6 -104 -5 -34 3
-35 4 -55 81 -24 88 -32 96 -107 104 l-51 5 6 -43 c3 -24 7 -71 8 -104 l3 -60
-85 -6 c-66 -5 -88 -3 -96 8 -7 7 -15 65 -19 128 -8 126 -8 127 -75 138 -19 3
-42 8 -51 12 -14 5 -17 -4 -21 -62 -11 -156 -98 -248 -259 -274 -123 -20 -249
17 -309 89 -48 58 -70 132 -82 272 -5 69 -13 128 -16 131 -12 11 -112 37 -116
30 -2 -3 1 -67 7 -141 13 -170 5 -232 -36 -300 -40 -65 -94 -105 -172 -125
-128 -33 -265 -12 -335 52 -87 78 -103 133 -126 453 -9 129 -20 239 -24 243
-4 5 -47 17 -96 27 -49 11 -105 24 -124 29 -92 26 -87 28 -120 -45 -16 -37
-30 -75 -30 -85 0 -17 100 -219 276 -556 35 -67 64 -129 64 -136 0 -11 -25
-16 -101 -21 -55 -3 -104 -4 -109 -1 -5 3 -62 113 -127 245 -65 132 -121 240
-126 240 -4 0 -19 -26 -33 -57 l-25 -58 16 -193 c9 -107 14 -196 12 -198 -8
-8 -202 -22 -208 -15 -6 5 -30 283 -70 821 -6 80 -14 148 -18 152 -10 11 -158
27 -366 39 -379 22 -826 -18 -1020 -92 -117 -45 -306 -140 -484 -244 -61 -36
-187 -118 -251 -163 -41 -29 -83 -58 -93 -65 -18 -11 -79 -57 -163 -122 -21
-16 -43 -35 -49 -41 -5 -5 -44 -37 -85 -70 -102 -81 -305 -279 -404 -394 -44
-52 -84 -96 -88 -98 -5 -2 -8 -8 -8 -13 0 -6 -19 -38 -42 -72 -82 -119 -127
-236 -114 -300 16 -80 226 -196 383 -211 81 -8 136 -2 478 54 293 48 540 64
785 50 218 -13 244 -16 455 -55 175 -33 255 -55 440 -117 347 -117 694 -298
1030 -537 118 -84 156 -114 326 -257 90 -76 309 -293 309 -306 0 -16 -21 -7
-43 18 -30 35 -270 259 -331 309 -27 22 -65 54 -85 71 -145 124 -395 292 -610
411 -114 63 -414 205 -461 218 -14 4 -38 13 -55 20 -46 19 -179 60 -300 93
-325 88 -592 118 -945 109 -214 -6 -300 -15 -505 -51 -352 -61 -499 -71 -586
-41 -90 31 -215 101 -261 146 -44 41 -48 50 -48 91 0 25 9 75 20 110 58 188
347 529 675 794 33 27 68 57 79 66 11 10 38 30 60 45 23 15 43 30 46 33 41 46
491 340 518 340 6 0 12 4 14 8 5 13 287 152 380 188 214 81 563 113 1037 93
124 -5 255 -13 291 -19 35 -5 66 -7 69 -5 2 3 -1 67 -7 142 -6 76 -8 141 -4
145 4 4 53 10 108 14 l102 7 7 -99 c4 -55 10 -130 13 -169 l7 -70 45 -11 c25
-6 49 -8 54 -3 5 4 42 88 82 186 81 200 67 186 202 196 55 4 82 3 82 -4 0 -10
-63 -163 -136 -332 -19 -43 -32 -83 -29 -88 4 -5 18 -9 33 -9 15 -1 54 -8 87
-16 33 -9 78 -19 100 -24 22 -5 48 -12 57 -15 17 -7 17 3 11 147 -6 153 -6
154 22 215 15 34 36 70 46 79 10 9 16 21 13 25 -3 5 0 9 7 9 7 0 37 12 68 28
52 25 65 27 176 27 104 0 125 -3 161 -22 53 -28 99 -76 127 -132 26 -54 21
-23 46 -309 11 -128 25 -241 30 -250 6 -9 11 -14 11 -10 0 4 16 0 35 -8 69
-28 68 -29 60 112 -4 69 -13 185 -19 257 -15 156 -5 221 43 298 l31 50 -23 10
c-20 9 -20 9 5 4 17 -3 49 6 95 27 62 30 76 33 168 33 84 0 109 -4 153 -24 58
-26 115 -85 134 -138 7 -20 22 -36 37 -42 18 -6 20 -10 9 -10 -16 -1 -17 -11
-11 -104 5 -96 4 -104 -13 -111 -29 -12 -184 -20 -185 -10 0 5 -3 41 -5 79 -8
130 -39 175 -121 175 -36 0 -50 -6 -74 -29 -25 -26 -29 -37 -29 -85 0 -38 4
-56 13 -56 9 0 9 -2 0 -8 -10 -7 -9 -59 7 -252 11 -134 22 -245 25 -248 5 -6
194 -51 213 -52 9 0 12 14 10 48 l-3 47 90 7 c50 4 96 5 103 3 7 -3 12 -22 12
-48 0 -94 5 -103 74 -120 33 -8 63 -13 65 -11 6 5 -29 476 -36 487 -2 4 -12 7
-21 8 -13 0 -13 2 4 9 19 7 20 13 12 96 -11 125 -28 354 -28 385 l0 26 143 10
c78 6 146 7 150 3 5 -4 26 -75 46 -156 21 -82 43 -165 49 -184 6 -19 23 -88
39 -154 22 -94 32 -120 48 -127 17 -7 17 -8 2 -8 -20 -1 -21 7 23 -156 31
-113 34 -110 45 58 5 68 3 87 -7 87 -10 0 -10 2 -1 8 16 10 22 42 28 152 11
200 37 495 44 503 7 7 164 23 259 26 32 1 42 -3 42 -15z m-3972 -1 c-26 -2
-71 -2 -100 0 -29 2 -8 3 47 3 55 0 79 -1 53 -3z m325 0 c-24 -2 -62 -2 -85 0
-24 2 -5 4 42 4 47 0 66 -2 43 -4z m1564 1 c-3 -3 -12 -4 -19 -1 -8 3 -5 6 6
6 11 1 17 -2 13 -5z m8803 1 c0 -2 -22 -16 -50 -30 -27 -14 -50 -23 -50 -20 0
2 21 16 48 29 53 28 52 28 52 21z m-10895 -11 c-16 -2 -79 -9 -140 -14 -158
-16 -328 -47 -420 -77 -416 -136 -1050 -532 -1470 -918 -319 -294 -477 -485
-612 -740 -29 -55 -53 -95 -53 -90 0 6 21 51 46 100 52 100 146 242 238 355
57 71 305 325 391 401 451 397 1056 773 1456 902 125 41 407 85 534 84 33 0
47 -2 30 -3z m723 -1 c-15 -2 -42 -2 -60 0 -18 2 -6 4 27 4 33 0 48 -2 33 -4z
m1409 1 c-3 -3 -12 -4 -19 -1 -8 3 -5 6 6 6 11 1 17 -2 13 -5z m-1212 -14 l50
-7 -45 0 c-25 -1 -74 3 -110 7 l-65 7 60 1 c33 0 83 -3 110 -8z m1252 4 c-3
-3 -12 -4 -19 -1 -8 3 -5 6 6 6 11 1 17 -2 13 -5z m40 -10 c-3 -3 -12 -4 -19
-1 -8 3 -5 6 6 6 11 1 17 -2 13 -5z m-1179 -11 c-10 -2 -28 -2 -40 0 -13 2 -5
4 17 4 22 1 32 -1 23 -4z m75 -10 c-7 -2 -21 -2 -30 0 -10 3 -4 5 12 5 17 0
24 -2 18 -5z m50 -10 c-7 -2 -19 -2 -25 0 -7 3 -2 5 12 5 14 0 19 -2 13 -5z
m1164 1 c-3 -3 -12 -4 -19 -1 -8 3 -5 6 6 6 11 1 17 -2 13 -5z m8413 -24 c-30
-16 -59 -29 -65 -29 -5 0 15 13 45 29 30 16 60 29 65 29 6 0 -15 -13 -45 -29z
m-11840 15 c0 -2 -23 -16 -51 -31 -118 -59 -363 -215 -564 -357 -378 -268
-722 -589 -941 -877 -154 -202 -234 -350 -295 -545 -30 -96 -40 -101 -13 -7
102 355 417 766 889 1162 254 213 488 379 755 537 74 44 151 89 170 101 36 21
50 26 50 17z m2375 -4 c26 -6 31 -9 15 -9 -14 -1 -43 3 -65 7 -26 6 -31 9 -15
9 14 1 43 -3 65 -7z m1110 -1 c13 -5 14 -9 5 -9 -8 0 -24 4 -35 9 -13 5 -14 9
-5 9 8 0 24 -4 35 -9z m-1022 -17 c-7 -2 -21 -2 -30 0 -10 3 -4 5 12 5 17 0
24 -2 18 -5z m1092 -3 c13 -5 14 -9 5 -9 -8 0 -24 4 -35 9 -13 5 -14 9 -5 9 8
0 24 -4 35 -9z m-1042 -7 c-7 -2 -19 -2 -25 0 -7 3 -2 5 12 5 14 0 19 -2 13
-5z m50 -10 c-7 -2 -19 -2 -25 0 -7 3 -2 5 12 5 14 0 19 -2 13 -5z m1044 1
c-3 -3 -12 -4 -19 -1 -8 3 -5 6 6 6 11 1 17 -2 13 -5z m-1000 -10 c-3 -3 -12
-4 -19 -1 -8 3 -5 6 6 6 11 1 17 -2 13 -5z m93 -14 c20 -6 21 -8 5 -8 -11 0
-31 4 -45 8 -20 6 -21 8 -5 8 11 0 31 -4 45 -8z m9014 -15 c-10 -8 -23 -14
-29 -14 -5 0 -1 6 9 14 11 8 24 15 30 15 5 0 1 -7 -10 -15z m-8867 -21 c-3 -3
-12 -4 -19 -1 -8 3 -5 6 6 6 11 1 17 -2 13 -5z m8803 -8 c0 -3 -23 -16 -50
-30 -28 -14 -71 -37 -96 -52 -24 -14 -47 -24 -50 -21 -4 4 44 31 156 88 40 20
40 21 40 15z m-7333 -112 c-3 -3 -12 -4 -19 -1 -8 3 -5 6 6 6 11 1 17 -2 13
-5z m7123 2 c0 -2 -24 -18 -52 -34 -159 -90 -182 -102 -171 -91 10 10 212 128
221 129 1 0 2 -2 2 -4z m-7853 -72 c-3 -3 -12 -4 -19 -1 -8 3 -5 6 6 6 11 1
17 -2 13 -5z m1330 -60 c-3 -3 -12 -4 -19 -1 -8 3 -5 6 6 6 11 1 17 -2 13 -5z
m7286 -1 c-7 -2 -19 -2 -25 0 -7 3 -2 5 12 5 14 0 19 -2 13 -5z m-86 -18 c-21
-8 -50 -23 -65 -33 -33 -23 -72 -44 -72 -39 0 5 110 72 130 80 8 3 22 5 30 6
8 0 -2 -7 -23 -14z m-8230 -1 c-3 -3 -12 -4 -19 -1 -8 3 -5 6 6 6 11 1 17 -2
13 -5z m340 -80 c-3 -3 -12 -4 -19 -1 -8 3 -5 6 6 6 11 1 17 -2 13 -5z m7738
-4 c-3 -6 -21 -17 -38 -26 -36 -19 -31 -9 10 17 34 21 36 22 28 9z m-6558 -6
c-3 -3 -12 -4 -19 -1 -8 3 -5 6 6 6 11 1 17 -2 13 -5z m40 -10 c-3 -3 -12 -4
-19 -1 -8 3 -5 6 6 6 11 1 17 -2 13 -5z m-1090 -10 c-3 -3 -12 -4 -19 -1 -8 3
-5 6 6 6 11 1 17 -2 13 -5z m7483 -48 c0 -1 -22 -17 -50 -34 -27 -17 -50 -29
-50 -26 0 4 90 64 97 64 2 0 3 -2 3 -4z m-111 -69 c-2 -1 -13 -9 -24 -17 -19
-14 -19 -14 -6 3 7 9 18 17 24 17 6 0 8 -1 6 -3z m-49 -31 c0 -2 -21 -16 -47
-32 -60 -34 -326 -205 -457 -293 -182 -122 -306 -238 -343 -321 -8 -19 -19
-62 -23 -95 -7 -59 -7 -59 -9 -14 -4 148 107 268 454 494 66 43 156 101 200
130 185 120 225 144 225 131z m-2663 -198 c-2 -29 -3 -8 -3 47 0 55 1 79 3 53
2 -26 2 -71 0 -100z m-3620 116 c-3 -3 -12 -4 -19 -1 -8 3 -5 6 6 6 11 1 17
-2 13 -5z m1213 -124 c8 -5 11 -10 5 -10 -5 0 -17 5 -25 10 -8 5 -10 10 -5 10
6 0 17 -5 25 -10z m2417 -167 c-2 -21 -4 -4 -4 37 0 41 2 58 4 38 2 -21 2 -55
0 -75z m-240 -55 c-2 -13 -4 -3 -4 22 0 25 2 35 4 23 2 -13 2 -33 0 -45z
m1592 -53 c-38 -78 -50 -91 -26 -30 14 34 59 116 63 112 1 -1 -15 -38 -37 -82z
m-1342 -12 c-2 -16 -4 -3 -4 27 0 30 2 43 4 28 2 -16 2 -40 0 -55z m2693 24
c0 -2 -10 -12 -22 -23 l-23 -19 19 23 c18 21 26 27 26 19z m-2933 -94 c-2 -16
-4 -3 -4 27 0 30 2 43 4 28 2 -16 2 -40 0 -55z m2843 22 c0 -2 -13 -11 -30
-20 -38 -19 -40 -11 -2 9 31 17 32 18 32 11z m-2593 -42 c-3 -10 -5 -4 -5 12
0 17 2 24 5 18 2 -7 2 -21 0 -30z m1283 -20 c-11 -17 -11 -17 -6 0 3 10 6 24
7 30 0 9 2 9 5 0 3 -7 0 -20 -6 -30z m1235 17 c-3 -5 -12 -10 -18 -10 -7 0 -6
4 3 10 19 12 23 12 15 0z m-35 -14 c0 -3 -22 -12 -48 -20 -27 -9 -59 -26 -70
-37 -12 -11 -22 -16 -22 -11 0 16 30 36 79 54 50 18 61 20 61 14z m-2723 -63
c-3 -10 -5 -2 -5 17 0 19 2 27 5 18 2 -10 2 -26 0 -35z m1506 -41 c-3 -40 -9
-72 -12 -72 -4 0 -4 26 0 58 4 31 8 66 8 76 1 11 3 17 6 15 2 -3 1 -37 -2 -77z
m-1256 21 c-3 -10 -5 -4 -5 12 0 17 2 24 5 18 2 -7 2 -21 0 -30z m2353 -36 c0
-5 -4 -5 -10 -2 -5 3 -10 14 -10 23 0 15 2 15 10 2 5 -8 10 -19 10 -23z
m-2593 -24 c-3 -10 -5 -2 -5 17 0 19 2 27 5 18 2 -10 2 -26 0 -35z m250 -20
c-3 -10 -5 -4 -5 12 0 17 2 24 5 18 2 -7 2 -21 0 -30z m2368 27 c3 -5 1 -10
-4 -10 -6 0 -11 5 -11 10 0 6 2 10 4 10 3 0 8 -4 11 -10z m-2608 -77 c-3 -10
-5 -4 -5 12 0 17 2 24 5 18 2 -7 2 -21 0 -30z m1480 -65 c-2 -18 -4 -4 -4 32
0 36 2 50 4 33 2 -18 2 -48 0 -65z m-6084 65 c-13 -2 -33 -2 -45 0 -13 2 -3 4
22 4 25 0 35 -2 23 -4z m4896 -43 l38 0 7 -52 c11 -97 9 -115 -18 -122 -13 -3
-79 -8 -147 -11 -67 -3 -126 -8 -131 -11 -4 -3 -9 -15 -9 -27 -1 -20 -2 -21
-6 -2 -8 29 -13 31 -95 25 l-73 -5 1 -60 c0 -33 4 -108 8 -167 l8 -108 48 0
c26 0 68 3 94 6 41 6 46 10 47 33 2 26 2 26 6 -2 l4 -28 95 7 c107 8 100 14
107 -92 l6 -72 -52 -6 c-29 -3 -115 -11 -191 -16 -76 -5 -141 -12 -144 -15 -3
-2 1 -82 8 -176 l13 -172 96 7 c53 3 161 11 240 16 80 6 149 6 153 2 4 -4 9
-44 10 -87 l3 -80 -80 -7 c-44 -4 -96 -7 -115 -7 -19 -1 -156 -9 -305 -20
-148 -11 -271 -18 -273 -16 -2 1 -9 85 -17 186 -52 673 -77 1021 -73 1024 5 5
352 33 508 41 166 8 180 11 181 42 l2 27 4 -27 c4 -25 9 -28 42 -28z m1698 28
c-3 -8 -6 -5 -6 6 -1 11 2 17 5 13 3 -3 4 -12 1 -19z m-6699 5 c-10 -2 -26 -2
-35 0 -10 3 -2 5 17 5 19 0 27 -2 18 -5z m252 -3 c16 -6 6 -7 -30 -3 -30 3
-57 7 -59 9 -8 7 64 2 89 -6z m-400 -25 c-112 -31 -198 -72 -289 -136 -75 -52
-181 -153 -221 -209 -25 -35 -24 -35 64 -44 97 -10 189 -60 238 -128 12 -18
30 -61 38 -95 l16 -62 42 54 c51 65 146 130 221 151 31 8 62 17 69 19 7 3 12
23 12 55 0 32 5 52 13 55 11 3 632 44 737 48 l44 2 7 -50 c4 -27 15 -158 24
-290 9 -132 18 -252 21 -267 2 -15 6 -67 8 -115 8 -176 18 -258 34 -276 15
-16 14 -17 -1 -11 -18 7 -22 -3 -8 -25 6 -9 14 -10 25 -4 8 5 33 7 55 5 46 -5
47 -6 56 -177 3 -60 8 -120 11 -132 5 -28 -3 -30 -162 -38 l-121 -7 -6 77 c-3
42 -8 79 -10 81 -2 3 -131 -5 -286 -16 -155 -11 -290 -20 -302 -20 -19 0 -20
-5 -17 -82 l3 -83 -29 -3 -29 -4 29 -24 29 -25 -40 26 c-38 24 -44 25 -137 19
l-98 -7 -1 29 c-2 100 -29 356 -42 389 -8 22 -17 60 -21 85 -3 27 4 11 19 -43
36 -127 36 -128 93 -121 98 13 103 41 100 539 l-3 390 -40 -2 c-60 -4 -142
-50 -211 -117 -99 -97 -95 -72 -67 -436 27 -351 26 -363 -33 -452 l-33 -49 19
-44 c11 -25 17 -45 14 -45 -2 0 -13 20 -24 45 l-19 45 -37 -25 c-67 -45 -157
-67 -301 -72 -113 -5 -133 -8 -134 -22 0 -13 -1 -14 -6 -1 -8 20 -24 30 -48
30 -42 0 -141 57 -183 105 -61 70 -61 65 -98 560 -21 282 -17 340 26 404 63
92 175 144 345 160 95 8 98 9 123 42 108 140 272 268 411 320 70 26 150 48
176 48 11 0 -18 -11 -65 -24z m463 8 c-7 -2 -19 -2 -25 0 -7 3 -2 5 12 5 14 0
19 -2 13 -5z m87 -18 c47 -18 27 -18 -30 -1 -25 8 -36 15 -25 15 11 0 36 -7
55 -14z m6346 -38 c8 -11 13 -21 11 -23 -5 -5 -57 61 -57 73 0 4 7 -1 16 -12
8 -11 21 -28 30 -38z m-6222 -11 c42 -19 76 -37 76 -40 0 -5 -151 61 -159 70
-11 10 13 1 83 -30z m5684 -66 c0 -9 -3 -7 -8 5 -5 11 -8 29 -8 40 0 16 2 15
8 -5 4 -14 8 -32 8 -40z m596 21 c-2 -3 -12 3 -22 13 -16 17 -16 18 5 5 12 -7
20 -15 17 -18z m-575 -86 c0 -5 -4 -3 -9 5 -5 8 -9 22 -9 30 0 16 17 -16 18
-35z m-5508 18 c13 -17 13 -17 -6 -3 -11 8 -22 16 -24 17 -2 2 0 3 6 3 6 0 17
-8 24 -17z m6256 1 c-3 -3 -12 -4 -19 -1 -8 3 -5 6 6 6 11 1 17 -2 13 -5z
m-4943 -86 c7 -57 60 -754 77 -1002 6 -82 6 -153 2 -157 -10 -10 -235 -28
-245 -20 -3 3 -13 110 -22 236 -9 127 -21 277 -26 335 -6 58 -10 130 -11 160
-1 112 -13 104 -58 -40 -23 -74 -73 -225 -111 -335 -37 -110 -82 -240 -99
-288 -16 -49 -31 -90 -33 -92 -4 -5 -289 -27 -293 -23 -3 3 -27 277 -27 313
-1 11 -11 164 -24 339 -20 262 -27 323 -41 338 -16 18 -16 18 1 12 16 -6 17
-3 13 22 -3 16 -7 65 -9 109 l-3 80 55 7 c30 3 88 6 128 7 60 1 72 -2 72 -15
0 -68 33 -442 40 -455 5 -9 5 -20 1 -25 -4 -5 -2 -63 4 -129 5 -66 13 -115 16
-110 4 6 19 51 34 100 33 112 225 631 239 650 10 12 108 24 288 34 25 1 27 -2
32 -51z m2953 20 c-3 -7 -5 -2 -5 12 0 14 2 19 5 13 2 -7 2 -19 0 -25z m1292
-63 c0 -5 -11 10 -24 35 -13 25 -24 50 -24 55 0 6 11 -10 24 -35 13 -25 24
-49 24 -55z m-5363 -17 c4 -7 -9 1 -29 16 -20 16 -37 30 -37 33 0 7 58 -36 66
-49z m3831 5 c-3 -10 -5 -4 -5 12 0 17 2 24 5 18 2 -7 2 -21 0 -30z m250 -5
c-3 -7 -5 -2 -5 12 0 14 2 19 5 13 2 -7 2 -19 0 -25z m-10723 -57 c-9 -29 -18
-50 -21 -47 -3 2 3 28 12 56 22 67 29 60 9 -9z m12026 39 c6 -11 8 -20 6 -20
-3 0 -10 9 -16 20 -6 11 -8 20 -6 20 3 0 10 -9 16 -20z m-1543 -32 c-3 -8 -6
-5 -6 6 -1 11 2 17 5 13 3 -3 4 -12 1 -19z m250 -30 c-3 -7 -5 -2 -5 12 0 14
2 19 5 13 2 -7 2 -19 0 -25z m-3972 -16 c-3 -3 -11 0 -18 7 -9 10 -8 11 6 5
10 -3 15 -9 12 -12z m-7038 -44 c-3 -7 -5 -2 -5 12 0 14 2 19 5 13 2 -7 2 -19
0 -25z m11020 0 c-3 -7 -5 -2 -5 12 0 14 2 19 5 13 2 -7 2 -19 0 -25z m-10770
0 c-3 -8 -6 -5 -6 6 -1 11 2 17 5 13 3 -3 4 -12 1 -19z m-262 -117 c-4 -51
-10 -90 -12 -87 -3 3 -2 46 2 96 4 50 9 89 12 86 3 -2 1 -45 -2 -95z m252 57
c-3 -7 -5 -2 -5 12 0 14 2 19 5 13 2 -7 2 -19 0 -25z m10790 -30 c-2 -13 -4
-5 -4 17 -1 22 1 32 4 23 2 -10 2 -28 0 -40z m-10800 -100 c-2 -24 -4 -7 -4
37 0 44 2 63 4 43 2 -21 2 -57 0 -80z m10810 10 c-3 -8 -6 -5 -6 6 -1 11 2 17
5 13 3 -3 4 -12 1 -19z m-11033 -168 c5 -30 5 -32 -4 -11 -6 14 -13 52 -15 85
-4 61 -4 61 4 11 5 -27 11 -66 15 -85z m271 -35 c41 -97 157 -226 273 -303 28
-19 52 -37 52 -40 0 -4 -21 8 -90 55 -63 42 -171 157 -210 223 -39 65 -71 156
-69 194 0 12 7 -4 14 -34 8 -30 21 -73 30 -95z m5709 85 c-23 -10 -45 -23 -48
-29 -4 -6 -16 -16 -28 -22 -16 -8 -19 -8 -13 1 11 18 97 70 114 69 9 0 -3 -9
-25 -19z m-107 -82 c-3 -7 -18 -40 -32 -73 -14 -33 -23 -46 -20 -30 7 33 44
115 52 115 3 0 3 -6 0 -12z m-5847 -46 c0 -21 68 -152 108 -207 21 -29 27 -42
14 -31 -39 33 -142 229 -142 268 0 18 20 -12 20 -30z m5787 -144 c-2 -13 -4
-5 -4 17 -1 22 1 32 4 23 2 -10 2 -28 0 -40z m1218 -26 c-3 -3 -11 0 -18 7 -9
10 -8 11 6 5 10 -3 15 -9 12 -12z m-1218 -109 c-3 -10 -5 -4 -5 12 0 17 2 24
5 18 2 -7 2 -21 0 -30z m-5517 -103 c40 -38 203 -141 305 -194 28 -14 46 -25
42 -26 -13 0 -128 60 -219 117 -51 32 -124 90 -172 136 -60 60 -29 36 44 -33z
m470 4 c41 -19 69 -34 62 -34 -16 0 -222 97 -222 105 0 3 19 -4 43 -16 23 -12
76 -37 117 -55z m1503 29 c-34 -2 -93 -2 -130 0 -37 2 -9 3 62 3 72 0 102 -1
68 -3z m-260 -10 c-13 -2 -33 -2 -45 0 -13 2 -3 4 22 4 25 0 35 -2 23 -4z
m425 0 c-16 -2 -40 -2 -55 0 -16 2 -3 4 27 4 30 0 43 -2 28 -4z m-525 -10 c-7
-2 -21 -2 -30 0 -10 3 -4 5 12 5 17 0 24 -2 18 -5z m615 0 c-10 -2 -26 -2 -35
0 -10 3 -2 5 17 5 19 0 27 -2 18 -5z m-705 -10 c-7 -2 -19 -2 -25 0 -7 3 -2 5
12 5 14 0 19 -2 13 -5z m780 0 c-7 -2 -21 -2 -30 0 -10 3 -4 5 12 5 17 0 24
-2 18 -5z m-840 -10 c-7 -2 -19 -2 -25 0 -7 3 -2 5 12 5 14 0 19 -2 13 -5z
m900 0 c-7 -2 -19 -2 -25 0 -7 3 -2 5 12 5 14 0 19 -2 13 -5z m-955 -10 c-10
-2 -26 -2 -35 0 -10 3 -2 5 17 5 19 0 27 -2 18 -5z m1025 0 c-7 -2 -21 -2 -30
0 -10 3 -4 5 12 5 17 0 24 -2 18 -5z m-1090 -10 c-7 -2 -21 -2 -30 0 -10 3 -4
5 12 5 17 0 24 -2 18 -5z m1144 1 c-3 -3 -12 -4 -19 -1 -8 3 -5 6 6 6 11 1 17
-2 13 -5z m-1902 -14 c13 -6 15 -9 5 -9 -8 0 -22 4 -30 9 -18 12 -2 12 25 0z
m1942 4 c-3 -3 -12 -4 -19 -1 -8 3 -5 6 6 6 11 1 17 -2 13 -5z m-1304 -11 c-7
-2 -19 -2 -25 0 -7 3 -2 5 12 5 14 0 19 -2 13 -5z m1354 1 c-3 -3 -12 -4 -19
-1 -8 3 -5 6 6 6 11 1 17 -2 13 -5z m-1662 -19 c123 1 187 -2 155 -6 -99 -13
-371 -9 -415 6 l-40 13 45 -6 c25 -4 140 -7 255 -7z m258 8 c-7 -2 -21 -2 -30
0 -10 3 -4 5 12 5 17 0 24 -2 18 -5z m1477 -9 l35 -14 -35 6 c-19 3 -39 10
-44 15 -14 13 2 10 44 -7z m97 -30 c-3 -3 -12 -4 -19 -1 -8 3 -5 6 6 6 11 1
17 -2 13 -5z m83 -24 c18 -12 2 -12 -25 0 -13 6 -15 9 -5 9 8 0 22 -4 30 -9z
m143 -52 c43 -17 77 -32 75 -34 -4 -4 -190 65 -198 73 -7 8 33 -5 123 -39z
m-990 -45 c-45 -2 -122 -2 -170 0 -48 1 -11 3 82 3 94 0 133 -2 88 -3z m-1583
-19 l25 -15 -25 7 c-14 3 -29 10 -34 15 -16 14 6 10 34 -7z m1278 9 c-10 -2
-26 -2 -35 0 -10 3 -2 5 17 5 19 0 27 -2 18 -5z m495 0 c-7 -2 -21 -2 -30 0
-10 3 -4 5 12 5 17 0 24 -2 18 -5z m-585 -10 c-10 -2 -26 -2 -35 0 -10 3 -2 5
17 5 19 0 27 -2 18 -5z m665 0 c-7 -2 -21 -2 -30 0 -10 3 -4 5 12 5 17 0 24
-2 18 -5z m-735 -10 c-10 -2 -26 -2 -35 0 -10 3 -2 5 17 5 19 0 27 -2 18 -5z
m795 0 c-7 -2 -21 -2 -30 0 -10 3 -4 5 12 5 17 0 24 -2 18 -5z m847 -8 c14 -8
21 -14 15 -14 -5 0 -21 6 -35 14 -14 8 -20 14 -15 14 6 0 21 -6 35 -14z
m-2670 -17 c10 -6 7 -7 -10 -2 -14 3 -32 11 -40 16 -10 6 -7 7 10 2 14 -3 32
-11 40 -16z m963 15 c-7 -2 -21 -2 -30 0 -10 3 -4 5 12 5 17 0 24 -2 18 -5z
m930 0 c-7 -2 -21 -2 -30 0 -10 3 -4 5 12 5 17 0 24 -2 18 -5z m-990 -10 c-7
-2 -21 -2 -30 0 -10 3 -4 5 12 5 17 0 24 -2 18 -5z m1034 1 c-3 -3 -12 -4 -19
-1 -8 3 -5 6 6 6 11 1 17 -2 13 -5z m-1100 -10 c-3 -3 -12 -4 -19 -1 -8 3 -5
6 6 6 11 1 17 -2 13 -5z m-50 -10 c-3 -3 -12 -4 -19 -1 -8 3 -5 6 6 6 11 1 17
-2 13 -5z m1963 -9 c14 -8 21 -14 15 -14 -5 0 -21 6 -35 14 -14 8 -20 14 -15
14 6 0 21 -6 35 -14z m-2565 -15 c48 -9 48 -9 -13 -4 -35 3 -73 9 -85 14 -24
10 -3 8 98 -10z m520 10 c-22 -5 -76 -11 -120 -14 l-80 -5 90 13 c105 15 175
19 110 6z m1380 0 c13 -5 14 -9 5 -9 -8 0 -24 4 -35 9 -13 5 -14 9 -5 9 8 0
24 -4 35 -9z m52 -16 c-3 -3 -12 -4 -19 -1 -8 3 -5 6 6 6 11 1 17 -2 13 -5z
m-1709 -11 c-32 -2 -84 -2 -115 0 -32 2 -6 3 57 3 63 0 89 -1 58 -3z m2467
-51 c-3 -3 -11 0 -18 7 -9 10 -8 11 6 5 10 -3 15 -9 12 -12z m2035 -26 c0 -12
-5 -7 -19 24 -11 24 -11 24 3 6 9 -11 16 -24 16 -30z m-2520 -6 c8 -5 11 -10
5 -10 -5 0 -17 5 -25 10 -8 5 -10 10 -5 10 6 0 17 -5 25 -10z m2014 -80 c3
-14 -5 -1 -19 29 -14 29 -25 56 -25 60 1 11 37 -63 44 -89z m547 28 c15 -28 5
-21 -21 15 -15 20 -17 27 -6 18 9 -8 22 -23 27 -33z m-1911 -14 c0 -2 -9 0
-20 6 -11 6 -20 13 -20 16 0 2 9 0 20 -6 11 -6 20 -13 20 -16z m-460 -19 c36
-19 61 -34 55 -34 -5 0 -39 15 -75 34 -36 19 -60 34 -55 34 6 0 39 -15 75 -34z
m590 -71 c0 -3 -13 4 -30 16 -16 12 -30 24 -30 26 0 3 14 -4 30 -16 17 -12 30
-24 30 -26z m-376 -53 c-2 -3 -12 3 -22 13 -16 17 -16 18 5 5 12 -7 20 -15 17
-18z m471 -11 c10 -11 16 -20 13 -20 -3 0 -13 9 -23 20 -10 11 -16 20 -13 20
3 0 13 -9 23 -20z m1840 0 c10 -11 16 -20 13 -20 -3 0 -13 9 -23 20 -10 11
-16 20 -13 20 3 0 13 -9 23 -20z m-2225 -36 c0 -2 -9 0 -20 6 -11 6 -20 13
-20 16 0 2 9 0 20 -6 11 -6 20 -13 20 -16z m301 -211 c13 -16 12 -17 -3 -4
-10 7 -18 15 -18 17 0 8 8 3 21 -13z m1524 -53 c10 -11 16 -20 13 -20 -3 0
-13 9 -23 20 -10 11 -16 20 -13 20 3 0 13 -9 23 -20z m-724 -407 c13 -16 12
-17 -3 -4 -10 7 -18 15 -18 17 0 8 8 3 21 -13z m7309 -1943 c-52 -4 -117 -11
-145 -15 -27 -4 -47 -5 -44 -1 10 11 120 24 204 23 l80 0 -95 -7z m168 -7
c-10 -2 -26 -2 -35 0 -10 3 -2 5 17 5 19 0 27 -2 18 -5z m49 -9 c-3 -3 -12 -4
-19 -1 -8 3 -5 6 6 6 11 1 17 -2 13 -5z m-517 -39 c-113 -37 -147 -41 -53 -7
68 25 122 40 143 40 8 1 -32 -15 -90 -33z m557 29 c-3 -3 -12 -4 -19 -1 -8 3
-5 6 6 6 11 1 17 -2 13 -5z m118 -44 c3 -6 -1 -7 -9 -4 -18 7 -21 14 -7 14 6
0 13 -4 16 -10z m51 -26 c18 -14 18 -14 -6 -3 -31 14 -36 19 -24 19 6 0 19 -7
30 -16z m-448 -151 c-10 -2 -28 -2 -40 0 -13 2 -5 4 17 4 22 1 32 -1 23 -4z
m192 -9 c19 -8 24 -12 10 -8 -14 3 -59 9 -100 13 l-75 8 65 1 c36 0 81 -6 100
-14z m-273 0 c-3 -3 -12 -4 -19 -1 -8 3 -5 6 6 6 11 1 17 -2 13 -5z m-57 -14
c-34 -11 -60 -11 -35 0 11 5 29 8 40 8 16 0 15 -2 -5 -8z m-61 -14 c-2 -2 -33
-14 -69 -26 -36 -12 -92 -35 -125 -51 -62 -29 -90 -33 -35 -4 73 38 251 101
229 81z m501 -11 c17 -9 30 -18 30 -21 0 -4 -59 23 -69 32 -10 9 13 3 39 -11z
m105 -63 c-3 -3 -11 0 -18 7 -9 10 -8 11 6 5 10 -3 15 -9 12 -12z m-875 -37
c0 -2 -10 -9 -22 -15 -22 -11 -22 -10 -4 4 21 17 26 19 26 11z m955 -15 c3 -6
-1 -7 -9 -4 -18 7 -21 14 -7 14 6 0 13 -4 16 -10z m-1009 -18 c-7 -11 -96 -74
-96 -68 0 5 91 75 98 76 2 0 1 -3 -2 -8z m1075 -39 c13 -16 12 -17 -3 -4 -10
7 -18 15 -18 17 0 8 8 3 21 -13z m-1206 -59 c-63 -54 -180 -160 -197 -178 -10
-11 -20 -17 -23 -14 -7 7 230 218 244 218 3 0 -7 -12 -24 -26z m698 -281 c-7
-2 -19 -2 -25 0 -7 3 -2 5 12 5 14 0 19 -2 13 -5z"/>
<path d="M13700 7119 c-85 -8 -94 -13 -114 -58 -15 -33 -16 -51 -7 -149 6 -62
17 -125 25 -140 20 -39 60 -54 137 -50 l64 3 -1 30 c-3 96 -27 361 -32 365 -4
3 -36 3 -72 -1z"/>
<path d="M12866 6938 c-10 -76 -48 -580 -44 -584 3 -2 48 -1 102 3 l98 6 -7
36 c-11 58 -135 574 -139 579 -3 2 -7 -16 -10 -40z"/>
<path d="M13733 6530 c-60 -12 -83 -27 -99 -65 -16 -40 -19 -155 -4 -155 6 0
53 34 105 76 95 76 106 93 89 138 -7 17 -26 18 -91 6z"/>
<path d="M12922 5229 c-149 -11 -167 -32 -159 -186 8 -161 33 -186 184 -184
53 0 100 4 104 8 10 10 -17 354 -28 362 -4 4 -50 4 -101 0z"/>
<path d="M6247 6600 c-70 -21 -77 -52 -62 -247 6 -84 14 -155 16 -157 3 -3 20
-8 39 -11 45 -8 140 -35 162 -46 10 -5 18 -4 20 2 2 5 -4 94 -13 197 -18 215
-28 245 -87 261 -42 12 -37 12 -75 1z"/>
<path d="M8232 6480 c0 -14 2 -19 5 -12 2 6 2 18 0 25 -3 6 -5 1 -5 -13z"/>
<path d="M7726 6395 c5 -67 16 -96 30 -82 4 3 -3 39 -15 79 l-21 73 6 -70z"/>
<path d="M8220 6413 c0 -28 -6 -101 -34 -434 -8 -96 -16 -192 -18 -213 l-3
-39 62 -18 c34 -9 64 -15 67 -12 3 3 3 24 0 47 -2 22 -11 131 -19 241 -9 121
-19 201 -25 203 -7 3 -8 8 -1 16 6 7 7 45 1 106 -5 52 -10 103 -10 113 0 29
-20 19 -20 -10z"/>
<path d="M5381 6298 c0 -29 4 -73 7 -98 l7 -45 33 77 c17 43 32 84 32 92 0 11
-40 26 -71 26 -5 0 -9 -24 -8 -52z"/>
<path d="M7735 6248 c3 -29 12 -138 20 -242 8 -105 18 -193 22 -197 5 -3 32
-11 61 -16 45 -9 52 -8 52 6 0 19 -105 438 -120 475 -5 14 -16 26 -25 26 -12
0 -14 -10 -10 -52z"/>
<path d="M6200 6156 c0 -31 31 -393 36 -425 9 -55 44 -81 107 -81 46 0 57 4
82 30 23 25 28 37 28 82 -1 85 -24 342 -31 349 -6 5 -203 59 -216 59 -3 0 -6
-6 -6 -14z"/>
<path d="M7007 5953 c-8 -15 9 -178 22 -201 26 -49 111 -62 168 -26 29 18 45
78 35 134 l-7 44 -85 21 c-47 12 -95 25 -107 29 -12 4 -23 3 -26 -1z"/>
<path d="M7623 4873 c-47 -5 -52 -9 -25 -29 15 -12 15 -12 -5 -7 -23 5 -23 5
-23 -121 l0 -126 38 -24 c20 -13 55 -41 77 -61 22 -20 31 -31 20 -24 -11 8
-22 17 -25 20 -10 12 -93 69 -101 69 -4 0 -9 -111 -11 -247 -3 -238 -4 -250
-26 -287 -13 -21 -21 -41 -18 -43 5 -5 339 17 345 23 8 7 -21 329 -30 341 -6
6 -6 13 -1 15 5 1 3 71 -3 158 l-12 154 -39 34 -39 35 38 -27 37 -27 0 38 c0
21 -3 62 -6 91 l-7 52 -71 -2 c-39 -1 -90 -3 -113 -5z m65 -78 c70 -48 66 -54
-5 -8 -68 42 -69 43 -57 43 5 0 33 -16 62 -35z m132 -413 c0 -9 -88 73 -89 83
-1 5 19 -11 44 -35 25 -24 45 -46 45 -48z"/>
<path d="M6463 4798 c-19 -25 -51 -114 -74 -203 l-22 -90 21 -265 20 -265 30
-26 c82 -74 262 -26 262 69 0 89 -54 711 -63 732 -7 14 -28 33 -47 42 -41 21
-113 24 -127 6z"/>
<path d="M6389 4771 c-28 -28 -29 -34 -29 -116 0 -55 4 -84 10 -80 6 3 10 12
10 20 0 8 14 54 30 103 17 50 30 93 30 96 0 15 -24 4 -51 -23z"/>
<path d="M11961 10733 c-79 -226 -251 -517 -520 -883 -516 -701 -632 -934
-634 -1275 -2 -186 40 -312 135 -406 58 -57 104 -83 185 -104 73 -19 121 -19
202 1 152 38 296 145 383 284 97 155 146 326 212 735 115 711 245 1311 362
1663 8 23 14 45 14 47 0 3 -71 5 -158 5 l-157 0 -24 -67z"/>
<path d="M0 3646 l0 -1946 22 -5 c13 -2 37 -7 53 -9 17 -2 6 -3 -22 -2 l-53 3
0 -243 0 -243 23 -4 22 -4 -22 -2 -23 -1 0 -595 0 -595 1729 0 1730 0 28 37
c15 21 31 40 34 43 4 3 28 34 54 70 58 80 170 189 221 215 22 11 41 22 44 26
9 9 93 37 148 48 194 40 374 -30 461 -178 34 -57 71 -176 71 -228 l0 -33 1252
0 c688 0 1249 2 1247 4 -2 2 -53 29 -114 61 -395 205 -625 394 -791 647 -87
133 -149 267 -230 498 -25 69 -48 134 -53 145 -5 11 -28 79 -51 150 -78 240
-158 427 -251 583 -133 223 -359 476 -546 612 -26 19 -57 43 -67 52 -35 32
-260 164 -360 212 -215 103 -460 196 -636 241 -36 9 -85 23 -110 30 -108 32
-524 121 -680 145 -30 5 -107 18 -170 29 -63 11 -137 22 -165 26 -27 3 -133
19 -235 36 -102 16 -228 36 -280 45 -267 43 -500 94 -605 132 -372 135 -665
397 -1010 906 -93 137 -198 309 -198 323 0 7 -3 10 -7 8 -6 -3 -49 65 -102
159 -9 17 -22 36 -27 43 -30 34 -111 185 -105 195 4 6 3 8 -4 4 -14 -8 -55 50
-46 66 4 7 4 10 0 6 -7 -6 -76 84 -76 99 0 2 -11 19 -25 37 -14 18 -25 36 -25
40 0 4 -11 18 -25 32 l-25 25 0 -1945z m66 893 c3 -6 -5 -3 -20 6 -14 10 -26
19 -26 22 0 7 39 -17 46 -28z m69 -49 c3 -6 -1 -7 -9 -4 -18 7 -21 14 -7 14 6
0 13 -4 16 -10z m45 -2820 c20 -6 21 -8 5 -8 -11 0 -33 4 -50 8 -27 7 -27 8
-5 8 14 0 36 -4 50 -8z m57 -16 c-3 -3 -12 -4 -19 -1 -8 3 -5 6 6 6 11 1 17
-2 13 -5z m50 -10 c-3 -3 -12 -4 -19 -1 -8 3 -5 6 6 6 11 1 17 -2 13 -5z m40
-10 c-3 -3 -12 -4 -19 -1 -8 3 -5 6 6 6 11 1 17 -2 13 -5z m40 -10 c-3 -3 -12
-4 -19 -1 -8 3 -5 6 6 6 11 1 17 -2 13 -5z m130 -40 c-3 -3 -12 -4 -19 -1 -8
3 -5 6 6 6 11 1 17 -2 13 -5z m73 -26 c10 -6 7 -7 -10 -2 -14 3 -32 11 -40 16
-10 6 -7 7 10 2 14 -3 32 -11 40 -16z m90 -33 c14 -8 21 -14 15 -14 -5 0 -21
6 -35 14 -14 8 -20 14 -15 14 6 0 21 -6 35 -14z m140 -70 c0 -3 -18 4 -40 15
-22 11 -40 23 -40 25 0 3 18 -4 40 -15 22 -11 40 -23 40 -25z m40 -15 c8 -5
11 -10 5 -10 -5 0 -17 5 -25 10 -8 5 -10 10 -5 10 6 0 17 -5 25 -10z m72 -40
c18 -11 29 -20 23 -20 -5 0 -23 9 -40 20 -39 26 -25 26 17 0z m99 -58 c-7 -2
-18 1 -23 6 -8 8 -4 9 13 5 13 -4 18 -8 10 -11z m165 -90 c-5 -4 -66 26 -66
33 0 3 16 -3 35 -12 19 -9 33 -18 31 -21z m-1083 -69 c-7 -2 -19 -2 -25 0 -7
3 -2 5 12 5 14 0 19 -2 13 -5z m90 -14 c22 -6 37 -12 34 -15 -2 -2 -28 2 -58
10 -30 8 -45 15 -34 15 11 1 37 -4 58 -10z m74 -25 c-3 -3 -12 -4 -19 -1 -8 3
-5 6 6 6 11 1 17 -2 13 -5z m83 -24 c13 -9 13 -10 0 -10 -8 0 -22 5 -30 10
-13 9 -13 10 0 10 8 0 22 -5 30 -10z m60 -20 c18 -12 2 -12 -25 0 -13 6 -15 9
-5 9 8 0 22 -4 30 -9z m50 -20 c8 -5 11 -10 5 -10 -5 0 -17 5 -25 10 -8 5 -10
10 -5 10 6 0 17 -5 25 -10z m98 -40 c3 0 3 -2 0 -5 -5 -6 -78 22 -78 30 0 3
16 -2 36 -10 20 -8 39 -15 42 -15z m1455 13 c-7 -2 -19 -2 -25 0 -7 3 -2 5 12
5 14 0 19 -2 13 -5z m-146 -10 c-20 -2 -52 -2 -70 0 -17 2 0 4 38 4 39 0 53
-2 32 -4z m-1252 -41 c-3 -3 -11 0 -18 7 -9 10 -8 11 6 5 10 -3 15 -9 12 -12z
m51 -30 c-4 -3 -14 2 -24 12 -16 18 -16 18 6 6 13 -6 21 -14 18 -18z m204
-108 c0 -2 -9 0 -20 6 -11 6 -20 13 -20 16 0 2 9 0 20 -6 11 -6 20 -13 20 -16z
m110 -60 c0 -2 -13 2 -30 11 -16 9 -30 18 -30 21 0 2 14 -2 30 -11 17 -9 30
-18 30 -21z m35 -22 c-3 -3 -11 0 -18 7 -9 10 -8 11 6 5 10 -3 15 -9 12 -12z
m165 -72 c8 -5 11 -10 5 -10 -5 0 -17 5 -25 10 -8 5 -10 10 -5 10 6 0 17 -5
25 -10z m423 -137 c-7 -2 -21 -2 -30 0 -10 3 -4 5 12 5 17 0 24 -2 18 -5z m54
-9 c-3 -3 -12 -4 -19 -1 -8 3 -5 6 6 6 11 1 17 -2 13 -5z m90 -10 c-3 -3 -12
-4 -19 -1 -8 3 -5 6 6 6 11 1 17 -2 13 -5z m210 0 c-3 -3 -12 -4 -19 -1 -8 3
-5 6 6 6 11 1 17 -2 13 -5z"/>
<path d="M18960 935 c-221 -40 -330 -64 -469 -104 -545 -157 -929 -398 -1245
-779 -20 -24 -36 -46 -36 -48 0 -2 448 -4 995 -4 l995 0 0 485 0 485 -27 -1
c-16 -1 -111 -16 -213 -34z"/>
<path d="M3978 415 c-106 -21 -215 -83 -295 -166 -36 -38 -165 -200 -187 -237
-6 -9 97 -12 499 -12 l506 0 -3 45 c-3 24 -7 48 -11 51 -4 4 -7 19 -7 33 0 37
-52 140 -92 182 -45 48 -110 84 -184 103 -73 19 -134 19 -226 1z"/>
</g>
</svg>
